%TF.GenerationSoftware,KiCad,Pcbnew,9.0.0*%
%TF.CreationDate,2026-03-06T00:50:36+01:00*%
%TF.ProjectId,syntak3,73796e74-616b-4332-9e6b-696361645f70,rev?*%
%TF.SameCoordinates,Original*%
%TF.FileFunction,Copper,L1,Top*%
%TF.FilePolarity,Positive*%
%FSLAX46Y46*%
G04 Gerber Fmt 4.6, Leading zero omitted, Abs format (unit mm)*
G04 Created by KiCad (PCBNEW 9.0.0) date 2026-03-06 00:50:36*
%MOMM*%
%LPD*%
G01*
G04 APERTURE LIST*
G04 Aperture macros list*
%AMRoundRect*
0 Rectangle with rounded corners*
0 $1 Rounding radius*
0 $2 $3 $4 $5 $6 $7 $8 $9 X,Y pos of 4 corners*
0 Add a 4 corners polygon primitive as box body*
4,1,4,$2,$3,$4,$5,$6,$7,$8,$9,$2,$3,0*
0 Add four circle primitives for the rounded corners*
1,1,$1+$1,$2,$3*
1,1,$1+$1,$4,$5*
1,1,$1+$1,$6,$7*
1,1,$1+$1,$8,$9*
0 Add four rect primitives between the rounded corners*
20,1,$1+$1,$2,$3,$4,$5,0*
20,1,$1+$1,$4,$5,$6,$7,0*
20,1,$1+$1,$6,$7,$8,$9,0*
20,1,$1+$1,$8,$9,$2,$3,0*%
G04 Aperture macros list end*
%TA.AperFunction,ComponentPad*%
%ADD10RoundRect,0.250000X-0.550000X0.950000X-0.550000X-0.950000X0.550000X-0.950000X0.550000X0.950000X0*%
%TD*%
%TA.AperFunction,ComponentPad*%
%ADD11O,1.600000X2.400000*%
%TD*%
%TA.AperFunction,ComponentPad*%
%ADD12O,1.800000X1.600000*%
%TD*%
%TA.AperFunction,ComponentPad*%
%ADD13RoundRect,0.250001X-0.799999X0.799999X-0.799999X-0.799999X0.799999X-0.799999X0.799999X0.799999X0*%
%TD*%
%TA.AperFunction,ComponentPad*%
%ADD14O,1.600000X1.800000*%
%TD*%
%TA.AperFunction,ComponentPad*%
%ADD15R,2.000000X1.700000*%
%TD*%
%TA.AperFunction,ComponentPad*%
%ADD16O,2.000000X1.700000*%
%TD*%
%TA.AperFunction,ComponentPad*%
%ADD17R,1.800000X1.800000*%
%TD*%
%TA.AperFunction,ComponentPad*%
%ADD18C,1.800000*%
%TD*%
%TA.AperFunction,ComponentPad*%
%ADD19RoundRect,0.250001X-0.799999X-0.799999X0.799999X-0.799999X0.799999X0.799999X-0.799999X0.799999X0*%
%TD*%
%TA.AperFunction,ComponentPad*%
%ADD20R,2.800000X2.600000*%
%TD*%
%TA.AperFunction,ComponentPad*%
%ADD21R,2.600000X2.800000*%
%TD*%
%TA.AperFunction,ComponentPad*%
%ADD22R,2.400000X2.400000*%
%TD*%
%TA.AperFunction,ComponentPad*%
%ADD23C,2.400000*%
%TD*%
%TA.AperFunction,ComponentPad*%
%ADD24R,1.800000X1.600000*%
%TD*%
%TA.AperFunction,ComponentPad*%
%ADD25R,2.000000X2.000000*%
%TD*%
%TA.AperFunction,ComponentPad*%
%ADD26C,2.000000*%
%TD*%
%TA.AperFunction,ComponentPad*%
%ADD27RoundRect,0.250000X0.550000X-0.950000X0.550000X0.950000X-0.550000X0.950000X-0.550000X-0.950000X0*%
%TD*%
%TA.AperFunction,Conductor*%
%ADD28C,0.700000*%
%TD*%
%TA.AperFunction,Conductor*%
%ADD29C,0.600000*%
%TD*%
G04 APERTURE END LIST*
D10*
%TO.P,U3-4040,1,Q11*%
%TO.N,GND*%
X195490000Y-78850000D03*
D11*
%TO.P,U3-4040,2,Q5*%
X192950000Y-78850000D03*
%TO.P,U3-4040,3,Q4*%
X190410000Y-78850000D03*
%TO.P,U3-4040,4,Q6*%
X187870000Y-78850000D03*
%TO.P,U3-4040,5,Q3*%
%TO.N,Net-(U3-Q3)*%
X185330000Y-78850000D03*
%TO.P,U3-4040,6,Q2*%
%TO.N,Net-(U3-Q2)*%
X182790000Y-78850000D03*
%TO.P,U3-4040,7,Q1*%
%TO.N,Net-(U3-Q1)*%
X180250000Y-78850000D03*
%TO.P,U3-4040,8,VSS*%
%TO.N,GND*%
X177710000Y-78850000D03*
%TO.P,U3-4040,9,Q0*%
%TO.N,Net-(U3-Q0)*%
X177710000Y-86470000D03*
%TO.P,U3-4040,10,CLK*%
%TO.N,Net-(J5-Pin_1)*%
X180250000Y-86470000D03*
%TO.P,U3-4040,11,Reset*%
%TO.N,GND*%
X182790000Y-86470000D03*
%TO.P,U3-4040,12,Q8*%
X185330000Y-86470000D03*
%TO.P,U3-4040,13,Q7*%
X187870000Y-86470000D03*
%TO.P,U3-4040,14,Q9*%
X190410000Y-86470000D03*
%TO.P,U3-4040,15,Q10*%
X192950000Y-86470000D03*
%TO.P,U3-4040,16,VDD*%
%TO.N,Net-(RV3-Pin_2)*%
X195490000Y-86470000D03*
%TD*%
D12*
%TO.P,R4,1*%
%TO.N,Net-(RV7-Pin_1)*%
X143150000Y-103600000D03*
%TO.P,R4,2*%
%TO.N,Net-(J3-Pin_1)*%
X143150000Y-95980000D03*
%TD*%
D13*
%TO.P,J7,1,Pin_1*%
%TO.N,Net-(J7-Pin_1)*%
X168500000Y-102450000D03*
%TD*%
D14*
%TO.P,R6,1*%
%TO.N,Net-(RV9-Pin_1)*%
X164250000Y-101400000D03*
%TO.P,R6,2*%
%TO.N,Net-(J9-Pin_1)*%
X156630000Y-101400000D03*
%TD*%
D15*
%TO.P,SW3,1,Pin_1*%
%TO.N,Net-(J9-Pin_1)*%
X169550000Y-95100000D03*
D16*
%TO.P,SW3,2,Pin_2*%
%TO.N,Net-(D4-A)*%
X169550000Y-90000000D03*
%TD*%
D17*
%TO.P,C5,1*%
%TO.N,Net-(C5-Pad1)*%
X159850000Y-75650000D03*
D18*
%TO.P,C5,2*%
%TO.N,GND*%
X157350000Y-75650000D03*
%TD*%
D12*
%TO.P,R1,1*%
%TO.N,Net-(RV4-Pin_1)*%
X165150000Y-79700000D03*
%TO.P,R1,2*%
%TO.N,Net-(C5-Pad1)*%
X165150000Y-87320000D03*
%TD*%
D19*
%TO.P,J1,1,Pin_1*%
%TO.N,Net-(D2-K)*%
X162550000Y-72050000D03*
%TD*%
D12*
%TO.P,R8,1*%
%TO.N,Net-(U3-Q1)*%
X179563197Y-75723842D03*
%TO.P,R8,2*%
%TO.N,Net-(C11-Pad1)*%
X179563197Y-68103842D03*
%TD*%
D19*
%TO.P,9V,1,Pin_1*%
%TO.N,+9V*%
X137700000Y-93400000D03*
%TD*%
D12*
%TO.P,R9,1*%
%TO.N,Net-(U3-Q2)*%
X182063197Y-75723842D03*
%TO.P,R9,2*%
%TO.N,Net-(C11-Pad1)*%
X182063197Y-68103842D03*
%TD*%
D13*
%TO.P,J11,1,Pin_1*%
%TO.N,Net-(J11-Pin_1)*%
X166850000Y-106350000D03*
%TD*%
D14*
%TO.P,C10,1*%
%TO.N,Net-(J9-Pin_1)*%
X169350000Y-97450000D03*
%TO.P,C10,2*%
%TO.N,GND*%
X174350000Y-97450000D03*
%TD*%
D12*
%TO.P,C8,1*%
%TO.N,Net-(J3-Pin_1)*%
X147350000Y-93350000D03*
%TO.P,C8,2*%
%TO.N,GND*%
X147350000Y-88350000D03*
%TD*%
D10*
%TO.P,U2-4070/4030,1*%
%TO.N,Net-(J10-Pin_1)*%
X194750000Y-91300000D03*
D11*
%TO.P,U2-4070/4030,2*%
%TO.N,Net-(J12-Pin_1)*%
X192210000Y-91300000D03*
%TO.P,U2-4070/4030,3*%
%TO.N,Net-(J4-Pin_1)*%
X189670000Y-91300000D03*
%TO.P,U2-4070/4030,4*%
%TO.N,Net-(J12-Pin_1)*%
X187130000Y-91300000D03*
%TO.P,U2-4070/4030,5*%
%TO.N,Net-(J11-Pin_1)*%
X184590000Y-91300000D03*
%TO.P,U2-4070/4030,6*%
%TO.N,Net-(J7-Pin_1)*%
X182050000Y-91300000D03*
%TO.P,U2-4070/4030,7,VSS*%
%TO.N,GND*%
X179510000Y-91300000D03*
%TO.P,U2-4070/4030,8*%
%TO.N,Net-(J4-Pin_1)*%
X179510000Y-98920000D03*
%TO.P,U2-4070/4030,9*%
%TO.N,Net-(D2-K)*%
X182050000Y-98920000D03*
%TO.P,U2-4070/4030,10*%
%TO.N,Net-(J6-Pin_1)*%
X184590000Y-98920000D03*
%TO.P,U2-4070/4030,11*%
%TO.N,Net-(J5-Pin_1)*%
X187130000Y-98920000D03*
%TO.P,U2-4070/4030,12*%
%TO.N,Net-(D4-K)*%
X189670000Y-98920000D03*
%TO.P,U2-4070/4030,13*%
%TO.N,Net-(J6-Pin_1)*%
X192210000Y-98920000D03*
%TO.P,U2-4070/4030,14,VDD*%
%TO.N,Net-(D1-K)*%
X194750000Y-98920000D03*
%TD*%
D14*
%TO.P,C2,1*%
%TO.N,GND*%
X146800000Y-86100000D03*
%TO.P,C2,2*%
%TO.N,Net-(RV2-Pin_1)*%
X151800000Y-86100000D03*
%TD*%
D20*
%TO.P,RV3,1,Pin_1*%
%TO.N,Net-(D1-K)*%
X198900000Y-91297500D03*
%TO.P,RV3,2,Pin_2*%
%TO.N,Net-(RV3-Pin_2)*%
X198900000Y-87650000D03*
%TD*%
%TO.P,RV2,1,Pin_1*%
%TO.N,Net-(RV2-Pin_1)*%
X137750384Y-100147500D03*
%TO.P,RV2,2,Pin_2*%
%TO.N,Net-(D1-K)*%
X137750384Y-96500000D03*
%TD*%
D21*
%TO.P,RV9,1,Pin_1*%
%TO.N,Net-(RV9-Pin_1)*%
X163047500Y-106350000D03*
%TO.P,RV9,2,Pin_2*%
%TO.N,Net-(J10-Pin_1)*%
X159400000Y-106350000D03*
%TD*%
%TO.P,RV7,1,Pin_1*%
%TO.N,Net-(RV7-Pin_1)*%
X143652500Y-106350000D03*
%TO.P,RV7,2,Pin_2*%
%TO.N,Net-(J7-Pin_1)*%
X147300000Y-106350000D03*
%TD*%
D22*
%TO.P,C1,1*%
%TO.N,Net-(D1-K)*%
X145550000Y-80665216D03*
D23*
%TO.P,C1,2*%
%TO.N,GND*%
X145550000Y-75665216D03*
%TD*%
D12*
%TO.P,C3,1*%
%TO.N,GND*%
X199500000Y-95100000D03*
%TO.P,C3,2*%
%TO.N,Net-(D1-K)*%
X199500000Y-100100000D03*
%TD*%
D19*
%TO.P,J2,1,Pin_1*%
%TO.N,Net-(D3-K)*%
X166050000Y-76250000D03*
%TD*%
D12*
%TO.P,R3,1*%
%TO.N,Net-(RV6-Pin_1)*%
X154025000Y-79730000D03*
%TO.P,R3,2*%
%TO.N,Net-(C7-Pad1)*%
X154025000Y-87350000D03*
%TD*%
%TO.P,R10,1*%
%TO.N,Net-(U3-Q3)*%
X184613197Y-75723842D03*
%TO.P,R10,2*%
%TO.N,Net-(C11-Pad1)*%
X184613197Y-68103842D03*
%TD*%
D19*
%TO.P,J3,1,Pin_1*%
%TO.N,Net-(J3-Pin_1)*%
X141950000Y-93350000D03*
%TD*%
D13*
%TO.P,J4,1,Pin_1*%
%TO.N,Net-(J4-Pin_1)*%
X179150000Y-102350000D03*
%TD*%
D14*
%TO.P,R5,1*%
%TO.N,Net-(RV8-Pin_1)*%
X153250000Y-101000000D03*
%TO.P,R5,2*%
%TO.N,Net-(J8-Pin_1)*%
X145630000Y-101000000D03*
%TD*%
D13*
%TO.P,J6,1,Pin_1*%
%TO.N,Net-(J6-Pin_1)*%
X182650000Y-102450000D03*
%TD*%
D17*
%TO.P,C11,1*%
%TO.N,Net-(C11-Pad1)*%
X190700000Y-74250000D03*
D18*
%TO.P,C11,2*%
%TO.N,Net-(OUT1-Pin_1)*%
X193200000Y-74250000D03*
%TD*%
D15*
%TO.P,SW1,1,Pin_1*%
%TO.N,Net-(J3-Pin_1)*%
X172500000Y-87100000D03*
D16*
%TO.P,SW1,2,Pin_2*%
%TO.N,Net-(D3-A)*%
X172500000Y-82600000D03*
%TD*%
D13*
%TO.P,J12,1,Pin_1*%
%TO.N,Net-(J12-Pin_1)*%
X191100000Y-104900000D03*
%TD*%
D19*
%TO.P,GND2,1,Pin_1*%
%TO.N,GND*%
X198900000Y-75600000D03*
%TD*%
D24*
%TO.P,D3,1,K*%
%TO.N,Net-(D3-K)*%
X167550000Y-87150000D03*
D12*
%TO.P,D3,2,A*%
%TO.N,Net-(D3-A)*%
X167550000Y-79530000D03*
%TD*%
D17*
%TO.P,C6,1*%
%TO.N,Net-(C6-Pad1)*%
X153650000Y-74400000D03*
D18*
%TO.P,C6,2*%
%TO.N,GND*%
X153650000Y-71900000D03*
%TD*%
D24*
%TO.P,D4,1,K*%
%TO.N,Net-(D4-K)*%
X156575000Y-87250000D03*
D12*
%TO.P,D4,2,A*%
%TO.N,Net-(D4-A)*%
X156575000Y-79630000D03*
%TD*%
D19*
%TO.P,J8,1,Pin_1*%
%TO.N,Net-(J8-Pin_1)*%
X147150000Y-98300000D03*
%TD*%
D21*
%TO.P,RV8,1,Pin_1*%
%TO.N,Net-(RV8-Pin_1)*%
X151552500Y-106300000D03*
%TO.P,RV8,2,Pin_2*%
%TO.N,Net-(J11-Pin_1)*%
X155200000Y-106300000D03*
%TD*%
%TO.P,RV5,1,Pin_1*%
%TO.N,Net-(RV5-Pin_1)*%
X165052500Y-68400000D03*
%TO.P,RV5,2,Pin_2*%
%TO.N,Net-(D2-K)*%
X168700000Y-68400000D03*
%TD*%
D24*
%TO.P,D1,1,K*%
%TO.N,Net-(D1-K)*%
X137300000Y-82710000D03*
D12*
%TO.P,D1,2,A*%
%TO.N,GND*%
X137300000Y-75090000D03*
%TD*%
D21*
%TO.P,RV4,1,Pin_1*%
%TO.N,Net-(RV4-Pin_1)*%
X172652500Y-68400000D03*
%TO.P,RV4,2,Pin_2*%
%TO.N,Net-(D3-K)*%
X176300000Y-68400000D03*
%TD*%
D19*
%TO.P,GND1,1,Pin_1*%
%TO.N,GND*%
X144150000Y-69750000D03*
%TD*%
%TO.P,J9,1,Pin_1*%
%TO.N,Net-(J9-Pin_1)*%
X171950000Y-102450000D03*
%TD*%
D13*
%TO.P,J5,1,Pin_1*%
%TO.N,Net-(J5-Pin_1)*%
X185950000Y-102750000D03*
%TD*%
D14*
%TO.P,R7,1*%
%TO.N,Net-(U3-Q0)*%
X169690000Y-76200000D03*
%TO.P,R7,2*%
%TO.N,Net-(C11-Pad1)*%
X177310000Y-76200000D03*
%TD*%
D21*
%TO.P,RV6,1,Pin_1*%
%TO.N,Net-(RV6-Pin_1)*%
X160697500Y-68350000D03*
%TO.P,RV6,2,Pin_2*%
%TO.N,Net-(D4-K)*%
X157050000Y-68350000D03*
%TD*%
D19*
%TO.P,OUT1,1,Pin_1*%
%TO.N,Net-(OUT1-Pin_1)*%
X192800000Y-68500000D03*
%TD*%
D12*
%TO.P,C4,1*%
%TO.N,GND*%
X198900000Y-79000000D03*
%TO.P,C4,2*%
%TO.N,Net-(RV3-Pin_2)*%
X198900000Y-84000000D03*
%TD*%
%TO.P,R11,1*%
%TO.N,GND*%
X187113197Y-75723842D03*
%TO.P,R11,2*%
%TO.N,Net-(C11-Pad1)*%
X187113197Y-68103842D03*
%TD*%
D17*
%TO.P,C7,1*%
%TO.N,Net-(C7-Pad1)*%
X148750000Y-70400000D03*
D18*
%TO.P,C7,2*%
%TO.N,GND*%
X148750000Y-67900000D03*
%TD*%
D12*
%TO.P,R2,1*%
%TO.N,Net-(RV5-Pin_1)*%
X159125000Y-79730000D03*
%TO.P,R2,2*%
%TO.N,Net-(C6-Pad1)*%
X159125000Y-87350000D03*
%TD*%
D13*
%TO.P,J10,1,Pin_1*%
%TO.N,Net-(J10-Pin_1)*%
X174700000Y-106600000D03*
%TD*%
D19*
%TO.P,J13,1,Pin_1*%
%TO.N,Net-(D4-K)*%
X153300000Y-68150000D03*
%TD*%
D25*
%TO.P,RV1,1,1*%
%TO.N,+9V*%
X137450000Y-90750000D03*
D26*
%TO.P,RV1,2,2*%
%TO.N,Net-(D1-K)*%
X142450000Y-88250000D03*
%TO.P,RV1,3,3*%
X137450000Y-85750000D03*
%TD*%
D15*
%TO.P,SW2,1,Pin_1*%
%TO.N,Net-(J8-Pin_1)*%
X172187500Y-95100000D03*
D16*
%TO.P,SW2,2,Pin_2*%
%TO.N,Net-(D2-A)*%
X172187500Y-90000000D03*
%TD*%
D12*
%TO.P,C9,1*%
%TO.N,Net-(J8-Pin_1)*%
X144950000Y-93350000D03*
%TO.P,C9,2*%
%TO.N,GND*%
X144950000Y-88350000D03*
%TD*%
D27*
%TO.P,U1-40106,1*%
%TO.N,Net-(J3-Pin_1)*%
X150800000Y-97500000D03*
D11*
%TO.P,U1-40106,2*%
%TO.N,Net-(J7-Pin_1)*%
X153340000Y-97500000D03*
%TO.P,U1-40106,3*%
%TO.N,Net-(J8-Pin_1)*%
X155880000Y-97500000D03*
%TO.P,U1-40106,4*%
%TO.N,Net-(J11-Pin_1)*%
X158420000Y-97500000D03*
%TO.P,U1-40106,5*%
%TO.N,Net-(J9-Pin_1)*%
X160960000Y-97500000D03*
%TO.P,U1-40106,6*%
%TO.N,Net-(J10-Pin_1)*%
X163500000Y-97500000D03*
%TO.P,U1-40106,7,VSS*%
%TO.N,GND*%
X166040000Y-97500000D03*
%TO.P,U1-40106,8*%
%TO.N,Net-(D3-K)*%
X166040000Y-89880000D03*
%TO.P,U1-40106,9*%
%TO.N,Net-(C5-Pad1)*%
X163500000Y-89880000D03*
%TO.P,U1-40106,10*%
%TO.N,Net-(D2-K)*%
X160960000Y-89880000D03*
%TO.P,U1-40106,11*%
%TO.N,Net-(C6-Pad1)*%
X158420000Y-89880000D03*
%TO.P,U1-40106,12*%
%TO.N,Net-(D4-K)*%
X155880000Y-89880000D03*
%TO.P,U1-40106,13*%
%TO.N,Net-(C7-Pad1)*%
X153340000Y-89880000D03*
%TO.P,U1-40106,14,VDD*%
%TO.N,Net-(RV2-Pin_1)*%
X150800000Y-89880000D03*
%TD*%
D24*
%TO.P,D2,1,K*%
%TO.N,Net-(D2-K)*%
X161575000Y-87250000D03*
D12*
%TO.P,D2,2,A*%
%TO.N,Net-(D2-A)*%
X161575000Y-79630000D03*
%TD*%
D28*
%TO.N,Net-(D1-K)*%
X149100000Y-90950000D02*
X149100000Y-84215216D01*
X155372231Y-91941001D02*
X150091001Y-91941001D01*
X156582230Y-93151000D02*
X155372231Y-91941001D01*
X176000000Y-95650000D02*
X173501000Y-93151000D01*
X173501000Y-93151000D02*
X156582230Y-93151000D01*
X176000000Y-104598470D02*
X176000000Y-95650000D01*
X189051999Y-104510447D02*
X187339449Y-106222997D01*
X177624526Y-106222996D02*
X176000000Y-104598470D01*
X187339449Y-106222997D02*
X177624526Y-106222996D01*
X189052000Y-102198000D02*
X189051999Y-104510447D01*
X150091001Y-91941001D02*
X149100000Y-90950000D01*
X192893867Y-100971000D02*
X190279000Y-100971000D01*
X194750000Y-99114867D02*
X192893867Y-100971000D01*
X149100000Y-84215216D02*
X145550000Y-80665216D01*
X190279000Y-100971000D02*
X189052000Y-102198000D01*
%TO.N,Net-(D4-K)*%
X187851000Y-101099000D02*
X189670000Y-99280000D01*
X187851000Y-104012976D02*
X187851000Y-101099000D01*
X186841979Y-105021997D02*
X187851000Y-104012976D01*
X177201000Y-95122807D02*
X177201000Y-104101000D01*
X174028193Y-91950000D02*
X177201000Y-95122807D01*
X177201000Y-104101000D02*
X178121997Y-105021997D01*
X178121997Y-105021997D02*
X186841979Y-105021997D01*
X157200000Y-91950000D02*
X174028193Y-91950000D01*
X156515000Y-91265000D02*
X157200000Y-91950000D01*
X156280000Y-89890000D02*
X156515000Y-90125000D01*
X156515000Y-90125000D02*
X156515000Y-91265000D01*
%TO.N,Net-(D2-K)*%
X174900000Y-81850000D02*
X173000000Y-79950000D01*
X167950000Y-77250000D02*
X167950000Y-68500000D01*
X174900000Y-91123337D02*
X174900000Y-81850000D01*
X173000000Y-79950000D02*
X170650000Y-79950000D01*
X182050000Y-98273337D02*
X174900000Y-91123337D01*
X170650000Y-79950000D02*
X167950000Y-77250000D01*
%TO.N,Net-(J5-Pin_1)*%
X185473867Y-96869000D02*
X187130000Y-98525133D01*
X177500000Y-89650000D02*
X177500000Y-92024867D01*
X180250000Y-86900000D02*
X177500000Y-89650000D01*
X177500000Y-92024867D02*
X182344133Y-96869000D01*
X182344133Y-96869000D02*
X185473867Y-96869000D01*
%TO.N,Net-(D3-A)*%
X170070000Y-82050000D02*
X167550000Y-79530000D01*
X171800000Y-82050000D02*
X170070000Y-82050000D01*
X172350000Y-82600000D02*
X171800000Y-82050000D01*
%TO.N,+9V*%
X137560000Y-90860000D02*
X137560000Y-93160000D01*
%TO.N,GND*%
X187000000Y-76750000D02*
X187000000Y-75837039D01*
X187870000Y-79044867D02*
X186013867Y-80901000D01*
X149900000Y-67800000D02*
X150750000Y-68650000D01*
X154731370Y-71900000D02*
X153650000Y-71900000D01*
X164617000Y-94352000D02*
X166675000Y-96410000D01*
X187870000Y-86470000D02*
X185330000Y-86470000D01*
X146900000Y-88800000D02*
X145600000Y-88800000D01*
X144150000Y-69450000D02*
X145800000Y-67800000D01*
X148133867Y-91699000D02*
X149576868Y-93142001D01*
X166675000Y-96410000D02*
X166675000Y-97275000D01*
X190410000Y-78850000D02*
X192950000Y-78850000D01*
X190410000Y-86470000D02*
X187870000Y-86470000D01*
X157350000Y-74518630D02*
X154731370Y-71900000D01*
X186013867Y-80901000D02*
X179361000Y-80901000D01*
X148850000Y-67800000D02*
X149900000Y-67800000D01*
X150750000Y-68650000D02*
X150750000Y-70750000D01*
X145800000Y-67800000D02*
X148650000Y-67800000D01*
X179510000Y-90900000D02*
X182790000Y-87620000D01*
X147497470Y-91699000D02*
X148133867Y-91699000D01*
X196600000Y-92900000D02*
X198800000Y-95100000D01*
X192950000Y-78850000D02*
X195490000Y-78850000D01*
X192950000Y-84950000D02*
X192950000Y-86470000D01*
X195490000Y-78850000D02*
X198750000Y-78850000D01*
X195599000Y-88750000D02*
X196600000Y-89751000D01*
X198900000Y-79000000D02*
X192950000Y-84950000D01*
X179361000Y-80901000D02*
X177710000Y-79250000D01*
X198900000Y-75600000D02*
X198900000Y-79000000D01*
X149576868Y-93142001D02*
X154874761Y-93142001D01*
X185330000Y-86470000D02*
X182790000Y-86470000D01*
X150750000Y-70750000D02*
X151900000Y-71900000D01*
X198800000Y-95100000D02*
X199500000Y-95100000D01*
X187350000Y-77100000D02*
X187000000Y-76750000D01*
X166675000Y-97275000D02*
X166440000Y-97510000D01*
X156084760Y-94352000D02*
X164617000Y-94352000D01*
X146850000Y-86150000D02*
X146850000Y-87550000D01*
X187870000Y-78850000D02*
X187350000Y-78330000D01*
X146850000Y-87550000D02*
X147350000Y-88050000D01*
X157350000Y-75650000D02*
X157350000Y-74518630D01*
X144000000Y-74115216D02*
X145550000Y-75665216D01*
X187350000Y-78330000D02*
X187350000Y-77100000D01*
X190410000Y-86470000D02*
X192950000Y-86470000D01*
X196600000Y-89751000D02*
X196600000Y-92900000D01*
X154874761Y-93142001D02*
X156084760Y-94352000D01*
X145600000Y-89801530D02*
X147497470Y-91699000D01*
X194830000Y-88750000D02*
X195599000Y-88750000D01*
X137300000Y-75090000D02*
X144974784Y-75090000D01*
X182790000Y-87620000D02*
X182790000Y-86470000D01*
X187870000Y-78850000D02*
X190410000Y-78850000D01*
X145300000Y-88500000D02*
X145600000Y-88800000D01*
X144000000Y-69900000D02*
X144000000Y-74115216D01*
X192950000Y-86870000D02*
X194830000Y-88750000D01*
X145600000Y-88800000D02*
X145600000Y-89801530D01*
X147350000Y-88350000D02*
X146900000Y-88800000D01*
X151900000Y-71900000D02*
X153650000Y-71900000D01*
%TO.N,Net-(D1-K)*%
X195330000Y-99500000D02*
X198900000Y-99500000D01*
X145550000Y-80665216D02*
X139344784Y-80665216D01*
X139950000Y-85750000D02*
X142450000Y-88250000D01*
X142450000Y-88250000D02*
X139601000Y-91099000D01*
X139344784Y-80665216D02*
X137300000Y-82710000D01*
X139601000Y-95549000D02*
X138650000Y-96500000D01*
X137300000Y-82710000D02*
X137300000Y-85490000D01*
X194750000Y-98920000D02*
X195330000Y-99500000D01*
X198900000Y-99500000D02*
X199500000Y-100100000D01*
X137450000Y-85750000D02*
X139950000Y-85750000D01*
X139601000Y-91099000D02*
X139601000Y-95549000D01*
%TO.N,Net-(RV2-Pin_1)*%
X151200000Y-89890000D02*
X151435000Y-89655000D01*
X151435000Y-87365000D02*
X151850000Y-86950000D01*
X151850000Y-86950000D02*
X151850000Y-86150000D01*
X151435000Y-89655000D02*
X151435000Y-87365000D01*
%TO.N,Net-(RV3-Pin_2)*%
X198900000Y-87650000D02*
X198900000Y-84000000D01*
X197720000Y-86470000D02*
X198900000Y-87650000D01*
X195490000Y-86470000D02*
X197720000Y-86470000D01*
%TO.N,Net-(C5-Pad1)*%
X156258133Y-84398000D02*
X152274000Y-80413867D01*
X163850000Y-89840000D02*
X163850000Y-88370000D01*
X152274000Y-79046133D02*
X153670133Y-77650000D01*
X159850000Y-76300000D02*
X159850000Y-75650000D01*
X158500000Y-77650000D02*
X159850000Y-76300000D01*
X152274000Y-80413867D02*
X152274000Y-79046133D01*
X164850000Y-87123000D02*
X162125000Y-84398000D01*
X163850000Y-88370000D02*
X164900000Y-87320000D01*
X153670133Y-77650000D02*
X158500000Y-77650000D01*
X162125000Y-84398000D02*
X156258133Y-84398000D01*
%TO.N,Net-(C6-Pad1)*%
X159125000Y-86875000D02*
X157849000Y-85599000D01*
X157849000Y-85599000D02*
X155760662Y-85598999D01*
X158820000Y-89890000D02*
X159055000Y-89655000D01*
X150250000Y-75100000D02*
X150950000Y-74400000D01*
X150250000Y-80088337D02*
X150250000Y-75100000D01*
X159125000Y-87350000D02*
X159125000Y-86875000D01*
X159055000Y-89655000D02*
X159055000Y-87420000D01*
X150950000Y-74400000D02*
X153650000Y-74400000D01*
X155760662Y-85598999D02*
X150250000Y-80088337D01*
%TO.N,Net-(C7-Pad1)*%
X153975000Y-89655000D02*
X153975000Y-87400000D01*
X154025000Y-85561807D02*
X148200000Y-79736807D01*
X154025000Y-87350000D02*
X154025000Y-85561807D01*
X148200000Y-79736807D02*
X148200000Y-70650000D01*
X153740000Y-89890000D02*
X153975000Y-89655000D01*
%TO.N,Net-(J3-Pin_1)*%
X143851000Y-91699000D02*
X145799000Y-91699000D01*
X141850000Y-94990000D02*
X141850000Y-93450000D01*
X142200000Y-93350000D02*
X143851000Y-91699000D01*
X142740000Y-95880000D02*
X141850000Y-94990000D01*
X145799000Y-91699000D02*
X147350000Y-93250000D01*
D29*
%TO.N,Net-(J8-Pin_1)*%
X156515000Y-97275000D02*
X156280000Y-97510000D01*
D28*
X145590000Y-100960000D02*
X145590000Y-99860000D01*
D29*
X148841867Y-94293000D02*
X154398000Y-94293000D01*
X148083867Y-95051000D02*
X148841867Y-94293000D01*
X154398000Y-94293000D02*
X156515000Y-96410000D01*
X156515000Y-96410000D02*
X156515000Y-97275000D01*
X145250000Y-93800000D02*
X146501000Y-95051000D01*
X146501000Y-95051000D02*
X148083867Y-95051000D01*
D28*
X145590000Y-99860000D02*
X147150000Y-98300000D01*
%TO.N,Net-(J9-Pin_1)*%
X171950000Y-102450000D02*
X171050000Y-101550000D01*
X158540000Y-100850000D02*
X161595000Y-97795000D01*
X171050000Y-101550000D02*
X171050000Y-99150000D01*
X161595000Y-97795000D02*
X161595000Y-97745000D01*
X161595000Y-97745000D02*
X161360000Y-97510000D01*
X171050000Y-99150000D02*
X169350000Y-97450000D01*
X157180000Y-100850000D02*
X158540000Y-100850000D01*
X156630000Y-101400000D02*
X157180000Y-100850000D01*
%TO.N,Net-(C11-Pad1)*%
X179563197Y-68103842D02*
X182063197Y-68103842D01*
X187113197Y-68103842D02*
X187113197Y-71568309D01*
X187113197Y-71568309D02*
X189794888Y-74250000D01*
X189794888Y-74250000D02*
X190700000Y-74250000D01*
X184613197Y-68103842D02*
X187113197Y-68103842D01*
X177650000Y-75860000D02*
X177650000Y-73350000D01*
X177650000Y-73350000D02*
X179563197Y-71436803D01*
X179563197Y-71436803D02*
X179563197Y-68103842D01*
X182063197Y-68103842D02*
X184613197Y-68103842D01*
%TO.N,Net-(OUT1-Pin_1)*%
X193650000Y-73800000D02*
X193650000Y-69800000D01*
X193650000Y-69800000D02*
X192800000Y-68950000D01*
X193200000Y-74250000D02*
X193650000Y-73800000D01*
%TO.N,Net-(D2-K)*%
X161360000Y-89890000D02*
X161595000Y-89655000D01*
X161595000Y-89655000D02*
X161595000Y-87270000D01*
%TO.N,Net-(D2-A)*%
X161575000Y-79630000D02*
X164195000Y-82250000D01*
X167448470Y-82250000D02*
X170649000Y-85450530D01*
X170649000Y-85450530D02*
X170649000Y-88461500D01*
X164195000Y-82250000D02*
X167448470Y-82250000D01*
X170649000Y-88461500D02*
X172187500Y-90000000D01*
%TO.N,Net-(D3-K)*%
X166150000Y-89890000D02*
X166675000Y-89890000D01*
X167550000Y-89015000D02*
X167550000Y-87150000D01*
X166675000Y-89890000D02*
X167550000Y-89015000D01*
%TO.N,Net-(D4-A)*%
X168800000Y-85300000D02*
X164725470Y-85300000D01*
X169301000Y-85801000D02*
X168800000Y-85300000D01*
X164725470Y-85300000D02*
X162622470Y-83197000D01*
X157547000Y-83197000D02*
X156575000Y-82225000D01*
X169301000Y-85801000D02*
X169301000Y-89751000D01*
X162622470Y-83197000D02*
X157547000Y-83197000D01*
X156575000Y-82225000D02*
X156575000Y-79630000D01*
%TO.N,Net-(D4-K)*%
X156515000Y-89655000D02*
X156515000Y-87310000D01*
X156280000Y-89890000D02*
X156515000Y-89655000D01*
%TO.N,Net-(J4-Pin_1)*%
X179150000Y-102350000D02*
X179150000Y-99480000D01*
%TO.N,Net-(J5-Pin_1)*%
X186650000Y-99400000D02*
X187130000Y-98920000D01*
X186650000Y-102050000D02*
X186650000Y-99400000D01*
%TO.N,Net-(J6-Pin_1)*%
X184790000Y-100310000D02*
X184790000Y-99120000D01*
X182650000Y-102450000D02*
X184790000Y-100310000D01*
%TO.N,Net-(J7-Pin_1)*%
X143979000Y-101783867D02*
X147300000Y-105104867D01*
X145998000Y-96202000D02*
X143979000Y-98221000D01*
X147300000Y-105104867D02*
X147300000Y-106350000D01*
X153975000Y-95525000D02*
X153894000Y-95444000D01*
X148560627Y-96202000D02*
X145998000Y-96202000D01*
X149318627Y-95444000D02*
X148560627Y-96202000D01*
X153975000Y-97275000D02*
X153975000Y-95525000D01*
X153740000Y-97510000D02*
X153975000Y-97275000D01*
X143979000Y-98221000D02*
X143979000Y-101783867D01*
X153894000Y-95444000D02*
X149318627Y-95444000D01*
%TO.N,Net-(J10-Pin_1)*%
X163600000Y-98315133D02*
X165901000Y-100616133D01*
X173300000Y-106600000D02*
X174700000Y-106600000D01*
X165901000Y-103101000D02*
X167199000Y-104399000D01*
X158600000Y-103239867D02*
X163900000Y-97939867D01*
X165901000Y-100616133D02*
X165901000Y-103101000D01*
X158600000Y-105550000D02*
X158600000Y-103239867D01*
X171099000Y-104399000D02*
X173300000Y-106600000D01*
X167199000Y-104399000D02*
X171099000Y-104399000D01*
%TO.N,Net-(J11-Pin_1)*%
X157198867Y-99561000D02*
X158820000Y-97939867D01*
X154901000Y-100249000D02*
X155589000Y-99561000D01*
X154901000Y-102283867D02*
X154901000Y-100249000D01*
X154889000Y-106261385D02*
X154889000Y-102295867D01*
X155589000Y-99561000D02*
X157198867Y-99561000D01*
X154889000Y-102295867D02*
X154901000Y-102283867D01*
%TO.N,Net-(J12-Pin_1)*%
X187130000Y-92473805D02*
X188050000Y-93393805D01*
X191600000Y-93393805D02*
X192210000Y-92783805D01*
X192210000Y-92783805D02*
X192210000Y-91300000D01*
X188050000Y-93393805D02*
X191600000Y-93393805D01*
X187130000Y-91300000D02*
X187130000Y-92473805D01*
%TO.N,Net-(RV5-Pin_1)*%
X164452500Y-74302500D02*
X164452500Y-69000000D01*
X159125000Y-79630000D02*
X164452500Y-74302500D01*
%TO.N,Net-(RV7-Pin_1)*%
X143652500Y-104412500D02*
X143150000Y-103910000D01*
X143652500Y-106350000D02*
X143652500Y-104412500D01*
%TO.N,Net-(RV8-Pin_1)*%
X151552500Y-105497500D02*
X153210000Y-103840000D01*
X153210000Y-103840000D02*
X153210000Y-101540000D01*
%TO.N,Net-(RV9-Pin_1)*%
X164500000Y-102510000D02*
X164500000Y-101650000D01*
X163047500Y-103962500D02*
X164500000Y-102510000D01*
X163047500Y-106350000D02*
X163047500Y-103962500D01*
%TO.N,Net-(U3-Q0)*%
X171190000Y-76200000D02*
X177710000Y-82720000D01*
X177710000Y-82720000D02*
X177710000Y-86470000D01*
X169690000Y-76200000D02*
X171190000Y-76200000D01*
%TO.N,Net-(U3-Q1)*%
X179750000Y-78350000D02*
X179750000Y-75910645D01*
X180250000Y-78850000D02*
X179750000Y-78350000D01*
%TO.N,Net-(U3-Q2)*%
X182790000Y-78850000D02*
X182300000Y-78360000D01*
X182300000Y-78360000D02*
X182300000Y-75960645D01*
%TO.N,Net-(U3-Q3)*%
X185330000Y-78850000D02*
X184750000Y-78270000D01*
X184750000Y-78270000D02*
X184750000Y-75860645D01*
%TD*%
M02*
