%TF.GenerationSoftware,KiCad,Pcbnew,9.0.0*%
%TF.CreationDate,2026-03-06T00:50:36+01:00*%
%TF.ProjectId,syntak3,73796e74-616b-4332-9e6b-696361645f70,rev?*%
%TF.SameCoordinates,Original*%
%TF.FileFunction,Legend,Top*%
%TF.FilePolarity,Positive*%
%FSLAX46Y46*%
G04 Gerber Fmt 4.6, Leading zero omitted, Abs format (unit mm)*
G04 Created by KiCad (PCBNEW 9.0.0) date 2026-03-06 00:50:36*
%MOMM*%
%LPD*%
G01*
G04 APERTURE LIST*
G04 Aperture macros list*
%AMRoundRect*
0 Rectangle with rounded corners*
0 $1 Rounding radius*
0 $2 $3 $4 $5 $6 $7 $8 $9 X,Y pos of 4 corners*
0 Add a 4 corners polygon primitive as box body*
4,1,4,$2,$3,$4,$5,$6,$7,$8,$9,$2,$3,0*
0 Add four circle primitives for the rounded corners*
1,1,$1+$1,$2,$3*
1,1,$1+$1,$4,$5*
1,1,$1+$1,$6,$7*
1,1,$1+$1,$8,$9*
0 Add four rect primitives between the rounded corners*
20,1,$1+$1,$2,$3,$4,$5,0*
20,1,$1+$1,$4,$5,$6,$7,0*
20,1,$1+$1,$6,$7,$8,$9,0*
20,1,$1+$1,$8,$9,$2,$3,0*%
G04 Aperture macros list end*
%ADD10C,0.150000*%
%ADD11C,0.120000*%
%ADD12RoundRect,0.250000X-0.550000X0.950000X-0.550000X-0.950000X0.550000X-0.950000X0.550000X0.950000X0*%
%ADD13O,1.600000X2.400000*%
%ADD14O,1.800000X1.600000*%
%ADD15RoundRect,0.250001X-0.799999X0.799999X-0.799999X-0.799999X0.799999X-0.799999X0.799999X0.799999X0*%
%ADD16O,1.600000X1.800000*%
%ADD17R,2.000000X1.700000*%
%ADD18O,2.000000X1.700000*%
%ADD19R,1.800000X1.800000*%
%ADD20C,1.800000*%
%ADD21C,3.200000*%
%ADD22RoundRect,0.250001X-0.799999X-0.799999X0.799999X-0.799999X0.799999X0.799999X-0.799999X0.799999X0*%
%ADD23R,2.800000X2.600000*%
%ADD24R,2.600000X2.800000*%
%ADD25R,2.400000X2.400000*%
%ADD26C,2.400000*%
%ADD27R,1.800000X1.600000*%
%ADD28R,2.000000X2.000000*%
%ADD29C,2.000000*%
%ADD30RoundRect,0.250000X0.550000X-0.950000X0.550000X0.950000X-0.550000X0.950000X-0.550000X-0.950000X0*%
G04 APERTURE END LIST*
D10*
X183314286Y-82114819D02*
X183314286Y-82924342D01*
X183314286Y-82924342D02*
X183361905Y-83019580D01*
X183361905Y-83019580D02*
X183409524Y-83067200D01*
X183409524Y-83067200D02*
X183504762Y-83114819D01*
X183504762Y-83114819D02*
X183695238Y-83114819D01*
X183695238Y-83114819D02*
X183790476Y-83067200D01*
X183790476Y-83067200D02*
X183838095Y-83019580D01*
X183838095Y-83019580D02*
X183885714Y-82924342D01*
X183885714Y-82924342D02*
X183885714Y-82114819D01*
X184266667Y-82114819D02*
X184885714Y-82114819D01*
X184885714Y-82114819D02*
X184552381Y-82495771D01*
X184552381Y-82495771D02*
X184695238Y-82495771D01*
X184695238Y-82495771D02*
X184790476Y-82543390D01*
X184790476Y-82543390D02*
X184838095Y-82591009D01*
X184838095Y-82591009D02*
X184885714Y-82686247D01*
X184885714Y-82686247D02*
X184885714Y-82924342D01*
X184885714Y-82924342D02*
X184838095Y-83019580D01*
X184838095Y-83019580D02*
X184790476Y-83067200D01*
X184790476Y-83067200D02*
X184695238Y-83114819D01*
X184695238Y-83114819D02*
X184409524Y-83114819D01*
X184409524Y-83114819D02*
X184314286Y-83067200D01*
X184314286Y-83067200D02*
X184266667Y-83019580D01*
X185314286Y-82733866D02*
X186076191Y-82733866D01*
X186980952Y-82448152D02*
X186980952Y-83114819D01*
X186742857Y-82067200D02*
X186504762Y-82781485D01*
X186504762Y-82781485D02*
X187123809Y-82781485D01*
X187695238Y-82114819D02*
X187790476Y-82114819D01*
X187790476Y-82114819D02*
X187885714Y-82162438D01*
X187885714Y-82162438D02*
X187933333Y-82210057D01*
X187933333Y-82210057D02*
X187980952Y-82305295D01*
X187980952Y-82305295D02*
X188028571Y-82495771D01*
X188028571Y-82495771D02*
X188028571Y-82733866D01*
X188028571Y-82733866D02*
X187980952Y-82924342D01*
X187980952Y-82924342D02*
X187933333Y-83019580D01*
X187933333Y-83019580D02*
X187885714Y-83067200D01*
X187885714Y-83067200D02*
X187790476Y-83114819D01*
X187790476Y-83114819D02*
X187695238Y-83114819D01*
X187695238Y-83114819D02*
X187600000Y-83067200D01*
X187600000Y-83067200D02*
X187552381Y-83019580D01*
X187552381Y-83019580D02*
X187504762Y-82924342D01*
X187504762Y-82924342D02*
X187457143Y-82733866D01*
X187457143Y-82733866D02*
X187457143Y-82495771D01*
X187457143Y-82495771D02*
X187504762Y-82305295D01*
X187504762Y-82305295D02*
X187552381Y-82210057D01*
X187552381Y-82210057D02*
X187600000Y-82162438D01*
X187600000Y-82162438D02*
X187695238Y-82114819D01*
X188885714Y-82448152D02*
X188885714Y-83114819D01*
X188647619Y-82067200D02*
X188409524Y-82781485D01*
X188409524Y-82781485D02*
X189028571Y-82781485D01*
X189600000Y-82114819D02*
X189695238Y-82114819D01*
X189695238Y-82114819D02*
X189790476Y-82162438D01*
X189790476Y-82162438D02*
X189838095Y-82210057D01*
X189838095Y-82210057D02*
X189885714Y-82305295D01*
X189885714Y-82305295D02*
X189933333Y-82495771D01*
X189933333Y-82495771D02*
X189933333Y-82733866D01*
X189933333Y-82733866D02*
X189885714Y-82924342D01*
X189885714Y-82924342D02*
X189838095Y-83019580D01*
X189838095Y-83019580D02*
X189790476Y-83067200D01*
X189790476Y-83067200D02*
X189695238Y-83114819D01*
X189695238Y-83114819D02*
X189600000Y-83114819D01*
X189600000Y-83114819D02*
X189504762Y-83067200D01*
X189504762Y-83067200D02*
X189457143Y-83019580D01*
X189457143Y-83019580D02*
X189409524Y-82924342D01*
X189409524Y-82924342D02*
X189361905Y-82733866D01*
X189361905Y-82733866D02*
X189361905Y-82495771D01*
X189361905Y-82495771D02*
X189409524Y-82305295D01*
X189409524Y-82305295D02*
X189457143Y-82210057D01*
X189457143Y-82210057D02*
X189504762Y-82162438D01*
X189504762Y-82162438D02*
X189600000Y-82114819D01*
X143628557Y-99649999D02*
X143199985Y-99949999D01*
X143628557Y-100164285D02*
X142728557Y-100164285D01*
X142728557Y-100164285D02*
X142728557Y-99821428D01*
X142728557Y-99821428D02*
X142771414Y-99735713D01*
X142771414Y-99735713D02*
X142814271Y-99692856D01*
X142814271Y-99692856D02*
X142899985Y-99649999D01*
X142899985Y-99649999D02*
X143028557Y-99649999D01*
X143028557Y-99649999D02*
X143114271Y-99692856D01*
X143114271Y-99692856D02*
X143157128Y-99735713D01*
X143157128Y-99735713D02*
X143199985Y-99821428D01*
X143199985Y-99821428D02*
X143199985Y-100164285D01*
X143028557Y-98878571D02*
X143628557Y-98878571D01*
X142685700Y-99092856D02*
X143328557Y-99307142D01*
X143328557Y-99307142D02*
X143328557Y-98749999D01*
X167366666Y-100204819D02*
X167366666Y-100919104D01*
X167366666Y-100919104D02*
X167319047Y-101061961D01*
X167319047Y-101061961D02*
X167223809Y-101157200D01*
X167223809Y-101157200D02*
X167080952Y-101204819D01*
X167080952Y-101204819D02*
X166985714Y-101204819D01*
X167747619Y-100204819D02*
X168414285Y-100204819D01*
X168414285Y-100204819D02*
X167985714Y-101204819D01*
X160000000Y-101738557D02*
X159700000Y-101309985D01*
X159485714Y-101738557D02*
X159485714Y-100838557D01*
X159485714Y-100838557D02*
X159828571Y-100838557D01*
X159828571Y-100838557D02*
X159914286Y-100881414D01*
X159914286Y-100881414D02*
X159957143Y-100924271D01*
X159957143Y-100924271D02*
X160000000Y-101009985D01*
X160000000Y-101009985D02*
X160000000Y-101138557D01*
X160000000Y-101138557D02*
X159957143Y-101224271D01*
X159957143Y-101224271D02*
X159914286Y-101267128D01*
X159914286Y-101267128D02*
X159828571Y-101309985D01*
X159828571Y-101309985D02*
X159485714Y-101309985D01*
X160771429Y-100838557D02*
X160600000Y-100838557D01*
X160600000Y-100838557D02*
X160514286Y-100881414D01*
X160514286Y-100881414D02*
X160471429Y-100924271D01*
X160471429Y-100924271D02*
X160385714Y-101052842D01*
X160385714Y-101052842D02*
X160342857Y-101224271D01*
X160342857Y-101224271D02*
X160342857Y-101567128D01*
X160342857Y-101567128D02*
X160385714Y-101652842D01*
X160385714Y-101652842D02*
X160428571Y-101695700D01*
X160428571Y-101695700D02*
X160514286Y-101738557D01*
X160514286Y-101738557D02*
X160685714Y-101738557D01*
X160685714Y-101738557D02*
X160771429Y-101695700D01*
X160771429Y-101695700D02*
X160814286Y-101652842D01*
X160814286Y-101652842D02*
X160857143Y-101567128D01*
X160857143Y-101567128D02*
X160857143Y-101352842D01*
X160857143Y-101352842D02*
X160814286Y-101267128D01*
X160814286Y-101267128D02*
X160771429Y-101224271D01*
X160771429Y-101224271D02*
X160685714Y-101181414D01*
X160685714Y-101181414D02*
X160514286Y-101181414D01*
X160514286Y-101181414D02*
X160428571Y-101224271D01*
X160428571Y-101224271D02*
X160385714Y-101267128D01*
X160385714Y-101267128D02*
X160342857Y-101352842D01*
X169957200Y-93733333D02*
X170004819Y-93611904D01*
X170004819Y-93611904D02*
X170004819Y-93409523D01*
X170004819Y-93409523D02*
X169957200Y-93328571D01*
X169957200Y-93328571D02*
X169909580Y-93288095D01*
X169909580Y-93288095D02*
X169814342Y-93247618D01*
X169814342Y-93247618D02*
X169719104Y-93247618D01*
X169719104Y-93247618D02*
X169623866Y-93288095D01*
X169623866Y-93288095D02*
X169576247Y-93328571D01*
X169576247Y-93328571D02*
X169528628Y-93409523D01*
X169528628Y-93409523D02*
X169481009Y-93571428D01*
X169481009Y-93571428D02*
X169433390Y-93652380D01*
X169433390Y-93652380D02*
X169385771Y-93692857D01*
X169385771Y-93692857D02*
X169290533Y-93733333D01*
X169290533Y-93733333D02*
X169195295Y-93733333D01*
X169195295Y-93733333D02*
X169100057Y-93692857D01*
X169100057Y-93692857D02*
X169052438Y-93652380D01*
X169052438Y-93652380D02*
X169004819Y-93571428D01*
X169004819Y-93571428D02*
X169004819Y-93369047D01*
X169004819Y-93369047D02*
X169052438Y-93247618D01*
X169004819Y-92964285D02*
X170004819Y-92761904D01*
X170004819Y-92761904D02*
X169290533Y-92599999D01*
X169290533Y-92599999D02*
X170004819Y-92438094D01*
X170004819Y-92438094D02*
X169004819Y-92235714D01*
X169004819Y-91992856D02*
X169004819Y-91466665D01*
X169004819Y-91466665D02*
X169385771Y-91749999D01*
X169385771Y-91749999D02*
X169385771Y-91628570D01*
X169385771Y-91628570D02*
X169433390Y-91547618D01*
X169433390Y-91547618D02*
X169481009Y-91507142D01*
X169481009Y-91507142D02*
X169576247Y-91466665D01*
X169576247Y-91466665D02*
X169814342Y-91466665D01*
X169814342Y-91466665D02*
X169909580Y-91507142D01*
X169909580Y-91507142D02*
X169957200Y-91547618D01*
X169957200Y-91547618D02*
X170004819Y-91628570D01*
X170004819Y-91628570D02*
X170004819Y-91871427D01*
X170004819Y-91871427D02*
X169957200Y-91952380D01*
X169957200Y-91952380D02*
X169909580Y-91992856D01*
X162233333Y-78059580D02*
X162185714Y-78107200D01*
X162185714Y-78107200D02*
X162042857Y-78154819D01*
X162042857Y-78154819D02*
X161947619Y-78154819D01*
X161947619Y-78154819D02*
X161804762Y-78107200D01*
X161804762Y-78107200D02*
X161709524Y-78011961D01*
X161709524Y-78011961D02*
X161661905Y-77916723D01*
X161661905Y-77916723D02*
X161614286Y-77726247D01*
X161614286Y-77726247D02*
X161614286Y-77583390D01*
X161614286Y-77583390D02*
X161661905Y-77392914D01*
X161661905Y-77392914D02*
X161709524Y-77297676D01*
X161709524Y-77297676D02*
X161804762Y-77202438D01*
X161804762Y-77202438D02*
X161947619Y-77154819D01*
X161947619Y-77154819D02*
X162042857Y-77154819D01*
X162042857Y-77154819D02*
X162185714Y-77202438D01*
X162185714Y-77202438D02*
X162233333Y-77250057D01*
X163138095Y-77154819D02*
X162661905Y-77154819D01*
X162661905Y-77154819D02*
X162614286Y-77631009D01*
X162614286Y-77631009D02*
X162661905Y-77583390D01*
X162661905Y-77583390D02*
X162757143Y-77535771D01*
X162757143Y-77535771D02*
X162995238Y-77535771D01*
X162995238Y-77535771D02*
X163090476Y-77583390D01*
X163090476Y-77583390D02*
X163138095Y-77631009D01*
X163138095Y-77631009D02*
X163185714Y-77726247D01*
X163185714Y-77726247D02*
X163185714Y-77964342D01*
X163185714Y-77964342D02*
X163138095Y-78059580D01*
X163138095Y-78059580D02*
X163090476Y-78107200D01*
X163090476Y-78107200D02*
X162995238Y-78154819D01*
X162995238Y-78154819D02*
X162757143Y-78154819D01*
X162757143Y-78154819D02*
X162661905Y-78107200D01*
X162661905Y-78107200D02*
X162614286Y-78059580D01*
X165558557Y-83659999D02*
X165129985Y-83959999D01*
X165558557Y-84174285D02*
X164658557Y-84174285D01*
X164658557Y-84174285D02*
X164658557Y-83831428D01*
X164658557Y-83831428D02*
X164701414Y-83745713D01*
X164701414Y-83745713D02*
X164744271Y-83702856D01*
X164744271Y-83702856D02*
X164829985Y-83659999D01*
X164829985Y-83659999D02*
X164958557Y-83659999D01*
X164958557Y-83659999D02*
X165044271Y-83702856D01*
X165044271Y-83702856D02*
X165087128Y-83745713D01*
X165087128Y-83745713D02*
X165129985Y-83831428D01*
X165129985Y-83831428D02*
X165129985Y-84174285D01*
X165558557Y-82802856D02*
X165558557Y-83317142D01*
X165558557Y-83059999D02*
X164658557Y-83059999D01*
X164658557Y-83059999D02*
X164787128Y-83145713D01*
X164787128Y-83145713D02*
X164872842Y-83231428D01*
X164872842Y-83231428D02*
X164915700Y-83317142D01*
X162466666Y-73854819D02*
X162466666Y-74569104D01*
X162466666Y-74569104D02*
X162419047Y-74711961D01*
X162419047Y-74711961D02*
X162323809Y-74807200D01*
X162323809Y-74807200D02*
X162180952Y-74854819D01*
X162180952Y-74854819D02*
X162085714Y-74854819D01*
X163466666Y-74854819D02*
X162895238Y-74854819D01*
X163180952Y-74854819D02*
X163180952Y-73854819D01*
X163180952Y-73854819D02*
X163085714Y-73997676D01*
X163085714Y-73997676D02*
X162990476Y-74092914D01*
X162990476Y-74092914D02*
X162895238Y-74140533D01*
X180041754Y-71773841D02*
X179613182Y-72073841D01*
X180041754Y-72288127D02*
X179141754Y-72288127D01*
X179141754Y-72288127D02*
X179141754Y-71945270D01*
X179141754Y-71945270D02*
X179184611Y-71859555D01*
X179184611Y-71859555D02*
X179227468Y-71816698D01*
X179227468Y-71816698D02*
X179313182Y-71773841D01*
X179313182Y-71773841D02*
X179441754Y-71773841D01*
X179441754Y-71773841D02*
X179527468Y-71816698D01*
X179527468Y-71816698D02*
X179570325Y-71859555D01*
X179570325Y-71859555D02*
X179613182Y-71945270D01*
X179613182Y-71945270D02*
X179613182Y-72288127D01*
X179527468Y-71259555D02*
X179484611Y-71345270D01*
X179484611Y-71345270D02*
X179441754Y-71388127D01*
X179441754Y-71388127D02*
X179356039Y-71430984D01*
X179356039Y-71430984D02*
X179313182Y-71430984D01*
X179313182Y-71430984D02*
X179227468Y-71388127D01*
X179227468Y-71388127D02*
X179184611Y-71345270D01*
X179184611Y-71345270D02*
X179141754Y-71259555D01*
X179141754Y-71259555D02*
X179141754Y-71088127D01*
X179141754Y-71088127D02*
X179184611Y-71002413D01*
X179184611Y-71002413D02*
X179227468Y-70959555D01*
X179227468Y-70959555D02*
X179313182Y-70916698D01*
X179313182Y-70916698D02*
X179356039Y-70916698D01*
X179356039Y-70916698D02*
X179441754Y-70959555D01*
X179441754Y-70959555D02*
X179484611Y-71002413D01*
X179484611Y-71002413D02*
X179527468Y-71088127D01*
X179527468Y-71088127D02*
X179527468Y-71259555D01*
X179527468Y-71259555D02*
X179570325Y-71345270D01*
X179570325Y-71345270D02*
X179613182Y-71388127D01*
X179613182Y-71388127D02*
X179698897Y-71430984D01*
X179698897Y-71430984D02*
X179870325Y-71430984D01*
X179870325Y-71430984D02*
X179956039Y-71388127D01*
X179956039Y-71388127D02*
X179998897Y-71345270D01*
X179998897Y-71345270D02*
X180041754Y-71259555D01*
X180041754Y-71259555D02*
X180041754Y-71088127D01*
X180041754Y-71088127D02*
X179998897Y-71002413D01*
X179998897Y-71002413D02*
X179956039Y-70959555D01*
X179956039Y-70959555D02*
X179870325Y-70916698D01*
X179870325Y-70916698D02*
X179698897Y-70916698D01*
X179698897Y-70916698D02*
X179613182Y-70959555D01*
X179613182Y-70959555D02*
X179570325Y-71002413D01*
X179570325Y-71002413D02*
X179527468Y-71088127D01*
X140204819Y-93919047D02*
X140204819Y-93728571D01*
X140204819Y-93728571D02*
X140157200Y-93633333D01*
X140157200Y-93633333D02*
X140109580Y-93585714D01*
X140109580Y-93585714D02*
X139966723Y-93490476D01*
X139966723Y-93490476D02*
X139776247Y-93442857D01*
X139776247Y-93442857D02*
X139395295Y-93442857D01*
X139395295Y-93442857D02*
X139300057Y-93490476D01*
X139300057Y-93490476D02*
X139252438Y-93538095D01*
X139252438Y-93538095D02*
X139204819Y-93633333D01*
X139204819Y-93633333D02*
X139204819Y-93823809D01*
X139204819Y-93823809D02*
X139252438Y-93919047D01*
X139252438Y-93919047D02*
X139300057Y-93966666D01*
X139300057Y-93966666D02*
X139395295Y-94014285D01*
X139395295Y-94014285D02*
X139633390Y-94014285D01*
X139633390Y-94014285D02*
X139728628Y-93966666D01*
X139728628Y-93966666D02*
X139776247Y-93919047D01*
X139776247Y-93919047D02*
X139823866Y-93823809D01*
X139823866Y-93823809D02*
X139823866Y-93633333D01*
X139823866Y-93633333D02*
X139776247Y-93538095D01*
X139776247Y-93538095D02*
X139728628Y-93490476D01*
X139728628Y-93490476D02*
X139633390Y-93442857D01*
X139204819Y-93157142D02*
X140204819Y-92823809D01*
X140204819Y-92823809D02*
X139204819Y-92490476D01*
X182541754Y-71773841D02*
X182113182Y-72073841D01*
X182541754Y-72288127D02*
X181641754Y-72288127D01*
X181641754Y-72288127D02*
X181641754Y-71945270D01*
X181641754Y-71945270D02*
X181684611Y-71859555D01*
X181684611Y-71859555D02*
X181727468Y-71816698D01*
X181727468Y-71816698D02*
X181813182Y-71773841D01*
X181813182Y-71773841D02*
X181941754Y-71773841D01*
X181941754Y-71773841D02*
X182027468Y-71816698D01*
X182027468Y-71816698D02*
X182070325Y-71859555D01*
X182070325Y-71859555D02*
X182113182Y-71945270D01*
X182113182Y-71945270D02*
X182113182Y-72288127D01*
X182541754Y-71345270D02*
X182541754Y-71173841D01*
X182541754Y-71173841D02*
X182498897Y-71088127D01*
X182498897Y-71088127D02*
X182456039Y-71045270D01*
X182456039Y-71045270D02*
X182327468Y-70959555D01*
X182327468Y-70959555D02*
X182156039Y-70916698D01*
X182156039Y-70916698D02*
X181813182Y-70916698D01*
X181813182Y-70916698D02*
X181727468Y-70959555D01*
X181727468Y-70959555D02*
X181684611Y-71002413D01*
X181684611Y-71002413D02*
X181641754Y-71088127D01*
X181641754Y-71088127D02*
X181641754Y-71259555D01*
X181641754Y-71259555D02*
X181684611Y-71345270D01*
X181684611Y-71345270D02*
X181727468Y-71388127D01*
X181727468Y-71388127D02*
X181813182Y-71430984D01*
X181813182Y-71430984D02*
X182027468Y-71430984D01*
X182027468Y-71430984D02*
X182113182Y-71388127D01*
X182113182Y-71388127D02*
X182156039Y-71345270D01*
X182156039Y-71345270D02*
X182198897Y-71259555D01*
X182198897Y-71259555D02*
X182198897Y-71088127D01*
X182198897Y-71088127D02*
X182156039Y-71002413D01*
X182156039Y-71002413D02*
X182113182Y-70959555D01*
X182113182Y-70959555D02*
X182027468Y-70916698D01*
X168940476Y-105954819D02*
X168940476Y-106669104D01*
X168940476Y-106669104D02*
X168892857Y-106811961D01*
X168892857Y-106811961D02*
X168797619Y-106907200D01*
X168797619Y-106907200D02*
X168654762Y-106954819D01*
X168654762Y-106954819D02*
X168559524Y-106954819D01*
X169940476Y-106954819D02*
X169369048Y-106954819D01*
X169654762Y-106954819D02*
X169654762Y-105954819D01*
X169654762Y-105954819D02*
X169559524Y-106097676D01*
X169559524Y-106097676D02*
X169464286Y-106192914D01*
X169464286Y-106192914D02*
X169369048Y-106240533D01*
X170892857Y-106954819D02*
X170321429Y-106954819D01*
X170607143Y-106954819D02*
X170607143Y-105954819D01*
X170607143Y-105954819D02*
X170511905Y-106097676D01*
X170511905Y-106097676D02*
X170416667Y-106192914D01*
X170416667Y-106192914D02*
X170321429Y-106240533D01*
X171207142Y-97809580D02*
X171159523Y-97857200D01*
X171159523Y-97857200D02*
X171016666Y-97904819D01*
X171016666Y-97904819D02*
X170921428Y-97904819D01*
X170921428Y-97904819D02*
X170778571Y-97857200D01*
X170778571Y-97857200D02*
X170683333Y-97761961D01*
X170683333Y-97761961D02*
X170635714Y-97666723D01*
X170635714Y-97666723D02*
X170588095Y-97476247D01*
X170588095Y-97476247D02*
X170588095Y-97333390D01*
X170588095Y-97333390D02*
X170635714Y-97142914D01*
X170635714Y-97142914D02*
X170683333Y-97047676D01*
X170683333Y-97047676D02*
X170778571Y-96952438D01*
X170778571Y-96952438D02*
X170921428Y-96904819D01*
X170921428Y-96904819D02*
X171016666Y-96904819D01*
X171016666Y-96904819D02*
X171159523Y-96952438D01*
X171159523Y-96952438D02*
X171207142Y-97000057D01*
X172159523Y-97904819D02*
X171588095Y-97904819D01*
X171873809Y-97904819D02*
X171873809Y-96904819D01*
X171873809Y-96904819D02*
X171778571Y-97047676D01*
X171778571Y-97047676D02*
X171683333Y-97142914D01*
X171683333Y-97142914D02*
X171588095Y-97190533D01*
X172778571Y-96904819D02*
X172873809Y-96904819D01*
X172873809Y-96904819D02*
X172969047Y-96952438D01*
X172969047Y-96952438D02*
X173016666Y-97000057D01*
X173016666Y-97000057D02*
X173064285Y-97095295D01*
X173064285Y-97095295D02*
X173111904Y-97285771D01*
X173111904Y-97285771D02*
X173111904Y-97523866D01*
X173111904Y-97523866D02*
X173064285Y-97714342D01*
X173064285Y-97714342D02*
X173016666Y-97809580D01*
X173016666Y-97809580D02*
X172969047Y-97857200D01*
X172969047Y-97857200D02*
X172873809Y-97904819D01*
X172873809Y-97904819D02*
X172778571Y-97904819D01*
X172778571Y-97904819D02*
X172683333Y-97857200D01*
X172683333Y-97857200D02*
X172635714Y-97809580D01*
X172635714Y-97809580D02*
X172588095Y-97714342D01*
X172588095Y-97714342D02*
X172540476Y-97523866D01*
X172540476Y-97523866D02*
X172540476Y-97285771D01*
X172540476Y-97285771D02*
X172588095Y-97095295D01*
X172588095Y-97095295D02*
X172635714Y-97000057D01*
X172635714Y-97000057D02*
X172683333Y-96952438D01*
X172683333Y-96952438D02*
X172778571Y-96904819D01*
X147779580Y-90966666D02*
X147827200Y-91014285D01*
X147827200Y-91014285D02*
X147874819Y-91157142D01*
X147874819Y-91157142D02*
X147874819Y-91252380D01*
X147874819Y-91252380D02*
X147827200Y-91395237D01*
X147827200Y-91395237D02*
X147731961Y-91490475D01*
X147731961Y-91490475D02*
X147636723Y-91538094D01*
X147636723Y-91538094D02*
X147446247Y-91585713D01*
X147446247Y-91585713D02*
X147303390Y-91585713D01*
X147303390Y-91585713D02*
X147112914Y-91538094D01*
X147112914Y-91538094D02*
X147017676Y-91490475D01*
X147017676Y-91490475D02*
X146922438Y-91395237D01*
X146922438Y-91395237D02*
X146874819Y-91252380D01*
X146874819Y-91252380D02*
X146874819Y-91157142D01*
X146874819Y-91157142D02*
X146922438Y-91014285D01*
X146922438Y-91014285D02*
X146970057Y-90966666D01*
X147303390Y-90395237D02*
X147255771Y-90490475D01*
X147255771Y-90490475D02*
X147208152Y-90538094D01*
X147208152Y-90538094D02*
X147112914Y-90585713D01*
X147112914Y-90585713D02*
X147065295Y-90585713D01*
X147065295Y-90585713D02*
X146970057Y-90538094D01*
X146970057Y-90538094D02*
X146922438Y-90490475D01*
X146922438Y-90490475D02*
X146874819Y-90395237D01*
X146874819Y-90395237D02*
X146874819Y-90204761D01*
X146874819Y-90204761D02*
X146922438Y-90109523D01*
X146922438Y-90109523D02*
X146970057Y-90061904D01*
X146970057Y-90061904D02*
X147065295Y-90014285D01*
X147065295Y-90014285D02*
X147112914Y-90014285D01*
X147112914Y-90014285D02*
X147208152Y-90061904D01*
X147208152Y-90061904D02*
X147255771Y-90109523D01*
X147255771Y-90109523D02*
X147303390Y-90204761D01*
X147303390Y-90204761D02*
X147303390Y-90395237D01*
X147303390Y-90395237D02*
X147351009Y-90490475D01*
X147351009Y-90490475D02*
X147398628Y-90538094D01*
X147398628Y-90538094D02*
X147493866Y-90585713D01*
X147493866Y-90585713D02*
X147684342Y-90585713D01*
X147684342Y-90585713D02*
X147779580Y-90538094D01*
X147779580Y-90538094D02*
X147827200Y-90490475D01*
X147827200Y-90490475D02*
X147874819Y-90395237D01*
X147874819Y-90395237D02*
X147874819Y-90204761D01*
X147874819Y-90204761D02*
X147827200Y-90109523D01*
X147827200Y-90109523D02*
X147779580Y-90061904D01*
X147779580Y-90061904D02*
X147684342Y-90014285D01*
X147684342Y-90014285D02*
X147493866Y-90014285D01*
X147493866Y-90014285D02*
X147398628Y-90061904D01*
X147398628Y-90061904D02*
X147351009Y-90109523D01*
X147351009Y-90109523D02*
X147303390Y-90204761D01*
X181420714Y-94564819D02*
X181420714Y-95374342D01*
X181420714Y-95374342D02*
X181468333Y-95469580D01*
X181468333Y-95469580D02*
X181515952Y-95517200D01*
X181515952Y-95517200D02*
X181611190Y-95564819D01*
X181611190Y-95564819D02*
X181801666Y-95564819D01*
X181801666Y-95564819D02*
X181896904Y-95517200D01*
X181896904Y-95517200D02*
X181944523Y-95469580D01*
X181944523Y-95469580D02*
X181992142Y-95374342D01*
X181992142Y-95374342D02*
X181992142Y-94564819D01*
X182420714Y-94660057D02*
X182468333Y-94612438D01*
X182468333Y-94612438D02*
X182563571Y-94564819D01*
X182563571Y-94564819D02*
X182801666Y-94564819D01*
X182801666Y-94564819D02*
X182896904Y-94612438D01*
X182896904Y-94612438D02*
X182944523Y-94660057D01*
X182944523Y-94660057D02*
X182992142Y-94755295D01*
X182992142Y-94755295D02*
X182992142Y-94850533D01*
X182992142Y-94850533D02*
X182944523Y-94993390D01*
X182944523Y-94993390D02*
X182373095Y-95564819D01*
X182373095Y-95564819D02*
X182992142Y-95564819D01*
X183420714Y-95183866D02*
X184182619Y-95183866D01*
X185087380Y-94898152D02*
X185087380Y-95564819D01*
X184849285Y-94517200D02*
X184611190Y-95231485D01*
X184611190Y-95231485D02*
X185230237Y-95231485D01*
X185801666Y-94564819D02*
X185896904Y-94564819D01*
X185896904Y-94564819D02*
X185992142Y-94612438D01*
X185992142Y-94612438D02*
X186039761Y-94660057D01*
X186039761Y-94660057D02*
X186087380Y-94755295D01*
X186087380Y-94755295D02*
X186134999Y-94945771D01*
X186134999Y-94945771D02*
X186134999Y-95183866D01*
X186134999Y-95183866D02*
X186087380Y-95374342D01*
X186087380Y-95374342D02*
X186039761Y-95469580D01*
X186039761Y-95469580D02*
X185992142Y-95517200D01*
X185992142Y-95517200D02*
X185896904Y-95564819D01*
X185896904Y-95564819D02*
X185801666Y-95564819D01*
X185801666Y-95564819D02*
X185706428Y-95517200D01*
X185706428Y-95517200D02*
X185658809Y-95469580D01*
X185658809Y-95469580D02*
X185611190Y-95374342D01*
X185611190Y-95374342D02*
X185563571Y-95183866D01*
X185563571Y-95183866D02*
X185563571Y-94945771D01*
X185563571Y-94945771D02*
X185611190Y-94755295D01*
X185611190Y-94755295D02*
X185658809Y-94660057D01*
X185658809Y-94660057D02*
X185706428Y-94612438D01*
X185706428Y-94612438D02*
X185801666Y-94564819D01*
X186468333Y-94564819D02*
X187134999Y-94564819D01*
X187134999Y-94564819D02*
X186706428Y-95564819D01*
X187706428Y-94564819D02*
X187801666Y-94564819D01*
X187801666Y-94564819D02*
X187896904Y-94612438D01*
X187896904Y-94612438D02*
X187944523Y-94660057D01*
X187944523Y-94660057D02*
X187992142Y-94755295D01*
X187992142Y-94755295D02*
X188039761Y-94945771D01*
X188039761Y-94945771D02*
X188039761Y-95183866D01*
X188039761Y-95183866D02*
X187992142Y-95374342D01*
X187992142Y-95374342D02*
X187944523Y-95469580D01*
X187944523Y-95469580D02*
X187896904Y-95517200D01*
X187896904Y-95517200D02*
X187801666Y-95564819D01*
X187801666Y-95564819D02*
X187706428Y-95564819D01*
X187706428Y-95564819D02*
X187611190Y-95517200D01*
X187611190Y-95517200D02*
X187563571Y-95469580D01*
X187563571Y-95469580D02*
X187515952Y-95374342D01*
X187515952Y-95374342D02*
X187468333Y-95183866D01*
X187468333Y-95183866D02*
X187468333Y-94945771D01*
X187468333Y-94945771D02*
X187515952Y-94755295D01*
X187515952Y-94755295D02*
X187563571Y-94660057D01*
X187563571Y-94660057D02*
X187611190Y-94612438D01*
X187611190Y-94612438D02*
X187706428Y-94564819D01*
X189182618Y-94517200D02*
X188325476Y-95802914D01*
X189944523Y-94898152D02*
X189944523Y-95564819D01*
X189706428Y-94517200D02*
X189468333Y-95231485D01*
X189468333Y-95231485D02*
X190087380Y-95231485D01*
X190658809Y-94564819D02*
X190754047Y-94564819D01*
X190754047Y-94564819D02*
X190849285Y-94612438D01*
X190849285Y-94612438D02*
X190896904Y-94660057D01*
X190896904Y-94660057D02*
X190944523Y-94755295D01*
X190944523Y-94755295D02*
X190992142Y-94945771D01*
X190992142Y-94945771D02*
X190992142Y-95183866D01*
X190992142Y-95183866D02*
X190944523Y-95374342D01*
X190944523Y-95374342D02*
X190896904Y-95469580D01*
X190896904Y-95469580D02*
X190849285Y-95517200D01*
X190849285Y-95517200D02*
X190754047Y-95564819D01*
X190754047Y-95564819D02*
X190658809Y-95564819D01*
X190658809Y-95564819D02*
X190563571Y-95517200D01*
X190563571Y-95517200D02*
X190515952Y-95469580D01*
X190515952Y-95469580D02*
X190468333Y-95374342D01*
X190468333Y-95374342D02*
X190420714Y-95183866D01*
X190420714Y-95183866D02*
X190420714Y-94945771D01*
X190420714Y-94945771D02*
X190468333Y-94755295D01*
X190468333Y-94755295D02*
X190515952Y-94660057D01*
X190515952Y-94660057D02*
X190563571Y-94612438D01*
X190563571Y-94612438D02*
X190658809Y-94564819D01*
X191325476Y-94564819D02*
X191944523Y-94564819D01*
X191944523Y-94564819D02*
X191611190Y-94945771D01*
X191611190Y-94945771D02*
X191754047Y-94945771D01*
X191754047Y-94945771D02*
X191849285Y-94993390D01*
X191849285Y-94993390D02*
X191896904Y-95041009D01*
X191896904Y-95041009D02*
X191944523Y-95136247D01*
X191944523Y-95136247D02*
X191944523Y-95374342D01*
X191944523Y-95374342D02*
X191896904Y-95469580D01*
X191896904Y-95469580D02*
X191849285Y-95517200D01*
X191849285Y-95517200D02*
X191754047Y-95564819D01*
X191754047Y-95564819D02*
X191468333Y-95564819D01*
X191468333Y-95564819D02*
X191373095Y-95517200D01*
X191373095Y-95517200D02*
X191325476Y-95469580D01*
X192563571Y-94564819D02*
X192658809Y-94564819D01*
X192658809Y-94564819D02*
X192754047Y-94612438D01*
X192754047Y-94612438D02*
X192801666Y-94660057D01*
X192801666Y-94660057D02*
X192849285Y-94755295D01*
X192849285Y-94755295D02*
X192896904Y-94945771D01*
X192896904Y-94945771D02*
X192896904Y-95183866D01*
X192896904Y-95183866D02*
X192849285Y-95374342D01*
X192849285Y-95374342D02*
X192801666Y-95469580D01*
X192801666Y-95469580D02*
X192754047Y-95517200D01*
X192754047Y-95517200D02*
X192658809Y-95564819D01*
X192658809Y-95564819D02*
X192563571Y-95564819D01*
X192563571Y-95564819D02*
X192468333Y-95517200D01*
X192468333Y-95517200D02*
X192420714Y-95469580D01*
X192420714Y-95469580D02*
X192373095Y-95374342D01*
X192373095Y-95374342D02*
X192325476Y-95183866D01*
X192325476Y-95183866D02*
X192325476Y-94945771D01*
X192325476Y-94945771D02*
X192373095Y-94755295D01*
X192373095Y-94755295D02*
X192420714Y-94660057D01*
X192420714Y-94660057D02*
X192468333Y-94612438D01*
X192468333Y-94612438D02*
X192563571Y-94564819D01*
X149183333Y-86529580D02*
X149135714Y-86577200D01*
X149135714Y-86577200D02*
X148992857Y-86624819D01*
X148992857Y-86624819D02*
X148897619Y-86624819D01*
X148897619Y-86624819D02*
X148754762Y-86577200D01*
X148754762Y-86577200D02*
X148659524Y-86481961D01*
X148659524Y-86481961D02*
X148611905Y-86386723D01*
X148611905Y-86386723D02*
X148564286Y-86196247D01*
X148564286Y-86196247D02*
X148564286Y-86053390D01*
X148564286Y-86053390D02*
X148611905Y-85862914D01*
X148611905Y-85862914D02*
X148659524Y-85767676D01*
X148659524Y-85767676D02*
X148754762Y-85672438D01*
X148754762Y-85672438D02*
X148897619Y-85624819D01*
X148897619Y-85624819D02*
X148992857Y-85624819D01*
X148992857Y-85624819D02*
X149135714Y-85672438D01*
X149135714Y-85672438D02*
X149183333Y-85720057D01*
X149564286Y-85720057D02*
X149611905Y-85672438D01*
X149611905Y-85672438D02*
X149707143Y-85624819D01*
X149707143Y-85624819D02*
X149945238Y-85624819D01*
X149945238Y-85624819D02*
X150040476Y-85672438D01*
X150040476Y-85672438D02*
X150088095Y-85720057D01*
X150088095Y-85720057D02*
X150135714Y-85815295D01*
X150135714Y-85815295D02*
X150135714Y-85910533D01*
X150135714Y-85910533D02*
X150088095Y-86053390D01*
X150088095Y-86053390D02*
X149516667Y-86624819D01*
X149516667Y-86624819D02*
X150135714Y-86624819D01*
X194954761Y-89404819D02*
X194621428Y-88928628D01*
X194383333Y-89404819D02*
X194383333Y-88404819D01*
X194383333Y-88404819D02*
X194764285Y-88404819D01*
X194764285Y-88404819D02*
X194859523Y-88452438D01*
X194859523Y-88452438D02*
X194907142Y-88500057D01*
X194907142Y-88500057D02*
X194954761Y-88595295D01*
X194954761Y-88595295D02*
X194954761Y-88738152D01*
X194954761Y-88738152D02*
X194907142Y-88833390D01*
X194907142Y-88833390D02*
X194859523Y-88881009D01*
X194859523Y-88881009D02*
X194764285Y-88928628D01*
X194764285Y-88928628D02*
X194383333Y-88928628D01*
X195240476Y-88404819D02*
X195573809Y-89404819D01*
X195573809Y-89404819D02*
X195907142Y-88404819D01*
X196145238Y-88404819D02*
X196764285Y-88404819D01*
X196764285Y-88404819D02*
X196430952Y-88785771D01*
X196430952Y-88785771D02*
X196573809Y-88785771D01*
X196573809Y-88785771D02*
X196669047Y-88833390D01*
X196669047Y-88833390D02*
X196716666Y-88881009D01*
X196716666Y-88881009D02*
X196764285Y-88976247D01*
X196764285Y-88976247D02*
X196764285Y-89214342D01*
X196764285Y-89214342D02*
X196716666Y-89309580D01*
X196716666Y-89309580D02*
X196669047Y-89357200D01*
X196669047Y-89357200D02*
X196573809Y-89404819D01*
X196573809Y-89404819D02*
X196288095Y-89404819D01*
X196288095Y-89404819D02*
X196192857Y-89357200D01*
X196192857Y-89357200D02*
X196145238Y-89309580D01*
X140704819Y-100742738D02*
X140228628Y-101076071D01*
X140704819Y-101314166D02*
X139704819Y-101314166D01*
X139704819Y-101314166D02*
X139704819Y-100933214D01*
X139704819Y-100933214D02*
X139752438Y-100837976D01*
X139752438Y-100837976D02*
X139800057Y-100790357D01*
X139800057Y-100790357D02*
X139895295Y-100742738D01*
X139895295Y-100742738D02*
X140038152Y-100742738D01*
X140038152Y-100742738D02*
X140133390Y-100790357D01*
X140133390Y-100790357D02*
X140181009Y-100837976D01*
X140181009Y-100837976D02*
X140228628Y-100933214D01*
X140228628Y-100933214D02*
X140228628Y-101314166D01*
X139704819Y-100457023D02*
X140704819Y-100123690D01*
X140704819Y-100123690D02*
X139704819Y-99790357D01*
X139800057Y-99504642D02*
X139752438Y-99457023D01*
X139752438Y-99457023D02*
X139704819Y-99361785D01*
X139704819Y-99361785D02*
X139704819Y-99123690D01*
X139704819Y-99123690D02*
X139752438Y-99028452D01*
X139752438Y-99028452D02*
X139800057Y-98980833D01*
X139800057Y-98980833D02*
X139895295Y-98933214D01*
X139895295Y-98933214D02*
X139990533Y-98933214D01*
X139990533Y-98933214D02*
X140133390Y-98980833D01*
X140133390Y-98980833D02*
X140704819Y-99552261D01*
X140704819Y-99552261D02*
X140704819Y-98933214D01*
X159904761Y-104254819D02*
X159571428Y-103778628D01*
X159333333Y-104254819D02*
X159333333Y-103254819D01*
X159333333Y-103254819D02*
X159714285Y-103254819D01*
X159714285Y-103254819D02*
X159809523Y-103302438D01*
X159809523Y-103302438D02*
X159857142Y-103350057D01*
X159857142Y-103350057D02*
X159904761Y-103445295D01*
X159904761Y-103445295D02*
X159904761Y-103588152D01*
X159904761Y-103588152D02*
X159857142Y-103683390D01*
X159857142Y-103683390D02*
X159809523Y-103731009D01*
X159809523Y-103731009D02*
X159714285Y-103778628D01*
X159714285Y-103778628D02*
X159333333Y-103778628D01*
X160190476Y-103254819D02*
X160523809Y-104254819D01*
X160523809Y-104254819D02*
X160857142Y-103254819D01*
X161238095Y-104254819D02*
X161428571Y-104254819D01*
X161428571Y-104254819D02*
X161523809Y-104207200D01*
X161523809Y-104207200D02*
X161571428Y-104159580D01*
X161571428Y-104159580D02*
X161666666Y-104016723D01*
X161666666Y-104016723D02*
X161714285Y-103826247D01*
X161714285Y-103826247D02*
X161714285Y-103445295D01*
X161714285Y-103445295D02*
X161666666Y-103350057D01*
X161666666Y-103350057D02*
X161619047Y-103302438D01*
X161619047Y-103302438D02*
X161523809Y-103254819D01*
X161523809Y-103254819D02*
X161333333Y-103254819D01*
X161333333Y-103254819D02*
X161238095Y-103302438D01*
X161238095Y-103302438D02*
X161190476Y-103350057D01*
X161190476Y-103350057D02*
X161142857Y-103445295D01*
X161142857Y-103445295D02*
X161142857Y-103683390D01*
X161142857Y-103683390D02*
X161190476Y-103778628D01*
X161190476Y-103778628D02*
X161238095Y-103826247D01*
X161238095Y-103826247D02*
X161333333Y-103873866D01*
X161333333Y-103873866D02*
X161523809Y-103873866D01*
X161523809Y-103873866D02*
X161619047Y-103826247D01*
X161619047Y-103826247D02*
X161666666Y-103778628D01*
X161666666Y-103778628D02*
X161714285Y-103683390D01*
X145054761Y-104254819D02*
X144721428Y-103778628D01*
X144483333Y-104254819D02*
X144483333Y-103254819D01*
X144483333Y-103254819D02*
X144864285Y-103254819D01*
X144864285Y-103254819D02*
X144959523Y-103302438D01*
X144959523Y-103302438D02*
X145007142Y-103350057D01*
X145007142Y-103350057D02*
X145054761Y-103445295D01*
X145054761Y-103445295D02*
X145054761Y-103588152D01*
X145054761Y-103588152D02*
X145007142Y-103683390D01*
X145007142Y-103683390D02*
X144959523Y-103731009D01*
X144959523Y-103731009D02*
X144864285Y-103778628D01*
X144864285Y-103778628D02*
X144483333Y-103778628D01*
X145340476Y-103254819D02*
X145673809Y-104254819D01*
X145673809Y-104254819D02*
X146007142Y-103254819D01*
X146245238Y-103254819D02*
X146911904Y-103254819D01*
X146911904Y-103254819D02*
X146483333Y-104254819D01*
X138159580Y-78331882D02*
X138207200Y-78379501D01*
X138207200Y-78379501D02*
X138254819Y-78522358D01*
X138254819Y-78522358D02*
X138254819Y-78617596D01*
X138254819Y-78617596D02*
X138207200Y-78760453D01*
X138207200Y-78760453D02*
X138111961Y-78855691D01*
X138111961Y-78855691D02*
X138016723Y-78903310D01*
X138016723Y-78903310D02*
X137826247Y-78950929D01*
X137826247Y-78950929D02*
X137683390Y-78950929D01*
X137683390Y-78950929D02*
X137492914Y-78903310D01*
X137492914Y-78903310D02*
X137397676Y-78855691D01*
X137397676Y-78855691D02*
X137302438Y-78760453D01*
X137302438Y-78760453D02*
X137254819Y-78617596D01*
X137254819Y-78617596D02*
X137254819Y-78522358D01*
X137254819Y-78522358D02*
X137302438Y-78379501D01*
X137302438Y-78379501D02*
X137350057Y-78331882D01*
X138254819Y-77379501D02*
X138254819Y-77950929D01*
X138254819Y-77665215D02*
X137254819Y-77665215D01*
X137254819Y-77665215D02*
X137397676Y-77760453D01*
X137397676Y-77760453D02*
X137492914Y-77855691D01*
X137492914Y-77855691D02*
X137540533Y-77950929D01*
X199789580Y-97816666D02*
X199837200Y-97864285D01*
X199837200Y-97864285D02*
X199884819Y-98007142D01*
X199884819Y-98007142D02*
X199884819Y-98102380D01*
X199884819Y-98102380D02*
X199837200Y-98245237D01*
X199837200Y-98245237D02*
X199741961Y-98340475D01*
X199741961Y-98340475D02*
X199646723Y-98388094D01*
X199646723Y-98388094D02*
X199456247Y-98435713D01*
X199456247Y-98435713D02*
X199313390Y-98435713D01*
X199313390Y-98435713D02*
X199122914Y-98388094D01*
X199122914Y-98388094D02*
X199027676Y-98340475D01*
X199027676Y-98340475D02*
X198932438Y-98245237D01*
X198932438Y-98245237D02*
X198884819Y-98102380D01*
X198884819Y-98102380D02*
X198884819Y-98007142D01*
X198884819Y-98007142D02*
X198932438Y-97864285D01*
X198932438Y-97864285D02*
X198980057Y-97816666D01*
X198884819Y-97483332D02*
X198884819Y-96864285D01*
X198884819Y-96864285D02*
X199265771Y-97197618D01*
X199265771Y-97197618D02*
X199265771Y-97054761D01*
X199265771Y-97054761D02*
X199313390Y-96959523D01*
X199313390Y-96959523D02*
X199361009Y-96911904D01*
X199361009Y-96911904D02*
X199456247Y-96864285D01*
X199456247Y-96864285D02*
X199694342Y-96864285D01*
X199694342Y-96864285D02*
X199789580Y-96911904D01*
X199789580Y-96911904D02*
X199837200Y-96959523D01*
X199837200Y-96959523D02*
X199884819Y-97054761D01*
X199884819Y-97054761D02*
X199884819Y-97340475D01*
X199884819Y-97340475D02*
X199837200Y-97435713D01*
X199837200Y-97435713D02*
X199789580Y-97483332D01*
X165766666Y-73754819D02*
X165766666Y-74469104D01*
X165766666Y-74469104D02*
X165719047Y-74611961D01*
X165719047Y-74611961D02*
X165623809Y-74707200D01*
X165623809Y-74707200D02*
X165480952Y-74754819D01*
X165480952Y-74754819D02*
X165385714Y-74754819D01*
X166195238Y-73850057D02*
X166242857Y-73802438D01*
X166242857Y-73802438D02*
X166338095Y-73754819D01*
X166338095Y-73754819D02*
X166576190Y-73754819D01*
X166576190Y-73754819D02*
X166671428Y-73802438D01*
X166671428Y-73802438D02*
X166719047Y-73850057D01*
X166719047Y-73850057D02*
X166766666Y-73945295D01*
X166766666Y-73945295D02*
X166766666Y-74040533D01*
X166766666Y-74040533D02*
X166719047Y-74183390D01*
X166719047Y-74183390D02*
X166147619Y-74754819D01*
X166147619Y-74754819D02*
X166766666Y-74754819D01*
X154363557Y-83979999D02*
X153934985Y-84279999D01*
X154363557Y-84494285D02*
X153463557Y-84494285D01*
X153463557Y-84494285D02*
X153463557Y-84151428D01*
X153463557Y-84151428D02*
X153506414Y-84065713D01*
X153506414Y-84065713D02*
X153549271Y-84022856D01*
X153549271Y-84022856D02*
X153634985Y-83979999D01*
X153634985Y-83979999D02*
X153763557Y-83979999D01*
X153763557Y-83979999D02*
X153849271Y-84022856D01*
X153849271Y-84022856D02*
X153892128Y-84065713D01*
X153892128Y-84065713D02*
X153934985Y-84151428D01*
X153934985Y-84151428D02*
X153934985Y-84494285D01*
X153463557Y-83679999D02*
X153463557Y-83122856D01*
X153463557Y-83122856D02*
X153806414Y-83422856D01*
X153806414Y-83422856D02*
X153806414Y-83294285D01*
X153806414Y-83294285D02*
X153849271Y-83208571D01*
X153849271Y-83208571D02*
X153892128Y-83165713D01*
X153892128Y-83165713D02*
X153977842Y-83122856D01*
X153977842Y-83122856D02*
X154192128Y-83122856D01*
X154192128Y-83122856D02*
X154277842Y-83165713D01*
X154277842Y-83165713D02*
X154320700Y-83208571D01*
X154320700Y-83208571D02*
X154363557Y-83294285D01*
X154363557Y-83294285D02*
X154363557Y-83551428D01*
X154363557Y-83551428D02*
X154320700Y-83637142D01*
X154320700Y-83637142D02*
X154277842Y-83679999D01*
X185021754Y-72492413D02*
X184593182Y-72792413D01*
X185021754Y-73006699D02*
X184121754Y-73006699D01*
X184121754Y-73006699D02*
X184121754Y-72663842D01*
X184121754Y-72663842D02*
X184164611Y-72578127D01*
X184164611Y-72578127D02*
X184207468Y-72535270D01*
X184207468Y-72535270D02*
X184293182Y-72492413D01*
X184293182Y-72492413D02*
X184421754Y-72492413D01*
X184421754Y-72492413D02*
X184507468Y-72535270D01*
X184507468Y-72535270D02*
X184550325Y-72578127D01*
X184550325Y-72578127D02*
X184593182Y-72663842D01*
X184593182Y-72663842D02*
X184593182Y-73006699D01*
X185021754Y-71635270D02*
X185021754Y-72149556D01*
X185021754Y-71892413D02*
X184121754Y-71892413D01*
X184121754Y-71892413D02*
X184250325Y-71978127D01*
X184250325Y-71978127D02*
X184336039Y-72063842D01*
X184336039Y-72063842D02*
X184378897Y-72149556D01*
X184121754Y-71078127D02*
X184121754Y-70992413D01*
X184121754Y-70992413D02*
X184164611Y-70906699D01*
X184164611Y-70906699D02*
X184207468Y-70863842D01*
X184207468Y-70863842D02*
X184293182Y-70820984D01*
X184293182Y-70820984D02*
X184464611Y-70778127D01*
X184464611Y-70778127D02*
X184678897Y-70778127D01*
X184678897Y-70778127D02*
X184850325Y-70820984D01*
X184850325Y-70820984D02*
X184936039Y-70863842D01*
X184936039Y-70863842D02*
X184978897Y-70906699D01*
X184978897Y-70906699D02*
X185021754Y-70992413D01*
X185021754Y-70992413D02*
X185021754Y-71078127D01*
X185021754Y-71078127D02*
X184978897Y-71163842D01*
X184978897Y-71163842D02*
X184936039Y-71206699D01*
X184936039Y-71206699D02*
X184850325Y-71249556D01*
X184850325Y-71249556D02*
X184678897Y-71292413D01*
X184678897Y-71292413D02*
X184464611Y-71292413D01*
X184464611Y-71292413D02*
X184293182Y-71249556D01*
X184293182Y-71249556D02*
X184207468Y-71206699D01*
X184207468Y-71206699D02*
X184164611Y-71163842D01*
X184164611Y-71163842D02*
X184121754Y-71078127D01*
X140566666Y-95354819D02*
X140566666Y-96069104D01*
X140566666Y-96069104D02*
X140519047Y-96211961D01*
X140519047Y-96211961D02*
X140423809Y-96307200D01*
X140423809Y-96307200D02*
X140280952Y-96354819D01*
X140280952Y-96354819D02*
X140185714Y-96354819D01*
X140947619Y-95354819D02*
X141566666Y-95354819D01*
X141566666Y-95354819D02*
X141233333Y-95735771D01*
X141233333Y-95735771D02*
X141376190Y-95735771D01*
X141376190Y-95735771D02*
X141471428Y-95783390D01*
X141471428Y-95783390D02*
X141519047Y-95831009D01*
X141519047Y-95831009D02*
X141566666Y-95926247D01*
X141566666Y-95926247D02*
X141566666Y-96164342D01*
X141566666Y-96164342D02*
X141519047Y-96259580D01*
X141519047Y-96259580D02*
X141471428Y-96307200D01*
X141471428Y-96307200D02*
X141376190Y-96354819D01*
X141376190Y-96354819D02*
X141090476Y-96354819D01*
X141090476Y-96354819D02*
X140995238Y-96307200D01*
X140995238Y-96307200D02*
X140947619Y-96259580D01*
X178766666Y-104054819D02*
X178766666Y-104769104D01*
X178766666Y-104769104D02*
X178719047Y-104911961D01*
X178719047Y-104911961D02*
X178623809Y-105007200D01*
X178623809Y-105007200D02*
X178480952Y-105054819D01*
X178480952Y-105054819D02*
X178385714Y-105054819D01*
X179671428Y-104388152D02*
X179671428Y-105054819D01*
X179433333Y-104007200D02*
X179195238Y-104721485D01*
X179195238Y-104721485D02*
X179814285Y-104721485D01*
X149000000Y-101338557D02*
X148700000Y-100909985D01*
X148485714Y-101338557D02*
X148485714Y-100438557D01*
X148485714Y-100438557D02*
X148828571Y-100438557D01*
X148828571Y-100438557D02*
X148914286Y-100481414D01*
X148914286Y-100481414D02*
X148957143Y-100524271D01*
X148957143Y-100524271D02*
X149000000Y-100609985D01*
X149000000Y-100609985D02*
X149000000Y-100738557D01*
X149000000Y-100738557D02*
X148957143Y-100824271D01*
X148957143Y-100824271D02*
X148914286Y-100867128D01*
X148914286Y-100867128D02*
X148828571Y-100909985D01*
X148828571Y-100909985D02*
X148485714Y-100909985D01*
X149814286Y-100438557D02*
X149385714Y-100438557D01*
X149385714Y-100438557D02*
X149342857Y-100867128D01*
X149342857Y-100867128D02*
X149385714Y-100824271D01*
X149385714Y-100824271D02*
X149471429Y-100781414D01*
X149471429Y-100781414D02*
X149685714Y-100781414D01*
X149685714Y-100781414D02*
X149771429Y-100824271D01*
X149771429Y-100824271D02*
X149814286Y-100867128D01*
X149814286Y-100867128D02*
X149857143Y-100952842D01*
X149857143Y-100952842D02*
X149857143Y-101167128D01*
X149857143Y-101167128D02*
X149814286Y-101252842D01*
X149814286Y-101252842D02*
X149771429Y-101295700D01*
X149771429Y-101295700D02*
X149685714Y-101338557D01*
X149685714Y-101338557D02*
X149471429Y-101338557D01*
X149471429Y-101338557D02*
X149385714Y-101295700D01*
X149385714Y-101295700D02*
X149342857Y-101252842D01*
X182366666Y-104154819D02*
X182366666Y-104869104D01*
X182366666Y-104869104D02*
X182319047Y-105011961D01*
X182319047Y-105011961D02*
X182223809Y-105107200D01*
X182223809Y-105107200D02*
X182080952Y-105154819D01*
X182080952Y-105154819D02*
X181985714Y-105154819D01*
X183271428Y-104154819D02*
X183080952Y-104154819D01*
X183080952Y-104154819D02*
X182985714Y-104202438D01*
X182985714Y-104202438D02*
X182938095Y-104250057D01*
X182938095Y-104250057D02*
X182842857Y-104392914D01*
X182842857Y-104392914D02*
X182795238Y-104583390D01*
X182795238Y-104583390D02*
X182795238Y-104964342D01*
X182795238Y-104964342D02*
X182842857Y-105059580D01*
X182842857Y-105059580D02*
X182890476Y-105107200D01*
X182890476Y-105107200D02*
X182985714Y-105154819D01*
X182985714Y-105154819D02*
X183176190Y-105154819D01*
X183176190Y-105154819D02*
X183271428Y-105107200D01*
X183271428Y-105107200D02*
X183319047Y-105059580D01*
X183319047Y-105059580D02*
X183366666Y-104964342D01*
X183366666Y-104964342D02*
X183366666Y-104726247D01*
X183366666Y-104726247D02*
X183319047Y-104631009D01*
X183319047Y-104631009D02*
X183271428Y-104583390D01*
X183271428Y-104583390D02*
X183176190Y-104535771D01*
X183176190Y-104535771D02*
X182985714Y-104535771D01*
X182985714Y-104535771D02*
X182890476Y-104583390D01*
X182890476Y-104583390D02*
X182842857Y-104631009D01*
X182842857Y-104631009D02*
X182795238Y-104726247D01*
X190462254Y-71359580D02*
X190414635Y-71407200D01*
X190414635Y-71407200D02*
X190271778Y-71454819D01*
X190271778Y-71454819D02*
X190176540Y-71454819D01*
X190176540Y-71454819D02*
X190033683Y-71407200D01*
X190033683Y-71407200D02*
X189938445Y-71311961D01*
X189938445Y-71311961D02*
X189890826Y-71216723D01*
X189890826Y-71216723D02*
X189843207Y-71026247D01*
X189843207Y-71026247D02*
X189843207Y-70883390D01*
X189843207Y-70883390D02*
X189890826Y-70692914D01*
X189890826Y-70692914D02*
X189938445Y-70597676D01*
X189938445Y-70597676D02*
X190033683Y-70502438D01*
X190033683Y-70502438D02*
X190176540Y-70454819D01*
X190176540Y-70454819D02*
X190271778Y-70454819D01*
X190271778Y-70454819D02*
X190414635Y-70502438D01*
X190414635Y-70502438D02*
X190462254Y-70550057D01*
X191414635Y-71454819D02*
X190843207Y-71454819D01*
X191128921Y-71454819D02*
X191128921Y-70454819D01*
X191128921Y-70454819D02*
X191033683Y-70597676D01*
X191033683Y-70597676D02*
X190938445Y-70692914D01*
X190938445Y-70692914D02*
X190843207Y-70740533D01*
X192367016Y-71454819D02*
X191795588Y-71454819D01*
X192081302Y-71454819D02*
X192081302Y-70454819D01*
X192081302Y-70454819D02*
X191986064Y-70597676D01*
X191986064Y-70597676D02*
X191890826Y-70692914D01*
X191890826Y-70692914D02*
X191795588Y-70740533D01*
X172907200Y-85933333D02*
X172954819Y-85811904D01*
X172954819Y-85811904D02*
X172954819Y-85609523D01*
X172954819Y-85609523D02*
X172907200Y-85528571D01*
X172907200Y-85528571D02*
X172859580Y-85488095D01*
X172859580Y-85488095D02*
X172764342Y-85447618D01*
X172764342Y-85447618D02*
X172669104Y-85447618D01*
X172669104Y-85447618D02*
X172573866Y-85488095D01*
X172573866Y-85488095D02*
X172526247Y-85528571D01*
X172526247Y-85528571D02*
X172478628Y-85609523D01*
X172478628Y-85609523D02*
X172431009Y-85771428D01*
X172431009Y-85771428D02*
X172383390Y-85852380D01*
X172383390Y-85852380D02*
X172335771Y-85892857D01*
X172335771Y-85892857D02*
X172240533Y-85933333D01*
X172240533Y-85933333D02*
X172145295Y-85933333D01*
X172145295Y-85933333D02*
X172050057Y-85892857D01*
X172050057Y-85892857D02*
X172002438Y-85852380D01*
X172002438Y-85852380D02*
X171954819Y-85771428D01*
X171954819Y-85771428D02*
X171954819Y-85569047D01*
X171954819Y-85569047D02*
X172002438Y-85447618D01*
X171954819Y-85164285D02*
X172954819Y-84961904D01*
X172954819Y-84961904D02*
X172240533Y-84799999D01*
X172240533Y-84799999D02*
X172954819Y-84638094D01*
X172954819Y-84638094D02*
X171954819Y-84435714D01*
X172954819Y-83666665D02*
X172954819Y-84152380D01*
X172954819Y-83909523D02*
X171954819Y-83909523D01*
X171954819Y-83909523D02*
X172097676Y-83990475D01*
X172097676Y-83990475D02*
X172192914Y-84071427D01*
X172192914Y-84071427D02*
X172240533Y-84152380D01*
X192040476Y-106804819D02*
X192040476Y-107519104D01*
X192040476Y-107519104D02*
X191992857Y-107661961D01*
X191992857Y-107661961D02*
X191897619Y-107757200D01*
X191897619Y-107757200D02*
X191754762Y-107804819D01*
X191754762Y-107804819D02*
X191659524Y-107804819D01*
X193040476Y-107804819D02*
X192469048Y-107804819D01*
X192754762Y-107804819D02*
X192754762Y-106804819D01*
X192754762Y-106804819D02*
X192659524Y-106947676D01*
X192659524Y-106947676D02*
X192564286Y-107042914D01*
X192564286Y-107042914D02*
X192469048Y-107090533D01*
X193421429Y-106900057D02*
X193469048Y-106852438D01*
X193469048Y-106852438D02*
X193564286Y-106804819D01*
X193564286Y-106804819D02*
X193802381Y-106804819D01*
X193802381Y-106804819D02*
X193897619Y-106852438D01*
X193897619Y-106852438D02*
X193945238Y-106900057D01*
X193945238Y-106900057D02*
X193992857Y-106995295D01*
X193992857Y-106995295D02*
X193992857Y-107090533D01*
X193992857Y-107090533D02*
X193945238Y-107233390D01*
X193945238Y-107233390D02*
X193373810Y-107804819D01*
X193373810Y-107804819D02*
X193992857Y-107804819D01*
X195552438Y-76088095D02*
X195504819Y-76183333D01*
X195504819Y-76183333D02*
X195504819Y-76326190D01*
X195504819Y-76326190D02*
X195552438Y-76469047D01*
X195552438Y-76469047D02*
X195647676Y-76564285D01*
X195647676Y-76564285D02*
X195742914Y-76611904D01*
X195742914Y-76611904D02*
X195933390Y-76659523D01*
X195933390Y-76659523D02*
X196076247Y-76659523D01*
X196076247Y-76659523D02*
X196266723Y-76611904D01*
X196266723Y-76611904D02*
X196361961Y-76564285D01*
X196361961Y-76564285D02*
X196457200Y-76469047D01*
X196457200Y-76469047D02*
X196504819Y-76326190D01*
X196504819Y-76326190D02*
X196504819Y-76230952D01*
X196504819Y-76230952D02*
X196457200Y-76088095D01*
X196457200Y-76088095D02*
X196409580Y-76040476D01*
X196409580Y-76040476D02*
X196076247Y-76040476D01*
X196076247Y-76040476D02*
X196076247Y-76230952D01*
X196504819Y-75611904D02*
X195504819Y-75611904D01*
X195504819Y-75611904D02*
X196504819Y-75040476D01*
X196504819Y-75040476D02*
X195504819Y-75040476D01*
X196504819Y-74564285D02*
X195504819Y-74564285D01*
X195504819Y-74564285D02*
X195504819Y-74326190D01*
X195504819Y-74326190D02*
X195552438Y-74183333D01*
X195552438Y-74183333D02*
X195647676Y-74088095D01*
X195647676Y-74088095D02*
X195742914Y-74040476D01*
X195742914Y-74040476D02*
X195933390Y-73992857D01*
X195933390Y-73992857D02*
X196076247Y-73992857D01*
X196076247Y-73992857D02*
X196266723Y-74040476D01*
X196266723Y-74040476D02*
X196361961Y-74088095D01*
X196361961Y-74088095D02*
X196457200Y-74183333D01*
X196457200Y-74183333D02*
X196504819Y-74326190D01*
X196504819Y-74326190D02*
X196504819Y-74564285D01*
X195600057Y-73611904D02*
X195552438Y-73564285D01*
X195552438Y-73564285D02*
X195504819Y-73469047D01*
X195504819Y-73469047D02*
X195504819Y-73230952D01*
X195504819Y-73230952D02*
X195552438Y-73135714D01*
X195552438Y-73135714D02*
X195600057Y-73088095D01*
X195600057Y-73088095D02*
X195695295Y-73040476D01*
X195695295Y-73040476D02*
X195790533Y-73040476D01*
X195790533Y-73040476D02*
X195933390Y-73088095D01*
X195933390Y-73088095D02*
X196504819Y-73659523D01*
X196504819Y-73659523D02*
X196504819Y-73040476D01*
X168004819Y-84078094D02*
X167004819Y-84078094D01*
X167004819Y-84078094D02*
X167004819Y-83839999D01*
X167004819Y-83839999D02*
X167052438Y-83697142D01*
X167052438Y-83697142D02*
X167147676Y-83601904D01*
X167147676Y-83601904D02*
X167242914Y-83554285D01*
X167242914Y-83554285D02*
X167433390Y-83506666D01*
X167433390Y-83506666D02*
X167576247Y-83506666D01*
X167576247Y-83506666D02*
X167766723Y-83554285D01*
X167766723Y-83554285D02*
X167861961Y-83601904D01*
X167861961Y-83601904D02*
X167957200Y-83697142D01*
X167957200Y-83697142D02*
X168004819Y-83839999D01*
X168004819Y-83839999D02*
X168004819Y-84078094D01*
X167004819Y-83173332D02*
X167004819Y-82554285D01*
X167004819Y-82554285D02*
X167385771Y-82887618D01*
X167385771Y-82887618D02*
X167385771Y-82744761D01*
X167385771Y-82744761D02*
X167433390Y-82649523D01*
X167433390Y-82649523D02*
X167481009Y-82601904D01*
X167481009Y-82601904D02*
X167576247Y-82554285D01*
X167576247Y-82554285D02*
X167814342Y-82554285D01*
X167814342Y-82554285D02*
X167909580Y-82601904D01*
X167909580Y-82601904D02*
X167957200Y-82649523D01*
X167957200Y-82649523D02*
X168004819Y-82744761D01*
X168004819Y-82744761D02*
X168004819Y-83030475D01*
X168004819Y-83030475D02*
X167957200Y-83125713D01*
X167957200Y-83125713D02*
X167909580Y-83173332D01*
X166204819Y-87411904D02*
X165204819Y-87411904D01*
X166204819Y-86840476D02*
X165633390Y-87269047D01*
X165204819Y-86840476D02*
X165776247Y-87411904D01*
X153633333Y-76459580D02*
X153585714Y-76507200D01*
X153585714Y-76507200D02*
X153442857Y-76554819D01*
X153442857Y-76554819D02*
X153347619Y-76554819D01*
X153347619Y-76554819D02*
X153204762Y-76507200D01*
X153204762Y-76507200D02*
X153109524Y-76411961D01*
X153109524Y-76411961D02*
X153061905Y-76316723D01*
X153061905Y-76316723D02*
X153014286Y-76126247D01*
X153014286Y-76126247D02*
X153014286Y-75983390D01*
X153014286Y-75983390D02*
X153061905Y-75792914D01*
X153061905Y-75792914D02*
X153109524Y-75697676D01*
X153109524Y-75697676D02*
X153204762Y-75602438D01*
X153204762Y-75602438D02*
X153347619Y-75554819D01*
X153347619Y-75554819D02*
X153442857Y-75554819D01*
X153442857Y-75554819D02*
X153585714Y-75602438D01*
X153585714Y-75602438D02*
X153633333Y-75650057D01*
X154490476Y-75554819D02*
X154300000Y-75554819D01*
X154300000Y-75554819D02*
X154204762Y-75602438D01*
X154204762Y-75602438D02*
X154157143Y-75650057D01*
X154157143Y-75650057D02*
X154061905Y-75792914D01*
X154061905Y-75792914D02*
X154014286Y-75983390D01*
X154014286Y-75983390D02*
X154014286Y-76364342D01*
X154014286Y-76364342D02*
X154061905Y-76459580D01*
X154061905Y-76459580D02*
X154109524Y-76507200D01*
X154109524Y-76507200D02*
X154204762Y-76554819D01*
X154204762Y-76554819D02*
X154395238Y-76554819D01*
X154395238Y-76554819D02*
X154490476Y-76507200D01*
X154490476Y-76507200D02*
X154538095Y-76459580D01*
X154538095Y-76459580D02*
X154585714Y-76364342D01*
X154585714Y-76364342D02*
X154585714Y-76126247D01*
X154585714Y-76126247D02*
X154538095Y-76031009D01*
X154538095Y-76031009D02*
X154490476Y-75983390D01*
X154490476Y-75983390D02*
X154395238Y-75935771D01*
X154395238Y-75935771D02*
X154204762Y-75935771D01*
X154204762Y-75935771D02*
X154109524Y-75983390D01*
X154109524Y-75983390D02*
X154061905Y-76031009D01*
X154061905Y-76031009D02*
X154014286Y-76126247D01*
X157029819Y-84178094D02*
X156029819Y-84178094D01*
X156029819Y-84178094D02*
X156029819Y-83939999D01*
X156029819Y-83939999D02*
X156077438Y-83797142D01*
X156077438Y-83797142D02*
X156172676Y-83701904D01*
X156172676Y-83701904D02*
X156267914Y-83654285D01*
X156267914Y-83654285D02*
X156458390Y-83606666D01*
X156458390Y-83606666D02*
X156601247Y-83606666D01*
X156601247Y-83606666D02*
X156791723Y-83654285D01*
X156791723Y-83654285D02*
X156886961Y-83701904D01*
X156886961Y-83701904D02*
X156982200Y-83797142D01*
X156982200Y-83797142D02*
X157029819Y-83939999D01*
X157029819Y-83939999D02*
X157029819Y-84178094D01*
X156363152Y-82749523D02*
X157029819Y-82749523D01*
X155982200Y-82987618D02*
X156696485Y-83225713D01*
X156696485Y-83225713D02*
X156696485Y-82606666D01*
X155229819Y-87511904D02*
X154229819Y-87511904D01*
X155229819Y-86940476D02*
X154658390Y-87369047D01*
X154229819Y-86940476D02*
X154801247Y-87511904D01*
X146916666Y-95656819D02*
X146916666Y-96371104D01*
X146916666Y-96371104D02*
X146869047Y-96513961D01*
X146869047Y-96513961D02*
X146773809Y-96609200D01*
X146773809Y-96609200D02*
X146630952Y-96656819D01*
X146630952Y-96656819D02*
X146535714Y-96656819D01*
X147535714Y-96085390D02*
X147440476Y-96037771D01*
X147440476Y-96037771D02*
X147392857Y-95990152D01*
X147392857Y-95990152D02*
X147345238Y-95894914D01*
X147345238Y-95894914D02*
X147345238Y-95847295D01*
X147345238Y-95847295D02*
X147392857Y-95752057D01*
X147392857Y-95752057D02*
X147440476Y-95704438D01*
X147440476Y-95704438D02*
X147535714Y-95656819D01*
X147535714Y-95656819D02*
X147726190Y-95656819D01*
X147726190Y-95656819D02*
X147821428Y-95704438D01*
X147821428Y-95704438D02*
X147869047Y-95752057D01*
X147869047Y-95752057D02*
X147916666Y-95847295D01*
X147916666Y-95847295D02*
X147916666Y-95894914D01*
X147916666Y-95894914D02*
X147869047Y-95990152D01*
X147869047Y-95990152D02*
X147821428Y-96037771D01*
X147821428Y-96037771D02*
X147726190Y-96085390D01*
X147726190Y-96085390D02*
X147535714Y-96085390D01*
X147535714Y-96085390D02*
X147440476Y-96133009D01*
X147440476Y-96133009D02*
X147392857Y-96180628D01*
X147392857Y-96180628D02*
X147345238Y-96275866D01*
X147345238Y-96275866D02*
X147345238Y-96466342D01*
X147345238Y-96466342D02*
X147392857Y-96561580D01*
X147392857Y-96561580D02*
X147440476Y-96609200D01*
X147440476Y-96609200D02*
X147535714Y-96656819D01*
X147535714Y-96656819D02*
X147726190Y-96656819D01*
X147726190Y-96656819D02*
X147821428Y-96609200D01*
X147821428Y-96609200D02*
X147869047Y-96561580D01*
X147869047Y-96561580D02*
X147916666Y-96466342D01*
X147916666Y-96466342D02*
X147916666Y-96275866D01*
X147916666Y-96275866D02*
X147869047Y-96180628D01*
X147869047Y-96180628D02*
X147821428Y-96133009D01*
X147821428Y-96133009D02*
X147726190Y-96085390D01*
X151604761Y-104254819D02*
X151271428Y-103778628D01*
X151033333Y-104254819D02*
X151033333Y-103254819D01*
X151033333Y-103254819D02*
X151414285Y-103254819D01*
X151414285Y-103254819D02*
X151509523Y-103302438D01*
X151509523Y-103302438D02*
X151557142Y-103350057D01*
X151557142Y-103350057D02*
X151604761Y-103445295D01*
X151604761Y-103445295D02*
X151604761Y-103588152D01*
X151604761Y-103588152D02*
X151557142Y-103683390D01*
X151557142Y-103683390D02*
X151509523Y-103731009D01*
X151509523Y-103731009D02*
X151414285Y-103778628D01*
X151414285Y-103778628D02*
X151033333Y-103778628D01*
X151890476Y-103254819D02*
X152223809Y-104254819D01*
X152223809Y-104254819D02*
X152557142Y-103254819D01*
X153033333Y-103683390D02*
X152938095Y-103635771D01*
X152938095Y-103635771D02*
X152890476Y-103588152D01*
X152890476Y-103588152D02*
X152842857Y-103492914D01*
X152842857Y-103492914D02*
X152842857Y-103445295D01*
X152842857Y-103445295D02*
X152890476Y-103350057D01*
X152890476Y-103350057D02*
X152938095Y-103302438D01*
X152938095Y-103302438D02*
X153033333Y-103254819D01*
X153033333Y-103254819D02*
X153223809Y-103254819D01*
X153223809Y-103254819D02*
X153319047Y-103302438D01*
X153319047Y-103302438D02*
X153366666Y-103350057D01*
X153366666Y-103350057D02*
X153414285Y-103445295D01*
X153414285Y-103445295D02*
X153414285Y-103492914D01*
X153414285Y-103492914D02*
X153366666Y-103588152D01*
X153366666Y-103588152D02*
X153319047Y-103635771D01*
X153319047Y-103635771D02*
X153223809Y-103683390D01*
X153223809Y-103683390D02*
X153033333Y-103683390D01*
X153033333Y-103683390D02*
X152938095Y-103731009D01*
X152938095Y-103731009D02*
X152890476Y-103778628D01*
X152890476Y-103778628D02*
X152842857Y-103873866D01*
X152842857Y-103873866D02*
X152842857Y-104064342D01*
X152842857Y-104064342D02*
X152890476Y-104159580D01*
X152890476Y-104159580D02*
X152938095Y-104207200D01*
X152938095Y-104207200D02*
X153033333Y-104254819D01*
X153033333Y-104254819D02*
X153223809Y-104254819D01*
X153223809Y-104254819D02*
X153319047Y-104207200D01*
X153319047Y-104207200D02*
X153366666Y-104159580D01*
X153366666Y-104159580D02*
X153414285Y-104064342D01*
X153414285Y-104064342D02*
X153414285Y-103873866D01*
X153414285Y-103873866D02*
X153366666Y-103778628D01*
X153366666Y-103778628D02*
X153319047Y-103731009D01*
X153319047Y-103731009D02*
X153223809Y-103683390D01*
X166304761Y-71504819D02*
X165971428Y-71028628D01*
X165733333Y-71504819D02*
X165733333Y-70504819D01*
X165733333Y-70504819D02*
X166114285Y-70504819D01*
X166114285Y-70504819D02*
X166209523Y-70552438D01*
X166209523Y-70552438D02*
X166257142Y-70600057D01*
X166257142Y-70600057D02*
X166304761Y-70695295D01*
X166304761Y-70695295D02*
X166304761Y-70838152D01*
X166304761Y-70838152D02*
X166257142Y-70933390D01*
X166257142Y-70933390D02*
X166209523Y-70981009D01*
X166209523Y-70981009D02*
X166114285Y-71028628D01*
X166114285Y-71028628D02*
X165733333Y-71028628D01*
X166590476Y-70504819D02*
X166923809Y-71504819D01*
X166923809Y-71504819D02*
X167257142Y-70504819D01*
X168066666Y-70504819D02*
X167590476Y-70504819D01*
X167590476Y-70504819D02*
X167542857Y-70981009D01*
X167542857Y-70981009D02*
X167590476Y-70933390D01*
X167590476Y-70933390D02*
X167685714Y-70885771D01*
X167685714Y-70885771D02*
X167923809Y-70885771D01*
X167923809Y-70885771D02*
X168019047Y-70933390D01*
X168019047Y-70933390D02*
X168066666Y-70981009D01*
X168066666Y-70981009D02*
X168114285Y-71076247D01*
X168114285Y-71076247D02*
X168114285Y-71314342D01*
X168114285Y-71314342D02*
X168066666Y-71409580D01*
X168066666Y-71409580D02*
X168019047Y-71457200D01*
X168019047Y-71457200D02*
X167923809Y-71504819D01*
X167923809Y-71504819D02*
X167685714Y-71504819D01*
X167685714Y-71504819D02*
X167590476Y-71457200D01*
X167590476Y-71457200D02*
X167542857Y-71409580D01*
X135634819Y-79638094D02*
X134634819Y-79638094D01*
X134634819Y-79638094D02*
X134634819Y-79399999D01*
X134634819Y-79399999D02*
X134682438Y-79257142D01*
X134682438Y-79257142D02*
X134777676Y-79161904D01*
X134777676Y-79161904D02*
X134872914Y-79114285D01*
X134872914Y-79114285D02*
X135063390Y-79066666D01*
X135063390Y-79066666D02*
X135206247Y-79066666D01*
X135206247Y-79066666D02*
X135396723Y-79114285D01*
X135396723Y-79114285D02*
X135491961Y-79161904D01*
X135491961Y-79161904D02*
X135587200Y-79257142D01*
X135587200Y-79257142D02*
X135634819Y-79399999D01*
X135634819Y-79399999D02*
X135634819Y-79638094D01*
X135634819Y-78114285D02*
X135634819Y-78685713D01*
X135634819Y-78399999D02*
X134634819Y-78399999D01*
X134634819Y-78399999D02*
X134777676Y-78495237D01*
X134777676Y-78495237D02*
X134872914Y-78590475D01*
X134872914Y-78590475D02*
X134920533Y-78685713D01*
X135954819Y-82971904D02*
X134954819Y-82971904D01*
X135954819Y-82400476D02*
X135383390Y-82829047D01*
X134954819Y-82400476D02*
X135526247Y-82971904D01*
X173954761Y-71404819D02*
X173621428Y-70928628D01*
X173383333Y-71404819D02*
X173383333Y-70404819D01*
X173383333Y-70404819D02*
X173764285Y-70404819D01*
X173764285Y-70404819D02*
X173859523Y-70452438D01*
X173859523Y-70452438D02*
X173907142Y-70500057D01*
X173907142Y-70500057D02*
X173954761Y-70595295D01*
X173954761Y-70595295D02*
X173954761Y-70738152D01*
X173954761Y-70738152D02*
X173907142Y-70833390D01*
X173907142Y-70833390D02*
X173859523Y-70881009D01*
X173859523Y-70881009D02*
X173764285Y-70928628D01*
X173764285Y-70928628D02*
X173383333Y-70928628D01*
X174240476Y-70404819D02*
X174573809Y-71404819D01*
X174573809Y-71404819D02*
X174907142Y-70404819D01*
X175669047Y-70738152D02*
X175669047Y-71404819D01*
X175430952Y-70357200D02*
X175192857Y-71071485D01*
X175192857Y-71071485D02*
X175811904Y-71071485D01*
X141961904Y-67052438D02*
X141866666Y-67004819D01*
X141866666Y-67004819D02*
X141723809Y-67004819D01*
X141723809Y-67004819D02*
X141580952Y-67052438D01*
X141580952Y-67052438D02*
X141485714Y-67147676D01*
X141485714Y-67147676D02*
X141438095Y-67242914D01*
X141438095Y-67242914D02*
X141390476Y-67433390D01*
X141390476Y-67433390D02*
X141390476Y-67576247D01*
X141390476Y-67576247D02*
X141438095Y-67766723D01*
X141438095Y-67766723D02*
X141485714Y-67861961D01*
X141485714Y-67861961D02*
X141580952Y-67957200D01*
X141580952Y-67957200D02*
X141723809Y-68004819D01*
X141723809Y-68004819D02*
X141819047Y-68004819D01*
X141819047Y-68004819D02*
X141961904Y-67957200D01*
X141961904Y-67957200D02*
X142009523Y-67909580D01*
X142009523Y-67909580D02*
X142009523Y-67576247D01*
X142009523Y-67576247D02*
X141819047Y-67576247D01*
X142438095Y-68004819D02*
X142438095Y-67004819D01*
X142438095Y-67004819D02*
X143009523Y-68004819D01*
X143009523Y-68004819D02*
X143009523Y-67004819D01*
X143485714Y-68004819D02*
X143485714Y-67004819D01*
X143485714Y-67004819D02*
X143723809Y-67004819D01*
X143723809Y-67004819D02*
X143866666Y-67052438D01*
X143866666Y-67052438D02*
X143961904Y-67147676D01*
X143961904Y-67147676D02*
X144009523Y-67242914D01*
X144009523Y-67242914D02*
X144057142Y-67433390D01*
X144057142Y-67433390D02*
X144057142Y-67576247D01*
X144057142Y-67576247D02*
X144009523Y-67766723D01*
X144009523Y-67766723D02*
X143961904Y-67861961D01*
X143961904Y-67861961D02*
X143866666Y-67957200D01*
X143866666Y-67957200D02*
X143723809Y-68004819D01*
X143723809Y-68004819D02*
X143485714Y-68004819D01*
X145009523Y-68004819D02*
X144438095Y-68004819D01*
X144723809Y-68004819D02*
X144723809Y-67004819D01*
X144723809Y-67004819D02*
X144628571Y-67147676D01*
X144628571Y-67147676D02*
X144533333Y-67242914D01*
X144533333Y-67242914D02*
X144438095Y-67290533D01*
X172666666Y-99704819D02*
X172666666Y-100419104D01*
X172666666Y-100419104D02*
X172619047Y-100561961D01*
X172619047Y-100561961D02*
X172523809Y-100657200D01*
X172523809Y-100657200D02*
X172380952Y-100704819D01*
X172380952Y-100704819D02*
X172285714Y-100704819D01*
X173190476Y-100704819D02*
X173380952Y-100704819D01*
X173380952Y-100704819D02*
X173476190Y-100657200D01*
X173476190Y-100657200D02*
X173523809Y-100609580D01*
X173523809Y-100609580D02*
X173619047Y-100466723D01*
X173619047Y-100466723D02*
X173666666Y-100276247D01*
X173666666Y-100276247D02*
X173666666Y-99895295D01*
X173666666Y-99895295D02*
X173619047Y-99800057D01*
X173619047Y-99800057D02*
X173571428Y-99752438D01*
X173571428Y-99752438D02*
X173476190Y-99704819D01*
X173476190Y-99704819D02*
X173285714Y-99704819D01*
X173285714Y-99704819D02*
X173190476Y-99752438D01*
X173190476Y-99752438D02*
X173142857Y-99800057D01*
X173142857Y-99800057D02*
X173095238Y-99895295D01*
X173095238Y-99895295D02*
X173095238Y-100133390D01*
X173095238Y-100133390D02*
X173142857Y-100228628D01*
X173142857Y-100228628D02*
X173190476Y-100276247D01*
X173190476Y-100276247D02*
X173285714Y-100323866D01*
X173285714Y-100323866D02*
X173476190Y-100323866D01*
X173476190Y-100323866D02*
X173571428Y-100276247D01*
X173571428Y-100276247D02*
X173619047Y-100228628D01*
X173619047Y-100228628D02*
X173666666Y-100133390D01*
X185516666Y-104476816D02*
X185516666Y-105191101D01*
X185516666Y-105191101D02*
X185469047Y-105333958D01*
X185469047Y-105333958D02*
X185373809Y-105429197D01*
X185373809Y-105429197D02*
X185230952Y-105476816D01*
X185230952Y-105476816D02*
X185135714Y-105476816D01*
X186469047Y-104476816D02*
X185992857Y-104476816D01*
X185992857Y-104476816D02*
X185945238Y-104953006D01*
X185945238Y-104953006D02*
X185992857Y-104905387D01*
X185992857Y-104905387D02*
X186088095Y-104857768D01*
X186088095Y-104857768D02*
X186326190Y-104857768D01*
X186326190Y-104857768D02*
X186421428Y-104905387D01*
X186421428Y-104905387D02*
X186469047Y-104953006D01*
X186469047Y-104953006D02*
X186516666Y-105048244D01*
X186516666Y-105048244D02*
X186516666Y-105286339D01*
X186516666Y-105286339D02*
X186469047Y-105381577D01*
X186469047Y-105381577D02*
X186421428Y-105429197D01*
X186421428Y-105429197D02*
X186326190Y-105476816D01*
X186326190Y-105476816D02*
X186088095Y-105476816D01*
X186088095Y-105476816D02*
X185992857Y-105429197D01*
X185992857Y-105429197D02*
X185945238Y-105381577D01*
X173640000Y-76678557D02*
X173340000Y-76249985D01*
X173125714Y-76678557D02*
X173125714Y-75778557D01*
X173125714Y-75778557D02*
X173468571Y-75778557D01*
X173468571Y-75778557D02*
X173554286Y-75821414D01*
X173554286Y-75821414D02*
X173597143Y-75864271D01*
X173597143Y-75864271D02*
X173640000Y-75949985D01*
X173640000Y-75949985D02*
X173640000Y-76078557D01*
X173640000Y-76078557D02*
X173597143Y-76164271D01*
X173597143Y-76164271D02*
X173554286Y-76207128D01*
X173554286Y-76207128D02*
X173468571Y-76249985D01*
X173468571Y-76249985D02*
X173125714Y-76249985D01*
X173940000Y-75778557D02*
X174540000Y-75778557D01*
X174540000Y-75778557D02*
X174154286Y-76678557D01*
X158104761Y-71504819D02*
X157771428Y-71028628D01*
X157533333Y-71504819D02*
X157533333Y-70504819D01*
X157533333Y-70504819D02*
X157914285Y-70504819D01*
X157914285Y-70504819D02*
X158009523Y-70552438D01*
X158009523Y-70552438D02*
X158057142Y-70600057D01*
X158057142Y-70600057D02*
X158104761Y-70695295D01*
X158104761Y-70695295D02*
X158104761Y-70838152D01*
X158104761Y-70838152D02*
X158057142Y-70933390D01*
X158057142Y-70933390D02*
X158009523Y-70981009D01*
X158009523Y-70981009D02*
X157914285Y-71028628D01*
X157914285Y-71028628D02*
X157533333Y-71028628D01*
X158390476Y-70504819D02*
X158723809Y-71504819D01*
X158723809Y-71504819D02*
X159057142Y-70504819D01*
X159819047Y-70504819D02*
X159628571Y-70504819D01*
X159628571Y-70504819D02*
X159533333Y-70552438D01*
X159533333Y-70552438D02*
X159485714Y-70600057D01*
X159485714Y-70600057D02*
X159390476Y-70742914D01*
X159390476Y-70742914D02*
X159342857Y-70933390D01*
X159342857Y-70933390D02*
X159342857Y-71314342D01*
X159342857Y-71314342D02*
X159390476Y-71409580D01*
X159390476Y-71409580D02*
X159438095Y-71457200D01*
X159438095Y-71457200D02*
X159533333Y-71504819D01*
X159533333Y-71504819D02*
X159723809Y-71504819D01*
X159723809Y-71504819D02*
X159819047Y-71457200D01*
X159819047Y-71457200D02*
X159866666Y-71409580D01*
X159866666Y-71409580D02*
X159914285Y-71314342D01*
X159914285Y-71314342D02*
X159914285Y-71076247D01*
X159914285Y-71076247D02*
X159866666Y-70981009D01*
X159866666Y-70981009D02*
X159819047Y-70933390D01*
X159819047Y-70933390D02*
X159723809Y-70885771D01*
X159723809Y-70885771D02*
X159533333Y-70885771D01*
X159533333Y-70885771D02*
X159438095Y-70933390D01*
X159438095Y-70933390D02*
X159390476Y-70981009D01*
X159390476Y-70981009D02*
X159342857Y-71076247D01*
X189404819Y-69676190D02*
X189404819Y-69485714D01*
X189404819Y-69485714D02*
X189452438Y-69390476D01*
X189452438Y-69390476D02*
X189547676Y-69295238D01*
X189547676Y-69295238D02*
X189738152Y-69247619D01*
X189738152Y-69247619D02*
X190071485Y-69247619D01*
X190071485Y-69247619D02*
X190261961Y-69295238D01*
X190261961Y-69295238D02*
X190357200Y-69390476D01*
X190357200Y-69390476D02*
X190404819Y-69485714D01*
X190404819Y-69485714D02*
X190404819Y-69676190D01*
X190404819Y-69676190D02*
X190357200Y-69771428D01*
X190357200Y-69771428D02*
X190261961Y-69866666D01*
X190261961Y-69866666D02*
X190071485Y-69914285D01*
X190071485Y-69914285D02*
X189738152Y-69914285D01*
X189738152Y-69914285D02*
X189547676Y-69866666D01*
X189547676Y-69866666D02*
X189452438Y-69771428D01*
X189452438Y-69771428D02*
X189404819Y-69676190D01*
X189404819Y-68819047D02*
X190214342Y-68819047D01*
X190214342Y-68819047D02*
X190309580Y-68771428D01*
X190309580Y-68771428D02*
X190357200Y-68723809D01*
X190357200Y-68723809D02*
X190404819Y-68628571D01*
X190404819Y-68628571D02*
X190404819Y-68438095D01*
X190404819Y-68438095D02*
X190357200Y-68342857D01*
X190357200Y-68342857D02*
X190309580Y-68295238D01*
X190309580Y-68295238D02*
X190214342Y-68247619D01*
X190214342Y-68247619D02*
X189404819Y-68247619D01*
X189404819Y-67914285D02*
X189404819Y-67342857D01*
X190404819Y-67628571D02*
X189404819Y-67628571D01*
X190404819Y-66485714D02*
X190404819Y-67057142D01*
X190404819Y-66771428D02*
X189404819Y-66771428D01*
X189404819Y-66771428D02*
X189547676Y-66866666D01*
X189547676Y-66866666D02*
X189642914Y-66961904D01*
X189642914Y-66961904D02*
X189690533Y-67057142D01*
X199189580Y-81716666D02*
X199237200Y-81764285D01*
X199237200Y-81764285D02*
X199284819Y-81907142D01*
X199284819Y-81907142D02*
X199284819Y-82002380D01*
X199284819Y-82002380D02*
X199237200Y-82145237D01*
X199237200Y-82145237D02*
X199141961Y-82240475D01*
X199141961Y-82240475D02*
X199046723Y-82288094D01*
X199046723Y-82288094D02*
X198856247Y-82335713D01*
X198856247Y-82335713D02*
X198713390Y-82335713D01*
X198713390Y-82335713D02*
X198522914Y-82288094D01*
X198522914Y-82288094D02*
X198427676Y-82240475D01*
X198427676Y-82240475D02*
X198332438Y-82145237D01*
X198332438Y-82145237D02*
X198284819Y-82002380D01*
X198284819Y-82002380D02*
X198284819Y-81907142D01*
X198284819Y-81907142D02*
X198332438Y-81764285D01*
X198332438Y-81764285D02*
X198380057Y-81716666D01*
X198618152Y-80859523D02*
X199284819Y-80859523D01*
X198237200Y-81097618D02*
X198951485Y-81335713D01*
X198951485Y-81335713D02*
X198951485Y-80716666D01*
X187591754Y-72202413D02*
X187163182Y-72502413D01*
X187591754Y-72716699D02*
X186691754Y-72716699D01*
X186691754Y-72716699D02*
X186691754Y-72373842D01*
X186691754Y-72373842D02*
X186734611Y-72288127D01*
X186734611Y-72288127D02*
X186777468Y-72245270D01*
X186777468Y-72245270D02*
X186863182Y-72202413D01*
X186863182Y-72202413D02*
X186991754Y-72202413D01*
X186991754Y-72202413D02*
X187077468Y-72245270D01*
X187077468Y-72245270D02*
X187120325Y-72288127D01*
X187120325Y-72288127D02*
X187163182Y-72373842D01*
X187163182Y-72373842D02*
X187163182Y-72716699D01*
X187591754Y-71345270D02*
X187591754Y-71859556D01*
X187591754Y-71602413D02*
X186691754Y-71602413D01*
X186691754Y-71602413D02*
X186820325Y-71688127D01*
X186820325Y-71688127D02*
X186906039Y-71773842D01*
X186906039Y-71773842D02*
X186948897Y-71859556D01*
X187591754Y-70488127D02*
X187591754Y-71002413D01*
X187591754Y-70745270D02*
X186691754Y-70745270D01*
X186691754Y-70745270D02*
X186820325Y-70830984D01*
X186820325Y-70830984D02*
X186906039Y-70916699D01*
X186906039Y-70916699D02*
X186948897Y-71002413D01*
X145733333Y-67459580D02*
X145685714Y-67507200D01*
X145685714Y-67507200D02*
X145542857Y-67554819D01*
X145542857Y-67554819D02*
X145447619Y-67554819D01*
X145447619Y-67554819D02*
X145304762Y-67507200D01*
X145304762Y-67507200D02*
X145209524Y-67411961D01*
X145209524Y-67411961D02*
X145161905Y-67316723D01*
X145161905Y-67316723D02*
X145114286Y-67126247D01*
X145114286Y-67126247D02*
X145114286Y-66983390D01*
X145114286Y-66983390D02*
X145161905Y-66792914D01*
X145161905Y-66792914D02*
X145209524Y-66697676D01*
X145209524Y-66697676D02*
X145304762Y-66602438D01*
X145304762Y-66602438D02*
X145447619Y-66554819D01*
X145447619Y-66554819D02*
X145542857Y-66554819D01*
X145542857Y-66554819D02*
X145685714Y-66602438D01*
X145685714Y-66602438D02*
X145733333Y-66650057D01*
X146066667Y-66554819D02*
X146733333Y-66554819D01*
X146733333Y-66554819D02*
X146304762Y-67554819D01*
X159463557Y-83979999D02*
X159034985Y-84279999D01*
X159463557Y-84494285D02*
X158563557Y-84494285D01*
X158563557Y-84494285D02*
X158563557Y-84151428D01*
X158563557Y-84151428D02*
X158606414Y-84065713D01*
X158606414Y-84065713D02*
X158649271Y-84022856D01*
X158649271Y-84022856D02*
X158734985Y-83979999D01*
X158734985Y-83979999D02*
X158863557Y-83979999D01*
X158863557Y-83979999D02*
X158949271Y-84022856D01*
X158949271Y-84022856D02*
X158992128Y-84065713D01*
X158992128Y-84065713D02*
X159034985Y-84151428D01*
X159034985Y-84151428D02*
X159034985Y-84494285D01*
X158649271Y-83637142D02*
X158606414Y-83594285D01*
X158606414Y-83594285D02*
X158563557Y-83508571D01*
X158563557Y-83508571D02*
X158563557Y-83294285D01*
X158563557Y-83294285D02*
X158606414Y-83208571D01*
X158606414Y-83208571D02*
X158649271Y-83165713D01*
X158649271Y-83165713D02*
X158734985Y-83122856D01*
X158734985Y-83122856D02*
X158820700Y-83122856D01*
X158820700Y-83122856D02*
X158949271Y-83165713D01*
X158949271Y-83165713D02*
X159463557Y-83679999D01*
X159463557Y-83679999D02*
X159463557Y-83122856D01*
X176740476Y-106104819D02*
X176740476Y-106819104D01*
X176740476Y-106819104D02*
X176692857Y-106961961D01*
X176692857Y-106961961D02*
X176597619Y-107057200D01*
X176597619Y-107057200D02*
X176454762Y-107104819D01*
X176454762Y-107104819D02*
X176359524Y-107104819D01*
X177740476Y-107104819D02*
X177169048Y-107104819D01*
X177454762Y-107104819D02*
X177454762Y-106104819D01*
X177454762Y-106104819D02*
X177359524Y-106247676D01*
X177359524Y-106247676D02*
X177264286Y-106342914D01*
X177264286Y-106342914D02*
X177169048Y-106390533D01*
X178359524Y-106104819D02*
X178454762Y-106104819D01*
X178454762Y-106104819D02*
X178550000Y-106152438D01*
X178550000Y-106152438D02*
X178597619Y-106200057D01*
X178597619Y-106200057D02*
X178645238Y-106295295D01*
X178645238Y-106295295D02*
X178692857Y-106485771D01*
X178692857Y-106485771D02*
X178692857Y-106723866D01*
X178692857Y-106723866D02*
X178645238Y-106914342D01*
X178645238Y-106914342D02*
X178597619Y-107009580D01*
X178597619Y-107009580D02*
X178550000Y-107057200D01*
X178550000Y-107057200D02*
X178454762Y-107104819D01*
X178454762Y-107104819D02*
X178359524Y-107104819D01*
X178359524Y-107104819D02*
X178264286Y-107057200D01*
X178264286Y-107057200D02*
X178216667Y-107009580D01*
X178216667Y-107009580D02*
X178169048Y-106914342D01*
X178169048Y-106914342D02*
X178121429Y-106723866D01*
X178121429Y-106723866D02*
X178121429Y-106485771D01*
X178121429Y-106485771D02*
X178169048Y-106295295D01*
X178169048Y-106295295D02*
X178216667Y-106200057D01*
X178216667Y-106200057D02*
X178264286Y-106152438D01*
X178264286Y-106152438D02*
X178359524Y-106104819D01*
X153290476Y-69304819D02*
X153290476Y-70019104D01*
X153290476Y-70019104D02*
X153242857Y-70161961D01*
X153242857Y-70161961D02*
X153147619Y-70257200D01*
X153147619Y-70257200D02*
X153004762Y-70304819D01*
X153004762Y-70304819D02*
X152909524Y-70304819D01*
X154290476Y-70304819D02*
X153719048Y-70304819D01*
X154004762Y-70304819D02*
X154004762Y-69304819D01*
X154004762Y-69304819D02*
X153909524Y-69447676D01*
X153909524Y-69447676D02*
X153814286Y-69542914D01*
X153814286Y-69542914D02*
X153719048Y-69590533D01*
X154623810Y-69304819D02*
X155242857Y-69304819D01*
X155242857Y-69304819D02*
X154909524Y-69685771D01*
X154909524Y-69685771D02*
X155052381Y-69685771D01*
X155052381Y-69685771D02*
X155147619Y-69733390D01*
X155147619Y-69733390D02*
X155195238Y-69781009D01*
X155195238Y-69781009D02*
X155242857Y-69876247D01*
X155242857Y-69876247D02*
X155242857Y-70114342D01*
X155242857Y-70114342D02*
X155195238Y-70209580D01*
X155195238Y-70209580D02*
X155147619Y-70257200D01*
X155147619Y-70257200D02*
X155052381Y-70304819D01*
X155052381Y-70304819D02*
X154766667Y-70304819D01*
X154766667Y-70304819D02*
X154671429Y-70257200D01*
X154671429Y-70257200D02*
X154623810Y-70209580D01*
X138204761Y-88704819D02*
X137871428Y-88228628D01*
X137633333Y-88704819D02*
X137633333Y-87704819D01*
X137633333Y-87704819D02*
X138014285Y-87704819D01*
X138014285Y-87704819D02*
X138109523Y-87752438D01*
X138109523Y-87752438D02*
X138157142Y-87800057D01*
X138157142Y-87800057D02*
X138204761Y-87895295D01*
X138204761Y-87895295D02*
X138204761Y-88038152D01*
X138204761Y-88038152D02*
X138157142Y-88133390D01*
X138157142Y-88133390D02*
X138109523Y-88181009D01*
X138109523Y-88181009D02*
X138014285Y-88228628D01*
X138014285Y-88228628D02*
X137633333Y-88228628D01*
X138490476Y-87704819D02*
X138823809Y-88704819D01*
X138823809Y-88704819D02*
X139157142Y-87704819D01*
X140014285Y-88704819D02*
X139442857Y-88704819D01*
X139728571Y-88704819D02*
X139728571Y-87704819D01*
X139728571Y-87704819D02*
X139633333Y-87847676D01*
X139633333Y-87847676D02*
X139538095Y-87942914D01*
X139538095Y-87942914D02*
X139442857Y-87990533D01*
X172622200Y-93439411D02*
X172669819Y-93317982D01*
X172669819Y-93317982D02*
X172669819Y-93115601D01*
X172669819Y-93115601D02*
X172622200Y-93034649D01*
X172622200Y-93034649D02*
X172574580Y-92994173D01*
X172574580Y-92994173D02*
X172479342Y-92953696D01*
X172479342Y-92953696D02*
X172384104Y-92953696D01*
X172384104Y-92953696D02*
X172288866Y-92994173D01*
X172288866Y-92994173D02*
X172241247Y-93034649D01*
X172241247Y-93034649D02*
X172193628Y-93115601D01*
X172193628Y-93115601D02*
X172146009Y-93277506D01*
X172146009Y-93277506D02*
X172098390Y-93358458D01*
X172098390Y-93358458D02*
X172050771Y-93398935D01*
X172050771Y-93398935D02*
X171955533Y-93439411D01*
X171955533Y-93439411D02*
X171860295Y-93439411D01*
X171860295Y-93439411D02*
X171765057Y-93398935D01*
X171765057Y-93398935D02*
X171717438Y-93358458D01*
X171717438Y-93358458D02*
X171669819Y-93277506D01*
X171669819Y-93277506D02*
X171669819Y-93075125D01*
X171669819Y-93075125D02*
X171717438Y-92953696D01*
X171669819Y-92670363D02*
X172669819Y-92467982D01*
X172669819Y-92467982D02*
X171955533Y-92306077D01*
X171955533Y-92306077D02*
X172669819Y-92144172D01*
X172669819Y-92144172D02*
X171669819Y-91941792D01*
X171765057Y-91658458D02*
X171717438Y-91617982D01*
X171717438Y-91617982D02*
X171669819Y-91537029D01*
X171669819Y-91537029D02*
X171669819Y-91334648D01*
X171669819Y-91334648D02*
X171717438Y-91253696D01*
X171717438Y-91253696D02*
X171765057Y-91213220D01*
X171765057Y-91213220D02*
X171860295Y-91172743D01*
X171860295Y-91172743D02*
X171955533Y-91172743D01*
X171955533Y-91172743D02*
X172098390Y-91213220D01*
X172098390Y-91213220D02*
X172669819Y-91698934D01*
X172669819Y-91698934D02*
X172669819Y-91172743D01*
X145379580Y-90966666D02*
X145427200Y-91014285D01*
X145427200Y-91014285D02*
X145474819Y-91157142D01*
X145474819Y-91157142D02*
X145474819Y-91252380D01*
X145474819Y-91252380D02*
X145427200Y-91395237D01*
X145427200Y-91395237D02*
X145331961Y-91490475D01*
X145331961Y-91490475D02*
X145236723Y-91538094D01*
X145236723Y-91538094D02*
X145046247Y-91585713D01*
X145046247Y-91585713D02*
X144903390Y-91585713D01*
X144903390Y-91585713D02*
X144712914Y-91538094D01*
X144712914Y-91538094D02*
X144617676Y-91490475D01*
X144617676Y-91490475D02*
X144522438Y-91395237D01*
X144522438Y-91395237D02*
X144474819Y-91252380D01*
X144474819Y-91252380D02*
X144474819Y-91157142D01*
X144474819Y-91157142D02*
X144522438Y-91014285D01*
X144522438Y-91014285D02*
X144570057Y-90966666D01*
X145474819Y-90490475D02*
X145474819Y-90299999D01*
X145474819Y-90299999D02*
X145427200Y-90204761D01*
X145427200Y-90204761D02*
X145379580Y-90157142D01*
X145379580Y-90157142D02*
X145236723Y-90061904D01*
X145236723Y-90061904D02*
X145046247Y-90014285D01*
X145046247Y-90014285D02*
X144665295Y-90014285D01*
X144665295Y-90014285D02*
X144570057Y-90061904D01*
X144570057Y-90061904D02*
X144522438Y-90109523D01*
X144522438Y-90109523D02*
X144474819Y-90204761D01*
X144474819Y-90204761D02*
X144474819Y-90395237D01*
X144474819Y-90395237D02*
X144522438Y-90490475D01*
X144522438Y-90490475D02*
X144570057Y-90538094D01*
X144570057Y-90538094D02*
X144665295Y-90585713D01*
X144665295Y-90585713D02*
X144903390Y-90585713D01*
X144903390Y-90585713D02*
X144998628Y-90538094D01*
X144998628Y-90538094D02*
X145046247Y-90490475D01*
X145046247Y-90490475D02*
X145093866Y-90395237D01*
X145093866Y-90395237D02*
X145093866Y-90204761D01*
X145093866Y-90204761D02*
X145046247Y-90109523D01*
X145046247Y-90109523D02*
X144998628Y-90061904D01*
X144998628Y-90061904D02*
X144903390Y-90014285D01*
X154653095Y-93144819D02*
X154653095Y-93954342D01*
X154653095Y-93954342D02*
X154700714Y-94049580D01*
X154700714Y-94049580D02*
X154748333Y-94097200D01*
X154748333Y-94097200D02*
X154843571Y-94144819D01*
X154843571Y-94144819D02*
X155034047Y-94144819D01*
X155034047Y-94144819D02*
X155129285Y-94097200D01*
X155129285Y-94097200D02*
X155176904Y-94049580D01*
X155176904Y-94049580D02*
X155224523Y-93954342D01*
X155224523Y-93954342D02*
X155224523Y-93144819D01*
X156224523Y-94144819D02*
X155653095Y-94144819D01*
X155938809Y-94144819D02*
X155938809Y-93144819D01*
X155938809Y-93144819D02*
X155843571Y-93287676D01*
X155843571Y-93287676D02*
X155748333Y-93382914D01*
X155748333Y-93382914D02*
X155653095Y-93430533D01*
X156653095Y-93763866D02*
X157415000Y-93763866D01*
X158319761Y-93478152D02*
X158319761Y-94144819D01*
X158081666Y-93097200D02*
X157843571Y-93811485D01*
X157843571Y-93811485D02*
X158462618Y-93811485D01*
X159034047Y-93144819D02*
X159129285Y-93144819D01*
X159129285Y-93144819D02*
X159224523Y-93192438D01*
X159224523Y-93192438D02*
X159272142Y-93240057D01*
X159272142Y-93240057D02*
X159319761Y-93335295D01*
X159319761Y-93335295D02*
X159367380Y-93525771D01*
X159367380Y-93525771D02*
X159367380Y-93763866D01*
X159367380Y-93763866D02*
X159319761Y-93954342D01*
X159319761Y-93954342D02*
X159272142Y-94049580D01*
X159272142Y-94049580D02*
X159224523Y-94097200D01*
X159224523Y-94097200D02*
X159129285Y-94144819D01*
X159129285Y-94144819D02*
X159034047Y-94144819D01*
X159034047Y-94144819D02*
X158938809Y-94097200D01*
X158938809Y-94097200D02*
X158891190Y-94049580D01*
X158891190Y-94049580D02*
X158843571Y-93954342D01*
X158843571Y-93954342D02*
X158795952Y-93763866D01*
X158795952Y-93763866D02*
X158795952Y-93525771D01*
X158795952Y-93525771D02*
X158843571Y-93335295D01*
X158843571Y-93335295D02*
X158891190Y-93240057D01*
X158891190Y-93240057D02*
X158938809Y-93192438D01*
X158938809Y-93192438D02*
X159034047Y-93144819D01*
X160319761Y-94144819D02*
X159748333Y-94144819D01*
X160034047Y-94144819D02*
X160034047Y-93144819D01*
X160034047Y-93144819D02*
X159938809Y-93287676D01*
X159938809Y-93287676D02*
X159843571Y-93382914D01*
X159843571Y-93382914D02*
X159748333Y-93430533D01*
X160938809Y-93144819D02*
X161034047Y-93144819D01*
X161034047Y-93144819D02*
X161129285Y-93192438D01*
X161129285Y-93192438D02*
X161176904Y-93240057D01*
X161176904Y-93240057D02*
X161224523Y-93335295D01*
X161224523Y-93335295D02*
X161272142Y-93525771D01*
X161272142Y-93525771D02*
X161272142Y-93763866D01*
X161272142Y-93763866D02*
X161224523Y-93954342D01*
X161224523Y-93954342D02*
X161176904Y-94049580D01*
X161176904Y-94049580D02*
X161129285Y-94097200D01*
X161129285Y-94097200D02*
X161034047Y-94144819D01*
X161034047Y-94144819D02*
X160938809Y-94144819D01*
X160938809Y-94144819D02*
X160843571Y-94097200D01*
X160843571Y-94097200D02*
X160795952Y-94049580D01*
X160795952Y-94049580D02*
X160748333Y-93954342D01*
X160748333Y-93954342D02*
X160700714Y-93763866D01*
X160700714Y-93763866D02*
X160700714Y-93525771D01*
X160700714Y-93525771D02*
X160748333Y-93335295D01*
X160748333Y-93335295D02*
X160795952Y-93240057D01*
X160795952Y-93240057D02*
X160843571Y-93192438D01*
X160843571Y-93192438D02*
X160938809Y-93144819D01*
X162129285Y-93144819D02*
X161938809Y-93144819D01*
X161938809Y-93144819D02*
X161843571Y-93192438D01*
X161843571Y-93192438D02*
X161795952Y-93240057D01*
X161795952Y-93240057D02*
X161700714Y-93382914D01*
X161700714Y-93382914D02*
X161653095Y-93573390D01*
X161653095Y-93573390D02*
X161653095Y-93954342D01*
X161653095Y-93954342D02*
X161700714Y-94049580D01*
X161700714Y-94049580D02*
X161748333Y-94097200D01*
X161748333Y-94097200D02*
X161843571Y-94144819D01*
X161843571Y-94144819D02*
X162034047Y-94144819D01*
X162034047Y-94144819D02*
X162129285Y-94097200D01*
X162129285Y-94097200D02*
X162176904Y-94049580D01*
X162176904Y-94049580D02*
X162224523Y-93954342D01*
X162224523Y-93954342D02*
X162224523Y-93716247D01*
X162224523Y-93716247D02*
X162176904Y-93621009D01*
X162176904Y-93621009D02*
X162129285Y-93573390D01*
X162129285Y-93573390D02*
X162034047Y-93525771D01*
X162034047Y-93525771D02*
X161843571Y-93525771D01*
X161843571Y-93525771D02*
X161748333Y-93573390D01*
X161748333Y-93573390D02*
X161700714Y-93621009D01*
X161700714Y-93621009D02*
X161653095Y-93716247D01*
X162029819Y-84178094D02*
X161029819Y-84178094D01*
X161029819Y-84178094D02*
X161029819Y-83939999D01*
X161029819Y-83939999D02*
X161077438Y-83797142D01*
X161077438Y-83797142D02*
X161172676Y-83701904D01*
X161172676Y-83701904D02*
X161267914Y-83654285D01*
X161267914Y-83654285D02*
X161458390Y-83606666D01*
X161458390Y-83606666D02*
X161601247Y-83606666D01*
X161601247Y-83606666D02*
X161791723Y-83654285D01*
X161791723Y-83654285D02*
X161886961Y-83701904D01*
X161886961Y-83701904D02*
X161982200Y-83797142D01*
X161982200Y-83797142D02*
X162029819Y-83939999D01*
X162029819Y-83939999D02*
X162029819Y-84178094D01*
X161125057Y-83225713D02*
X161077438Y-83178094D01*
X161077438Y-83178094D02*
X161029819Y-83082856D01*
X161029819Y-83082856D02*
X161029819Y-82844761D01*
X161029819Y-82844761D02*
X161077438Y-82749523D01*
X161077438Y-82749523D02*
X161125057Y-82701904D01*
X161125057Y-82701904D02*
X161220295Y-82654285D01*
X161220295Y-82654285D02*
X161315533Y-82654285D01*
X161315533Y-82654285D02*
X161458390Y-82701904D01*
X161458390Y-82701904D02*
X162029819Y-83273332D01*
X162029819Y-83273332D02*
X162029819Y-82654285D01*
X160229819Y-87511904D02*
X159229819Y-87511904D01*
X160229819Y-86940476D02*
X159658390Y-87369047D01*
X159229819Y-86940476D02*
X159801247Y-87511904D01*
D11*
%TO.C,U3-4040*%
X176380000Y-80410000D02*
X176380000Y-84910000D01*
X176380000Y-84910000D02*
X196820000Y-84910000D01*
X196820000Y-80410000D02*
X176380000Y-80410000D01*
X196820000Y-81660000D02*
X196820000Y-80410000D01*
X196820000Y-84910000D02*
X196820000Y-83660000D01*
X196880000Y-77410000D02*
X176320000Y-77410000D01*
X176320000Y-87910000D01*
X196880000Y-87910000D01*
X196880000Y-77410000D01*
X196820000Y-83660000D02*
G75*
G02*
X196820000Y-81660000I0J1000000D01*
G01*
%TO.C,R4*%
X142230000Y-97870000D02*
X142230000Y-101710000D01*
X142230000Y-101710000D02*
X144070000Y-101710000D01*
X143150000Y-96920000D02*
X143150000Y-97870000D01*
X143150000Y-102660000D02*
X143150000Y-101710000D01*
X144070000Y-97870000D02*
X142230000Y-97870000D01*
X144070000Y-101710000D02*
X144070000Y-97870000D01*
%TO.C,R6*%
X157570000Y-101400000D02*
X158520000Y-101400000D01*
X158520000Y-100480000D02*
X158520000Y-102320000D01*
X158520000Y-102320000D02*
X162360000Y-102320000D01*
X162360000Y-100480000D02*
X158520000Y-100480000D01*
X162360000Y-102320000D02*
X162360000Y-100480000D01*
X163310000Y-101400000D02*
X162360000Y-101400000D01*
%TO.C,SW3*%
X168450000Y-96100000D02*
X168450000Y-89000000D01*
X170650000Y-89000000D02*
X168450000Y-89000000D01*
X170650000Y-96100000D02*
X168450000Y-96100000D01*
X170650000Y-96100000D02*
X170650000Y-89000000D01*
%TO.C,C5*%
X155999000Y-75934000D02*
X155999000Y-75366000D01*
X156039000Y-76168000D02*
X156039000Y-75132000D01*
X156079000Y-76327000D02*
X156079000Y-74973000D01*
X156119000Y-76455000D02*
X156119000Y-74845000D01*
X156159000Y-76565000D02*
X156159000Y-74735000D01*
X156199000Y-76661000D02*
X156199000Y-74639000D01*
X156239000Y-76748000D02*
X156239000Y-74552000D01*
X156279000Y-76828000D02*
X156279000Y-74472000D01*
X156319000Y-74610000D02*
X156319000Y-74399000D01*
X156319000Y-76901000D02*
X156319000Y-76690000D01*
X156359000Y-74610000D02*
X156359000Y-74331000D01*
X156359000Y-76969000D02*
X156359000Y-76690000D01*
X156399000Y-74610000D02*
X156399000Y-74267000D01*
X156399000Y-77033000D02*
X156399000Y-76690000D01*
X156439000Y-74610000D02*
X156439000Y-74207000D01*
X156439000Y-77093000D02*
X156439000Y-76690000D01*
X156479000Y-74610000D02*
X156479000Y-74150000D01*
X156479000Y-77150000D02*
X156479000Y-76690000D01*
X156519000Y-74610000D02*
X156519000Y-74096000D01*
X156519000Y-77204000D02*
X156519000Y-76690000D01*
X156559000Y-74610000D02*
X156559000Y-74045000D01*
X156559000Y-77255000D02*
X156559000Y-76690000D01*
X156599000Y-74610000D02*
X156599000Y-73997000D01*
X156599000Y-77303000D02*
X156599000Y-76690000D01*
X156639000Y-74610000D02*
X156639000Y-73951000D01*
X156639000Y-77349000D02*
X156639000Y-76690000D01*
X156679000Y-74610000D02*
X156679000Y-73907000D01*
X156679000Y-77393000D02*
X156679000Y-76690000D01*
X156719000Y-74610000D02*
X156719000Y-73865000D01*
X156719000Y-77435000D02*
X156719000Y-76690000D01*
X156759000Y-74610000D02*
X156759000Y-73824000D01*
X156759000Y-77476000D02*
X156759000Y-76690000D01*
X156799000Y-74610000D02*
X156799000Y-73786000D01*
X156799000Y-77514000D02*
X156799000Y-76690000D01*
X156839000Y-74610000D02*
X156839000Y-73749000D01*
X156839000Y-77551000D02*
X156839000Y-76690000D01*
X156879000Y-74610000D02*
X156879000Y-73713000D01*
X156879000Y-77587000D02*
X156879000Y-76690000D01*
X156919000Y-74610000D02*
X156919000Y-73679000D01*
X156919000Y-77621000D02*
X156919000Y-76690000D01*
X156959000Y-74610000D02*
X156959000Y-73646000D01*
X156959000Y-77654000D02*
X156959000Y-76690000D01*
X156999000Y-74610000D02*
X156999000Y-73615000D01*
X156999000Y-77685000D02*
X156999000Y-76690000D01*
X157039000Y-74610000D02*
X157039000Y-73585000D01*
X157039000Y-77715000D02*
X157039000Y-76690000D01*
X157079000Y-74610000D02*
X157079000Y-73555000D01*
X157079000Y-77745000D02*
X157079000Y-76690000D01*
X157119000Y-74610000D02*
X157119000Y-73528000D01*
X157119000Y-77772000D02*
X157119000Y-76690000D01*
X157159000Y-74610000D02*
X157159000Y-73501000D01*
X157159000Y-77799000D02*
X157159000Y-76690000D01*
X157199000Y-74610000D02*
X157199000Y-73475000D01*
X157199000Y-77825000D02*
X157199000Y-76690000D01*
X157239000Y-74610000D02*
X157239000Y-73450000D01*
X157239000Y-77850000D02*
X157239000Y-76690000D01*
X157279000Y-74610000D02*
X157279000Y-73426000D01*
X157279000Y-77874000D02*
X157279000Y-76690000D01*
X157319000Y-74610000D02*
X157319000Y-73403000D01*
X157319000Y-77897000D02*
X157319000Y-76690000D01*
X157359000Y-74610000D02*
X157359000Y-73382000D01*
X157359000Y-77918000D02*
X157359000Y-76690000D01*
X157399000Y-74610000D02*
X157399000Y-73360000D01*
X157399000Y-77940000D02*
X157399000Y-76690000D01*
X157439000Y-74610000D02*
X157439000Y-73340000D01*
X157439000Y-77960000D02*
X157439000Y-76690000D01*
X157479000Y-74610000D02*
X157479000Y-73321000D01*
X157479000Y-77979000D02*
X157479000Y-76690000D01*
X157519000Y-74610000D02*
X157519000Y-73302000D01*
X157519000Y-77998000D02*
X157519000Y-76690000D01*
X157559000Y-74610000D02*
X157559000Y-73285000D01*
X157559000Y-78015000D02*
X157559000Y-76690000D01*
X157599000Y-74610000D02*
X157599000Y-73268000D01*
X157599000Y-78032000D02*
X157599000Y-76690000D01*
X157639000Y-74610000D02*
X157639000Y-73252000D01*
X157639000Y-78048000D02*
X157639000Y-76690000D01*
X157679000Y-74610000D02*
X157679000Y-73236000D01*
X157679000Y-78064000D02*
X157679000Y-76690000D01*
X157719000Y-74610000D02*
X157719000Y-73222000D01*
X157719000Y-78078000D02*
X157719000Y-76690000D01*
X157759000Y-74610000D02*
X157759000Y-73208000D01*
X157759000Y-78092000D02*
X157759000Y-76690000D01*
X157799000Y-74610000D02*
X157799000Y-73195000D01*
X157799000Y-78105000D02*
X157799000Y-76690000D01*
X157839000Y-74610000D02*
X157839000Y-73182000D01*
X157839000Y-78118000D02*
X157839000Y-76690000D01*
X157879000Y-74610000D02*
X157879000Y-73170000D01*
X157879000Y-78130000D02*
X157879000Y-76690000D01*
X157920000Y-74610000D02*
X157920000Y-73159000D01*
X157920000Y-78141000D02*
X157920000Y-76690000D01*
X157960000Y-74610000D02*
X157960000Y-73149000D01*
X157960000Y-78151000D02*
X157960000Y-76690000D01*
X158000000Y-74610000D02*
X158000000Y-73139000D01*
X158000000Y-78161000D02*
X158000000Y-76690000D01*
X158040000Y-74610000D02*
X158040000Y-73130000D01*
X158040000Y-78170000D02*
X158040000Y-76690000D01*
X158080000Y-74610000D02*
X158080000Y-73122000D01*
X158080000Y-78178000D02*
X158080000Y-76690000D01*
X158120000Y-74610000D02*
X158120000Y-73114000D01*
X158120000Y-78186000D02*
X158120000Y-76690000D01*
X158160000Y-74610000D02*
X158160000Y-73107000D01*
X158160000Y-78193000D02*
X158160000Y-76690000D01*
X158200000Y-74610000D02*
X158200000Y-73100000D01*
X158200000Y-78200000D02*
X158200000Y-76690000D01*
X158240000Y-74610000D02*
X158240000Y-73094000D01*
X158240000Y-78206000D02*
X158240000Y-76690000D01*
X158280000Y-74610000D02*
X158280000Y-73089000D01*
X158280000Y-78211000D02*
X158280000Y-76690000D01*
X158320000Y-74610000D02*
X158320000Y-73085000D01*
X158320000Y-78215000D02*
X158320000Y-76690000D01*
X158360000Y-74610000D02*
X158360000Y-73081000D01*
X158360000Y-78219000D02*
X158360000Y-76690000D01*
X158400000Y-78223000D02*
X158400000Y-73077000D01*
X158440000Y-78226000D02*
X158440000Y-73074000D01*
X158480000Y-78228000D02*
X158480000Y-73072000D01*
X158520000Y-78229000D02*
X158520000Y-73071000D01*
X158560000Y-78230000D02*
X158560000Y-73070000D01*
X158600000Y-78230000D02*
X158600000Y-73070000D01*
X161154775Y-77375000D02*
X161154775Y-76875000D01*
X161404775Y-77125000D02*
X160904775Y-77125000D01*
X161220000Y-75650000D02*
G75*
G02*
X155980000Y-75650000I-2620000J0D01*
G01*
X155980000Y-75650000D02*
G75*
G02*
X161220000Y-75650000I2620000J0D01*
G01*
%TO.C,R1*%
X164230000Y-81590000D02*
X164230000Y-85430000D01*
X164230000Y-85430000D02*
X166070000Y-85430000D01*
X165150000Y-80640000D02*
X165150000Y-81590000D01*
X165150000Y-86380000D02*
X165150000Y-85430000D01*
X166070000Y-81590000D02*
X164230000Y-81590000D01*
X166070000Y-85430000D02*
X166070000Y-81590000D01*
%TO.C,R8*%
X178643197Y-69993842D02*
X178643197Y-73833842D01*
X178643197Y-73833842D02*
X180483197Y-73833842D01*
X179563197Y-69043842D02*
X179563197Y-69993842D01*
X179563197Y-74783842D02*
X179563197Y-73833842D01*
X180483197Y-69993842D02*
X178643197Y-69993842D01*
X180483197Y-73833842D02*
X180483197Y-69993842D01*
%TO.C,R9*%
X181143197Y-69993842D02*
X181143197Y-73833842D01*
X181143197Y-73833842D02*
X182983197Y-73833842D01*
X182063197Y-69043842D02*
X182063197Y-69993842D01*
X182063197Y-74783842D02*
X182063197Y-73833842D01*
X182983197Y-69993842D02*
X181143197Y-69993842D01*
X182983197Y-73833842D02*
X182983197Y-69993842D01*
%TO.C,C10*%
X169580000Y-96380000D02*
X169580000Y-96395000D01*
X169580000Y-96380000D02*
X174120000Y-96380000D01*
X169580000Y-98505000D02*
X169580000Y-98520000D01*
X169580000Y-98520000D02*
X174120000Y-98520000D01*
X174120000Y-96380000D02*
X174120000Y-96395000D01*
X174120000Y-98505000D02*
X174120000Y-98520000D01*
%TO.C,C8*%
X146280000Y-88580000D02*
X146295000Y-88580000D01*
X146280000Y-93120000D02*
X146280000Y-88580000D01*
X146280000Y-93120000D02*
X146295000Y-93120000D01*
X148405000Y-88580000D02*
X148420000Y-88580000D01*
X148405000Y-93120000D02*
X148420000Y-93120000D01*
X148420000Y-93120000D02*
X148420000Y-88580000D01*
%TO.C,U2-4070/4030*%
X178180000Y-92860000D02*
X178180000Y-97360000D01*
X178180000Y-97360000D02*
X196080000Y-97360000D01*
X196080000Y-92860000D02*
X178180000Y-92860000D01*
X196080000Y-94110000D02*
X196080000Y-92860000D01*
X196080000Y-97360000D02*
X196080000Y-96110000D01*
X196140000Y-89860000D02*
X178120000Y-89860000D01*
X178120000Y-100360000D01*
X196140000Y-100360000D01*
X196140000Y-89860000D01*
X196080000Y-96110000D02*
G75*
G02*
X196080000Y-94110000I0J1000000D01*
G01*
%TO.C,C2*%
X147030000Y-85030000D02*
X147030000Y-85045000D01*
X147030000Y-85030000D02*
X151570000Y-85030000D01*
X147030000Y-87155000D02*
X147030000Y-87170000D01*
X147030000Y-87170000D02*
X151570000Y-87170000D01*
X151570000Y-85030000D02*
X151570000Y-85045000D01*
X151570000Y-87155000D02*
X151570000Y-87170000D01*
%TO.C,RV3*%
X197570000Y-88950000D02*
X197570000Y-86350000D01*
X197600000Y-92662500D02*
X197600000Y-91332500D01*
X198930000Y-92662500D02*
X197600000Y-92662500D01*
X200230000Y-86350000D02*
X197570000Y-86350000D01*
X200230000Y-88950000D02*
X197570000Y-88950000D01*
X200230000Y-88950000D02*
X200230000Y-86350000D01*
%TO.C,RV2*%
X136420384Y-97800000D02*
X136420384Y-95200000D01*
X136450384Y-101512500D02*
X136450384Y-100182500D01*
X137780384Y-101512500D02*
X136450384Y-101512500D01*
X139080384Y-95200000D02*
X136420384Y-95200000D01*
X139080384Y-97800000D02*
X136420384Y-97800000D01*
X139080384Y-97800000D02*
X139080384Y-95200000D01*
%TO.C,RV9*%
X158100000Y-105020000D02*
X158100000Y-107680000D01*
X160700000Y-105020000D02*
X158100000Y-105020000D01*
X160700000Y-105020000D02*
X160700000Y-107680000D01*
X160700000Y-107680000D02*
X158100000Y-107680000D01*
X164412500Y-106320000D02*
X164412500Y-107650000D01*
X164412500Y-107650000D02*
X163082500Y-107650000D01*
%TO.C,RV7*%
X142287500Y-105050000D02*
X143617500Y-105050000D01*
X142287500Y-106380000D02*
X142287500Y-105050000D01*
X146000000Y-105020000D02*
X148600000Y-105020000D01*
X146000000Y-107680000D02*
X146000000Y-105020000D01*
X146000000Y-107680000D02*
X148600000Y-107680000D01*
X148600000Y-107680000D02*
X148600000Y-105020000D01*
%TO.C,C1*%
X138970000Y-78085216D02*
X152130000Y-78085216D01*
X138970000Y-78125216D02*
X152130000Y-78125216D01*
X138970000Y-78165216D02*
X152130000Y-78165216D01*
X138971000Y-78005216D02*
X152129000Y-78005216D01*
X138971000Y-78045216D02*
X152129000Y-78045216D01*
X138973000Y-77965216D02*
X152127000Y-77965216D01*
X138974000Y-77925216D02*
X152126000Y-77925216D01*
X138975000Y-77885216D02*
X152125000Y-77885216D01*
X138977000Y-77845216D02*
X152123000Y-77845216D01*
X138979000Y-77805216D02*
X152121000Y-77805216D01*
X138982000Y-77765216D02*
X152118000Y-77765216D01*
X138984000Y-77725216D02*
X152116000Y-77725216D01*
X138987000Y-77685216D02*
X152113000Y-77685216D01*
X138990000Y-77645216D02*
X152110000Y-77645216D01*
X138993000Y-77605216D02*
X152107000Y-77605216D01*
X138997000Y-77565216D02*
X152103000Y-77565216D01*
X139001000Y-77525216D02*
X152099000Y-77525216D01*
X139005000Y-77485216D02*
X152095000Y-77485216D01*
X139009000Y-77444216D02*
X152091000Y-77444216D01*
X139013000Y-77404216D02*
X152087000Y-77404216D01*
X139018000Y-77364216D02*
X152082000Y-77364216D01*
X139023000Y-77324216D02*
X152077000Y-77324216D01*
X139028000Y-77284216D02*
X152072000Y-77284216D01*
X139034000Y-77244216D02*
X152066000Y-77244216D01*
X139039000Y-77204216D02*
X152061000Y-77204216D01*
X139045000Y-77164216D02*
X152055000Y-77164216D01*
X139052000Y-77124216D02*
X152048000Y-77124216D01*
X139058000Y-77084216D02*
X144110000Y-77084216D01*
X139065000Y-77044216D02*
X144110000Y-77044216D01*
X139072000Y-77004216D02*
X144110000Y-77004216D01*
X139079000Y-76964216D02*
X144110000Y-76964216D01*
X139087000Y-76924216D02*
X144110000Y-76924216D01*
X139094000Y-76884216D02*
X144110000Y-76884216D01*
X139102000Y-76844216D02*
X144110000Y-76844216D01*
X139111000Y-76804216D02*
X144110000Y-76804216D01*
X139119000Y-76764216D02*
X144110000Y-76764216D01*
X139128000Y-76724216D02*
X144110000Y-76724216D01*
X139137000Y-76684216D02*
X144110000Y-76684216D01*
X139146000Y-76644216D02*
X144110000Y-76644216D01*
X139156000Y-76604216D02*
X144110000Y-76604216D01*
X139166000Y-76564216D02*
X144110000Y-76564216D01*
X139176000Y-76524216D02*
X144110000Y-76524216D01*
X139186000Y-76484216D02*
X144110000Y-76484216D01*
X139197000Y-76444216D02*
X144110000Y-76444216D01*
X139208000Y-76404216D02*
X144110000Y-76404216D01*
X139219000Y-76364216D02*
X144110000Y-76364216D01*
X139230000Y-76324216D02*
X144110000Y-76324216D01*
X139242000Y-76284216D02*
X144110000Y-76284216D01*
X139254000Y-76244216D02*
X144110000Y-76244216D01*
X139266000Y-76204216D02*
X144110000Y-76204216D01*
X139279000Y-76164216D02*
X144110000Y-76164216D01*
X139292000Y-76124216D02*
X144110000Y-76124216D01*
X139305000Y-76084216D02*
X144110000Y-76084216D01*
X139318000Y-76044216D02*
X144110000Y-76044216D01*
X139332000Y-76004216D02*
X144110000Y-76004216D01*
X139346000Y-75964216D02*
X144110000Y-75964216D01*
X139360000Y-75924216D02*
X144110000Y-75924216D01*
X139375000Y-75884216D02*
X144110000Y-75884216D01*
X139389000Y-75844216D02*
X144110000Y-75844216D01*
X139404000Y-75804216D02*
X144110000Y-75804216D01*
X139420000Y-75764216D02*
X144110000Y-75764216D01*
X139436000Y-75724216D02*
X144110000Y-75724216D01*
X139452000Y-75684216D02*
X144110000Y-75684216D01*
X139468000Y-75644216D02*
X144110000Y-75644216D01*
X139485000Y-75604216D02*
X144110000Y-75604216D01*
X139501000Y-75564216D02*
X144110000Y-75564216D01*
X139519000Y-75524216D02*
X144110000Y-75524216D01*
X139536000Y-75484216D02*
X144110000Y-75484216D01*
X139554000Y-75444216D02*
X144110000Y-75444216D01*
X139572000Y-75404216D02*
X144110000Y-75404216D01*
X139591000Y-75364216D02*
X144110000Y-75364216D01*
X139610000Y-75324216D02*
X144110000Y-75324216D01*
X139629000Y-75284216D02*
X144110000Y-75284216D01*
X139648000Y-75244216D02*
X144110000Y-75244216D01*
X139668000Y-75204216D02*
X144110000Y-75204216D01*
X139688000Y-75164216D02*
X144110000Y-75164216D01*
X139709000Y-75124216D02*
X144110000Y-75124216D01*
X139730000Y-75084216D02*
X144110000Y-75084216D01*
X139751000Y-75044216D02*
X144110000Y-75044216D01*
X139772000Y-75004216D02*
X144110000Y-75004216D01*
X139794000Y-74964216D02*
X144110000Y-74964216D01*
X139817000Y-74924216D02*
X144110000Y-74924216D01*
X139839000Y-74884216D02*
X144110000Y-74884216D01*
X139862000Y-74844216D02*
X144110000Y-74844216D01*
X139886000Y-74804216D02*
X144110000Y-74804216D01*
X139909000Y-74764216D02*
X144110000Y-74764216D01*
X139933000Y-74724216D02*
X144110000Y-74724216D01*
X139958000Y-74684216D02*
X144110000Y-74684216D01*
X139983000Y-74644216D02*
X144110000Y-74644216D01*
X140008000Y-74604216D02*
X144110000Y-74604216D01*
X140034000Y-74564216D02*
X144110000Y-74564216D01*
X140060000Y-74524216D02*
X144110000Y-74524216D01*
X140087000Y-74484216D02*
X144110000Y-74484216D01*
X140114000Y-74444216D02*
X144110000Y-74444216D01*
X140141000Y-74404216D02*
X144110000Y-74404216D01*
X140169000Y-74364216D02*
X144110000Y-74364216D01*
X140197000Y-74324216D02*
X144110000Y-74324216D01*
X140226000Y-74284216D02*
X144110000Y-74284216D01*
X140255000Y-74244216D02*
X144110000Y-74244216D01*
X140285000Y-74204216D02*
X150815000Y-74204216D01*
X140315000Y-74164216D02*
X150785000Y-74164216D01*
X140345000Y-74124216D02*
X150755000Y-74124216D01*
X140376000Y-74084216D02*
X150724000Y-74084216D01*
X140408000Y-74044216D02*
X150692000Y-74044216D01*
X140440000Y-74004216D02*
X150660000Y-74004216D01*
X140472000Y-73964216D02*
X150628000Y-73964216D01*
X140506000Y-73924216D02*
X150594000Y-73924216D01*
X140539000Y-73884216D02*
X150561000Y-73884216D01*
X140573000Y-73844216D02*
X150527000Y-73844216D01*
X140608000Y-73804216D02*
X150492000Y-73804216D01*
X140643000Y-73764216D02*
X150457000Y-73764216D01*
X140679000Y-73724216D02*
X150421000Y-73724216D01*
X140716000Y-73684216D02*
X150384000Y-73684216D01*
X140753000Y-73644216D02*
X150347000Y-73644216D01*
X140790000Y-73604216D02*
X150310000Y-73604216D01*
X140829000Y-73564216D02*
X150271000Y-73564216D01*
X140868000Y-73524216D02*
X150232000Y-73524216D01*
X140907000Y-73484216D02*
X150193000Y-73484216D01*
X140948000Y-73444216D02*
X150152000Y-73444216D01*
X140989000Y-73404216D02*
X150111000Y-73404216D01*
X141031000Y-73364216D02*
X150069000Y-73364216D01*
X141073000Y-73324216D02*
X150027000Y-73324216D01*
X141116000Y-73284216D02*
X149984000Y-73284216D01*
X141160000Y-73244216D02*
X149940000Y-73244216D01*
X141185000Y-84599785D02*
X142485000Y-84599785D01*
X141205000Y-73204216D02*
X149895000Y-73204216D01*
X141251000Y-73164216D02*
X149849000Y-73164216D01*
X141297000Y-73124216D02*
X149803000Y-73124216D01*
X141345000Y-73084216D02*
X149755000Y-73084216D01*
X141393000Y-73044216D02*
X149707000Y-73044216D01*
X141442000Y-73004216D02*
X149658000Y-73004216D01*
X141493000Y-72964216D02*
X149607000Y-72964216D01*
X141544000Y-72924216D02*
X149556000Y-72924216D01*
X141596000Y-72884216D02*
X149504000Y-72884216D01*
X141650000Y-72844216D02*
X149450000Y-72844216D01*
X141704000Y-72804216D02*
X149396000Y-72804216D01*
X141760000Y-72764216D02*
X149340000Y-72764216D01*
X141817000Y-72724216D02*
X149283000Y-72724216D01*
X141835000Y-85249785D02*
X141835000Y-83949785D01*
X141875000Y-72684216D02*
X149225000Y-72684216D01*
X141935000Y-72644216D02*
X149165000Y-72644216D01*
X141996000Y-72604216D02*
X149104000Y-72604216D01*
X142059000Y-72564216D02*
X149041000Y-72564216D01*
X142123000Y-72524216D02*
X148977000Y-72524216D01*
X142189000Y-72484216D02*
X148911000Y-72484216D01*
X142257000Y-72444216D02*
X148843000Y-72444216D01*
X142327000Y-72404216D02*
X148773000Y-72404216D01*
X142398000Y-72364216D02*
X148702000Y-72364216D01*
X142472000Y-72324216D02*
X148628000Y-72324216D01*
X142548000Y-72284216D02*
X148552000Y-72284216D01*
X142627000Y-72244216D02*
X148473000Y-72244216D01*
X142708000Y-72204216D02*
X148392000Y-72204216D01*
X142792000Y-72164216D02*
X148308000Y-72164216D01*
X142880000Y-72124216D02*
X148220000Y-72124216D01*
X142971000Y-72084216D02*
X148129000Y-72084216D01*
X143066000Y-72044216D02*
X148034000Y-72044216D01*
X143165000Y-72004216D02*
X147935000Y-72004216D01*
X143269000Y-71964216D02*
X147831000Y-71964216D01*
X143379000Y-71924216D02*
X147721000Y-71924216D01*
X143495000Y-71884216D02*
X147605000Y-71884216D01*
X143619000Y-71844216D02*
X147481000Y-71844216D01*
X143752000Y-71804216D02*
X147348000Y-71804216D01*
X143897000Y-71764216D02*
X147203000Y-71764216D01*
X144056000Y-71724216D02*
X147044000Y-71724216D01*
X144235000Y-71684216D02*
X146865000Y-71684216D01*
X144443000Y-71644216D02*
X146657000Y-71644216D01*
X144700000Y-71604216D02*
X146400000Y-71604216D01*
X145075000Y-71564216D02*
X146025000Y-71564216D01*
X146990000Y-74244216D02*
X150845000Y-74244216D01*
X146990000Y-74284216D02*
X150874000Y-74284216D01*
X146990000Y-74324216D02*
X150903000Y-74324216D01*
X146990000Y-74364216D02*
X150931000Y-74364216D01*
X146990000Y-74404216D02*
X150959000Y-74404216D01*
X146990000Y-74444216D02*
X150986000Y-74444216D01*
X146990000Y-74484216D02*
X151013000Y-74484216D01*
X146990000Y-74524216D02*
X151040000Y-74524216D01*
X146990000Y-74564216D02*
X151066000Y-74564216D01*
X146990000Y-74604216D02*
X151092000Y-74604216D01*
X146990000Y-74644216D02*
X151117000Y-74644216D01*
X146990000Y-74684216D02*
X151142000Y-74684216D01*
X146990000Y-74724216D02*
X151167000Y-74724216D01*
X146990000Y-74764216D02*
X151191000Y-74764216D01*
X146990000Y-74804216D02*
X151214000Y-74804216D01*
X146990000Y-74844216D02*
X151238000Y-74844216D01*
X146990000Y-74884216D02*
X151261000Y-74884216D01*
X146990000Y-74924216D02*
X151283000Y-74924216D01*
X146990000Y-74964216D02*
X151306000Y-74964216D01*
X146990000Y-75004216D02*
X151328000Y-75004216D01*
X146990000Y-75044216D02*
X151349000Y-75044216D01*
X146990000Y-75084216D02*
X151370000Y-75084216D01*
X146990000Y-75124216D02*
X151391000Y-75124216D01*
X146990000Y-75164216D02*
X151412000Y-75164216D01*
X146990000Y-75204216D02*
X151432000Y-75204216D01*
X146990000Y-75244216D02*
X151452000Y-75244216D01*
X146990000Y-75284216D02*
X151471000Y-75284216D01*
X146990000Y-75324216D02*
X151490000Y-75324216D01*
X146990000Y-75364216D02*
X151509000Y-75364216D01*
X146990000Y-75404216D02*
X151528000Y-75404216D01*
X146990000Y-75444216D02*
X151546000Y-75444216D01*
X146990000Y-75484216D02*
X151564000Y-75484216D01*
X146990000Y-75524216D02*
X151581000Y-75524216D01*
X146990000Y-75564216D02*
X151599000Y-75564216D01*
X146990000Y-75604216D02*
X151615000Y-75604216D01*
X146990000Y-75644216D02*
X151632000Y-75644216D01*
X146990000Y-75684216D02*
X151648000Y-75684216D01*
X146990000Y-75724216D02*
X151664000Y-75724216D01*
X146990000Y-75764216D02*
X151680000Y-75764216D01*
X146990000Y-75804216D02*
X151696000Y-75804216D01*
X146990000Y-75844216D02*
X151711000Y-75844216D01*
X146990000Y-75884216D02*
X151725000Y-75884216D01*
X146990000Y-75924216D02*
X151740000Y-75924216D01*
X146990000Y-75964216D02*
X151754000Y-75964216D01*
X146990000Y-76004216D02*
X151768000Y-76004216D01*
X146990000Y-76044216D02*
X151782000Y-76044216D01*
X146990000Y-76084216D02*
X151795000Y-76084216D01*
X146990000Y-76124216D02*
X151808000Y-76124216D01*
X146990000Y-76164216D02*
X151821000Y-76164216D01*
X146990000Y-76204216D02*
X151834000Y-76204216D01*
X146990000Y-76244216D02*
X151846000Y-76244216D01*
X146990000Y-76284216D02*
X151858000Y-76284216D01*
X146990000Y-76324216D02*
X151870000Y-76324216D01*
X146990000Y-76364216D02*
X151881000Y-76364216D01*
X146990000Y-76404216D02*
X151892000Y-76404216D01*
X146990000Y-76444216D02*
X151903000Y-76444216D01*
X146990000Y-76484216D02*
X151914000Y-76484216D01*
X146990000Y-76524216D02*
X151924000Y-76524216D01*
X146990000Y-76564216D02*
X151934000Y-76564216D01*
X146990000Y-76604216D02*
X151944000Y-76604216D01*
X146990000Y-76644216D02*
X151954000Y-76644216D01*
X146990000Y-76684216D02*
X151963000Y-76684216D01*
X146990000Y-76724216D02*
X151972000Y-76724216D01*
X146990000Y-76764216D02*
X151981000Y-76764216D01*
X146990000Y-76804216D02*
X151989000Y-76804216D01*
X146990000Y-76844216D02*
X151998000Y-76844216D01*
X146990000Y-76884216D02*
X152006000Y-76884216D01*
X146990000Y-76924216D02*
X152013000Y-76924216D01*
X146990000Y-76964216D02*
X152021000Y-76964216D01*
X146990000Y-77004216D02*
X152028000Y-77004216D01*
X146990000Y-77044216D02*
X152035000Y-77044216D01*
X146990000Y-77084216D02*
X152042000Y-77084216D01*
X152170000Y-78165216D02*
G75*
G02*
X138930000Y-78165216I-6620000J0D01*
G01*
X138930000Y-78165216D02*
G75*
G02*
X152170000Y-78165216I6620000J0D01*
G01*
%TO.C,C3*%
X198430000Y-95330000D02*
X198430000Y-99870000D01*
X198445000Y-95330000D02*
X198430000Y-95330000D01*
X198445000Y-99870000D02*
X198430000Y-99870000D01*
X200570000Y-95330000D02*
X200555000Y-95330000D01*
X200570000Y-95330000D02*
X200570000Y-99870000D01*
X200570000Y-99870000D02*
X200555000Y-99870000D01*
%TO.C,R3*%
X153105000Y-81620000D02*
X153105000Y-85460000D01*
X153105000Y-85460000D02*
X154945000Y-85460000D01*
X154025000Y-80670000D02*
X154025000Y-81620000D01*
X154025000Y-86410000D02*
X154025000Y-85460000D01*
X154945000Y-81620000D02*
X153105000Y-81620000D01*
X154945000Y-85460000D02*
X154945000Y-81620000D01*
%TO.C,R10*%
X183693197Y-69993842D02*
X183693197Y-73833842D01*
X183693197Y-73833842D02*
X185533197Y-73833842D01*
X184613197Y-69043842D02*
X184613197Y-69993842D01*
X184613197Y-74783842D02*
X184613197Y-73833842D01*
X185533197Y-69993842D02*
X183693197Y-69993842D01*
X185533197Y-73833842D02*
X185533197Y-69993842D01*
%TO.C,R5*%
X146570000Y-101000000D02*
X147520000Y-101000000D01*
X147520000Y-100080000D02*
X147520000Y-101920000D01*
X147520000Y-101920000D02*
X151360000Y-101920000D01*
X151360000Y-100080000D02*
X147520000Y-100080000D01*
X151360000Y-101920000D02*
X151360000Y-100080000D01*
X152310000Y-101000000D02*
X151360000Y-101000000D01*
%TO.C,C11*%
X189145225Y-72775000D02*
X189645225Y-72775000D01*
X189395225Y-72525000D02*
X189395225Y-73025000D01*
X191950000Y-71670000D02*
X191950000Y-76830000D01*
X191990000Y-71670000D02*
X191990000Y-76830000D01*
X192030000Y-71671000D02*
X192030000Y-76829000D01*
X192070000Y-71672000D02*
X192070000Y-76828000D01*
X192110000Y-71674000D02*
X192110000Y-76826000D01*
X192150000Y-71677000D02*
X192150000Y-76823000D01*
X192190000Y-71681000D02*
X192190000Y-73210000D01*
X192190000Y-75290000D02*
X192190000Y-76819000D01*
X192230000Y-71685000D02*
X192230000Y-73210000D01*
X192230000Y-75290000D02*
X192230000Y-76815000D01*
X192270000Y-71689000D02*
X192270000Y-73210000D01*
X192270000Y-75290000D02*
X192270000Y-76811000D01*
X192310000Y-71694000D02*
X192310000Y-73210000D01*
X192310000Y-75290000D02*
X192310000Y-76806000D01*
X192350000Y-71700000D02*
X192350000Y-73210000D01*
X192350000Y-75290000D02*
X192350000Y-76800000D01*
X192390000Y-71707000D02*
X192390000Y-73210000D01*
X192390000Y-75290000D02*
X192390000Y-76793000D01*
X192430000Y-71714000D02*
X192430000Y-73210000D01*
X192430000Y-75290000D02*
X192430000Y-76786000D01*
X192470000Y-71722000D02*
X192470000Y-73210000D01*
X192470000Y-75290000D02*
X192470000Y-76778000D01*
X192510000Y-71730000D02*
X192510000Y-73210000D01*
X192510000Y-75290000D02*
X192510000Y-76770000D01*
X192550000Y-71739000D02*
X192550000Y-73210000D01*
X192550000Y-75290000D02*
X192550000Y-76761000D01*
X192590000Y-71749000D02*
X192590000Y-73210000D01*
X192590000Y-75290000D02*
X192590000Y-76751000D01*
X192630000Y-71759000D02*
X192630000Y-73210000D01*
X192630000Y-75290000D02*
X192630000Y-76741000D01*
X192671000Y-71770000D02*
X192671000Y-73210000D01*
X192671000Y-75290000D02*
X192671000Y-76730000D01*
X192711000Y-71782000D02*
X192711000Y-73210000D01*
X192711000Y-75290000D02*
X192711000Y-76718000D01*
X192751000Y-71795000D02*
X192751000Y-73210000D01*
X192751000Y-75290000D02*
X192751000Y-76705000D01*
X192791000Y-71808000D02*
X192791000Y-73210000D01*
X192791000Y-75290000D02*
X192791000Y-76692000D01*
X192831000Y-71822000D02*
X192831000Y-73210000D01*
X192831000Y-75290000D02*
X192831000Y-76678000D01*
X192871000Y-71836000D02*
X192871000Y-73210000D01*
X192871000Y-75290000D02*
X192871000Y-76664000D01*
X192911000Y-71852000D02*
X192911000Y-73210000D01*
X192911000Y-75290000D02*
X192911000Y-76648000D01*
X192951000Y-71868000D02*
X192951000Y-73210000D01*
X192951000Y-75290000D02*
X192951000Y-76632000D01*
X192991000Y-71885000D02*
X192991000Y-73210000D01*
X192991000Y-75290000D02*
X192991000Y-76615000D01*
X193031000Y-71902000D02*
X193031000Y-73210000D01*
X193031000Y-75290000D02*
X193031000Y-76598000D01*
X193071000Y-71921000D02*
X193071000Y-73210000D01*
X193071000Y-75290000D02*
X193071000Y-76579000D01*
X193111000Y-71940000D02*
X193111000Y-73210000D01*
X193111000Y-75290000D02*
X193111000Y-76560000D01*
X193151000Y-71960000D02*
X193151000Y-73210000D01*
X193151000Y-75290000D02*
X193151000Y-76540000D01*
X193191000Y-71982000D02*
X193191000Y-73210000D01*
X193191000Y-75290000D02*
X193191000Y-76518000D01*
X193231000Y-72003000D02*
X193231000Y-73210000D01*
X193231000Y-75290000D02*
X193231000Y-76497000D01*
X193271000Y-72026000D02*
X193271000Y-73210000D01*
X193271000Y-75290000D02*
X193271000Y-76474000D01*
X193311000Y-72050000D02*
X193311000Y-73210000D01*
X193311000Y-75290000D02*
X193311000Y-76450000D01*
X193351000Y-72075000D02*
X193351000Y-73210000D01*
X193351000Y-75290000D02*
X193351000Y-76425000D01*
X193391000Y-72101000D02*
X193391000Y-73210000D01*
X193391000Y-75290000D02*
X193391000Y-76399000D01*
X193431000Y-72128000D02*
X193431000Y-73210000D01*
X193431000Y-75290000D02*
X193431000Y-76372000D01*
X193471000Y-72155000D02*
X193471000Y-73210000D01*
X193471000Y-75290000D02*
X193471000Y-76345000D01*
X193511000Y-72185000D02*
X193511000Y-73210000D01*
X193511000Y-75290000D02*
X193511000Y-76315000D01*
X193551000Y-72215000D02*
X193551000Y-73210000D01*
X193551000Y-75290000D02*
X193551000Y-76285000D01*
X193591000Y-72246000D02*
X193591000Y-73210000D01*
X193591000Y-75290000D02*
X193591000Y-76254000D01*
X193631000Y-72279000D02*
X193631000Y-73210000D01*
X193631000Y-75290000D02*
X193631000Y-76221000D01*
X193671000Y-72313000D02*
X193671000Y-73210000D01*
X193671000Y-75290000D02*
X193671000Y-76187000D01*
X193711000Y-72349000D02*
X193711000Y-73210000D01*
X193711000Y-75290000D02*
X193711000Y-76151000D01*
X193751000Y-72386000D02*
X193751000Y-73210000D01*
X193751000Y-75290000D02*
X193751000Y-76114000D01*
X193791000Y-72424000D02*
X193791000Y-73210000D01*
X193791000Y-75290000D02*
X193791000Y-76076000D01*
X193831000Y-72465000D02*
X193831000Y-73210000D01*
X193831000Y-75290000D02*
X193831000Y-76035000D01*
X193871000Y-72507000D02*
X193871000Y-73210000D01*
X193871000Y-75290000D02*
X193871000Y-75993000D01*
X193911000Y-72551000D02*
X193911000Y-73210000D01*
X193911000Y-75290000D02*
X193911000Y-75949000D01*
X193951000Y-72597000D02*
X193951000Y-73210000D01*
X193951000Y-75290000D02*
X193951000Y-75903000D01*
X193991000Y-72645000D02*
X193991000Y-73210000D01*
X193991000Y-75290000D02*
X193991000Y-75855000D01*
X194031000Y-72696000D02*
X194031000Y-73210000D01*
X194031000Y-75290000D02*
X194031000Y-75804000D01*
X194071000Y-72750000D02*
X194071000Y-73210000D01*
X194071000Y-75290000D02*
X194071000Y-75750000D01*
X194111000Y-72807000D02*
X194111000Y-73210000D01*
X194111000Y-75290000D02*
X194111000Y-75693000D01*
X194151000Y-72867000D02*
X194151000Y-73210000D01*
X194151000Y-75290000D02*
X194151000Y-75633000D01*
X194191000Y-72931000D02*
X194191000Y-73210000D01*
X194191000Y-75290000D02*
X194191000Y-75569000D01*
X194231000Y-72999000D02*
X194231000Y-73210000D01*
X194231000Y-75290000D02*
X194231000Y-75501000D01*
X194271000Y-73072000D02*
X194271000Y-75428000D01*
X194311000Y-73152000D02*
X194311000Y-75348000D01*
X194351000Y-73239000D02*
X194351000Y-75261000D01*
X194391000Y-73335000D02*
X194391000Y-75165000D01*
X194431000Y-73445000D02*
X194431000Y-75055000D01*
X194471000Y-73573000D02*
X194471000Y-74927000D01*
X194511000Y-73732000D02*
X194511000Y-74768000D01*
X194551000Y-73966000D02*
X194551000Y-74534000D01*
X194570000Y-74250000D02*
G75*
G02*
X189330000Y-74250000I-2620000J0D01*
G01*
X189330000Y-74250000D02*
G75*
G02*
X194570000Y-74250000I2620000J0D01*
G01*
%TO.C,SW1*%
X171400000Y-88200000D02*
X171400000Y-81500000D01*
X173600000Y-81500000D02*
X171400000Y-81500000D01*
X173600000Y-88200000D02*
X171400000Y-88200000D01*
X173600000Y-88200000D02*
X173600000Y-81500000D01*
%TO.C,D3*%
X166430000Y-81220000D02*
X166430000Y-85460000D01*
X166430000Y-84620000D02*
X168670000Y-84620000D01*
X166430000Y-84740000D02*
X168670000Y-84740000D01*
X166430000Y-84860000D02*
X168670000Y-84860000D01*
X166430000Y-85460000D02*
X168670000Y-85460000D01*
X167550000Y-80570000D02*
X167550000Y-81220000D01*
X167550000Y-86110000D02*
X167550000Y-85460000D01*
X168670000Y-81220000D02*
X166430000Y-81220000D01*
X168670000Y-85460000D02*
X168670000Y-81220000D01*
%TO.C,C6*%
X151070000Y-73110000D02*
X156230000Y-73110000D01*
X151070000Y-73150000D02*
X156230000Y-73150000D01*
X151071000Y-73070000D02*
X156229000Y-73070000D01*
X151072000Y-73030000D02*
X156228000Y-73030000D01*
X151074000Y-72990000D02*
X156226000Y-72990000D01*
X151077000Y-72950000D02*
X156223000Y-72950000D01*
X151081000Y-72910000D02*
X152610000Y-72910000D01*
X151085000Y-72870000D02*
X152610000Y-72870000D01*
X151089000Y-72830000D02*
X152610000Y-72830000D01*
X151094000Y-72790000D02*
X152610000Y-72790000D01*
X151100000Y-72750000D02*
X152610000Y-72750000D01*
X151107000Y-72710000D02*
X152610000Y-72710000D01*
X151114000Y-72670000D02*
X152610000Y-72670000D01*
X151122000Y-72630000D02*
X152610000Y-72630000D01*
X151130000Y-72590000D02*
X152610000Y-72590000D01*
X151139000Y-72550000D02*
X152610000Y-72550000D01*
X151149000Y-72510000D02*
X152610000Y-72510000D01*
X151159000Y-72470000D02*
X152610000Y-72470000D01*
X151170000Y-72429000D02*
X152610000Y-72429000D01*
X151182000Y-72389000D02*
X152610000Y-72389000D01*
X151195000Y-72349000D02*
X152610000Y-72349000D01*
X151208000Y-72309000D02*
X152610000Y-72309000D01*
X151222000Y-72269000D02*
X152610000Y-72269000D01*
X151236000Y-72229000D02*
X152610000Y-72229000D01*
X151252000Y-72189000D02*
X152610000Y-72189000D01*
X151268000Y-72149000D02*
X152610000Y-72149000D01*
X151285000Y-72109000D02*
X152610000Y-72109000D01*
X151302000Y-72069000D02*
X152610000Y-72069000D01*
X151321000Y-72029000D02*
X152610000Y-72029000D01*
X151340000Y-71989000D02*
X152610000Y-71989000D01*
X151360000Y-71949000D02*
X152610000Y-71949000D01*
X151382000Y-71909000D02*
X152610000Y-71909000D01*
X151403000Y-71869000D02*
X152610000Y-71869000D01*
X151426000Y-71829000D02*
X152610000Y-71829000D01*
X151450000Y-71789000D02*
X152610000Y-71789000D01*
X151475000Y-71749000D02*
X152610000Y-71749000D01*
X151501000Y-71709000D02*
X152610000Y-71709000D01*
X151528000Y-71669000D02*
X152610000Y-71669000D01*
X151555000Y-71629000D02*
X152610000Y-71629000D01*
X151585000Y-71589000D02*
X152610000Y-71589000D01*
X151615000Y-71549000D02*
X152610000Y-71549000D01*
X151646000Y-71509000D02*
X152610000Y-71509000D01*
X151679000Y-71469000D02*
X152610000Y-71469000D01*
X151713000Y-71429000D02*
X152610000Y-71429000D01*
X151749000Y-71389000D02*
X152610000Y-71389000D01*
X151786000Y-71349000D02*
X152610000Y-71349000D01*
X151824000Y-71309000D02*
X152610000Y-71309000D01*
X151865000Y-71269000D02*
X152610000Y-71269000D01*
X151907000Y-71229000D02*
X152610000Y-71229000D01*
X151925000Y-75704775D02*
X152425000Y-75704775D01*
X151951000Y-71189000D02*
X152610000Y-71189000D01*
X151997000Y-71149000D02*
X152610000Y-71149000D01*
X152045000Y-71109000D02*
X152610000Y-71109000D01*
X152096000Y-71069000D02*
X152610000Y-71069000D01*
X152150000Y-71029000D02*
X152610000Y-71029000D01*
X152175000Y-75954775D02*
X152175000Y-75454775D01*
X152207000Y-70989000D02*
X152610000Y-70989000D01*
X152267000Y-70949000D02*
X152610000Y-70949000D01*
X152331000Y-70909000D02*
X152610000Y-70909000D01*
X152399000Y-70869000D02*
X152610000Y-70869000D01*
X152472000Y-70829000D02*
X154828000Y-70829000D01*
X152552000Y-70789000D02*
X154748000Y-70789000D01*
X152639000Y-70749000D02*
X154661000Y-70749000D01*
X152735000Y-70709000D02*
X154565000Y-70709000D01*
X152845000Y-70669000D02*
X154455000Y-70669000D01*
X152973000Y-70629000D02*
X154327000Y-70629000D01*
X153132000Y-70589000D02*
X154168000Y-70589000D01*
X153366000Y-70549000D02*
X153934000Y-70549000D01*
X154690000Y-70869000D02*
X154901000Y-70869000D01*
X154690000Y-70909000D02*
X154969000Y-70909000D01*
X154690000Y-70949000D02*
X155033000Y-70949000D01*
X154690000Y-70989000D02*
X155093000Y-70989000D01*
X154690000Y-71029000D02*
X155150000Y-71029000D01*
X154690000Y-71069000D02*
X155204000Y-71069000D01*
X154690000Y-71109000D02*
X155255000Y-71109000D01*
X154690000Y-71149000D02*
X155303000Y-71149000D01*
X154690000Y-71189000D02*
X155349000Y-71189000D01*
X154690000Y-71229000D02*
X155393000Y-71229000D01*
X154690000Y-71269000D02*
X155435000Y-71269000D01*
X154690000Y-71309000D02*
X155476000Y-71309000D01*
X154690000Y-71349000D02*
X155514000Y-71349000D01*
X154690000Y-71389000D02*
X155551000Y-71389000D01*
X154690000Y-71429000D02*
X155587000Y-71429000D01*
X154690000Y-71469000D02*
X155621000Y-71469000D01*
X154690000Y-71509000D02*
X155654000Y-71509000D01*
X154690000Y-71549000D02*
X155685000Y-71549000D01*
X154690000Y-71589000D02*
X155715000Y-71589000D01*
X154690000Y-71629000D02*
X155745000Y-71629000D01*
X154690000Y-71669000D02*
X155772000Y-71669000D01*
X154690000Y-71709000D02*
X155799000Y-71709000D01*
X154690000Y-71749000D02*
X155825000Y-71749000D01*
X154690000Y-71789000D02*
X155850000Y-71789000D01*
X154690000Y-71829000D02*
X155874000Y-71829000D01*
X154690000Y-71869000D02*
X155897000Y-71869000D01*
X154690000Y-71909000D02*
X155918000Y-71909000D01*
X154690000Y-71949000D02*
X155940000Y-71949000D01*
X154690000Y-71989000D02*
X155960000Y-71989000D01*
X154690000Y-72029000D02*
X155979000Y-72029000D01*
X154690000Y-72069000D02*
X155998000Y-72069000D01*
X154690000Y-72109000D02*
X156015000Y-72109000D01*
X154690000Y-72149000D02*
X156032000Y-72149000D01*
X154690000Y-72189000D02*
X156048000Y-72189000D01*
X154690000Y-72229000D02*
X156064000Y-72229000D01*
X154690000Y-72269000D02*
X156078000Y-72269000D01*
X154690000Y-72309000D02*
X156092000Y-72309000D01*
X154690000Y-72349000D02*
X156105000Y-72349000D01*
X154690000Y-72389000D02*
X156118000Y-72389000D01*
X154690000Y-72429000D02*
X156130000Y-72429000D01*
X154690000Y-72470000D02*
X156141000Y-72470000D01*
X154690000Y-72510000D02*
X156151000Y-72510000D01*
X154690000Y-72550000D02*
X156161000Y-72550000D01*
X154690000Y-72590000D02*
X156170000Y-72590000D01*
X154690000Y-72630000D02*
X156178000Y-72630000D01*
X154690000Y-72670000D02*
X156186000Y-72670000D01*
X154690000Y-72710000D02*
X156193000Y-72710000D01*
X154690000Y-72750000D02*
X156200000Y-72750000D01*
X154690000Y-72790000D02*
X156206000Y-72790000D01*
X154690000Y-72830000D02*
X156211000Y-72830000D01*
X154690000Y-72870000D02*
X156215000Y-72870000D01*
X154690000Y-72910000D02*
X156219000Y-72910000D01*
X156270000Y-73150000D02*
G75*
G02*
X151030000Y-73150000I-2620000J0D01*
G01*
X151030000Y-73150000D02*
G75*
G02*
X156270000Y-73150000I2620000J0D01*
G01*
%TO.C,D4*%
X155455000Y-81320000D02*
X155455000Y-85560000D01*
X155455000Y-84720000D02*
X157695000Y-84720000D01*
X155455000Y-84840000D02*
X157695000Y-84840000D01*
X155455000Y-84960000D02*
X157695000Y-84960000D01*
X155455000Y-85560000D02*
X157695000Y-85560000D01*
X156575000Y-80670000D02*
X156575000Y-81320000D01*
X156575000Y-86210000D02*
X156575000Y-85560000D01*
X157695000Y-81320000D02*
X155455000Y-81320000D01*
X157695000Y-85560000D02*
X157695000Y-81320000D01*
%TO.C,RV8*%
X150187500Y-105000000D02*
X151517500Y-105000000D01*
X150187500Y-106330000D02*
X150187500Y-105000000D01*
X153900000Y-104970000D02*
X156500000Y-104970000D01*
X153900000Y-107630000D02*
X153900000Y-104970000D01*
X153900000Y-107630000D02*
X156500000Y-107630000D01*
X156500000Y-107630000D02*
X156500000Y-104970000D01*
%TO.C,RV5*%
X163687500Y-67100000D02*
X165017500Y-67100000D01*
X163687500Y-68430000D02*
X163687500Y-67100000D01*
X167400000Y-67070000D02*
X170000000Y-67070000D01*
X167400000Y-69730000D02*
X167400000Y-67070000D01*
X167400000Y-69730000D02*
X170000000Y-69730000D01*
X170000000Y-69730000D02*
X170000000Y-67070000D01*
%TO.C,D1*%
X136180000Y-76780000D02*
X136180000Y-81020000D01*
X136180000Y-80180000D02*
X138420000Y-80180000D01*
X136180000Y-80300000D02*
X138420000Y-80300000D01*
X136180000Y-80420000D02*
X138420000Y-80420000D01*
X136180000Y-81020000D02*
X138420000Y-81020000D01*
X137300000Y-76130000D02*
X137300000Y-76780000D01*
X137300000Y-81670000D02*
X137300000Y-81020000D01*
X138420000Y-76780000D02*
X136180000Y-76780000D01*
X138420000Y-81020000D02*
X138420000Y-76780000D01*
%TO.C,RV4*%
X171287500Y-67100000D02*
X172617500Y-67100000D01*
X171287500Y-68430000D02*
X171287500Y-67100000D01*
X175000000Y-67070000D02*
X177600000Y-67070000D01*
X175000000Y-69730000D02*
X175000000Y-67070000D01*
X175000000Y-69730000D02*
X177600000Y-69730000D01*
X177600000Y-69730000D02*
X177600000Y-67070000D01*
%TO.C,R7*%
X170630000Y-76200000D02*
X171580000Y-76200000D01*
X171580000Y-75280000D02*
X171580000Y-77120000D01*
X171580000Y-77120000D02*
X175420000Y-77120000D01*
X175420000Y-75280000D02*
X171580000Y-75280000D01*
X175420000Y-77120000D02*
X175420000Y-75280000D01*
X176370000Y-76200000D02*
X175420000Y-76200000D01*
%TO.C,RV6*%
X155750000Y-67020000D02*
X155750000Y-69680000D01*
X158350000Y-67020000D02*
X155750000Y-67020000D01*
X158350000Y-67020000D02*
X158350000Y-69680000D01*
X158350000Y-69680000D02*
X155750000Y-69680000D01*
X162062500Y-68320000D02*
X162062500Y-69650000D01*
X162062500Y-69650000D02*
X160732500Y-69650000D01*
%TO.C,C4*%
X197830000Y-79230000D02*
X197830000Y-83770000D01*
X197845000Y-79230000D02*
X197830000Y-79230000D01*
X197845000Y-83770000D02*
X197830000Y-83770000D01*
X199970000Y-79230000D02*
X199955000Y-79230000D01*
X199970000Y-79230000D02*
X199970000Y-83770000D01*
X199970000Y-83770000D02*
X199955000Y-83770000D01*
%TO.C,R11*%
X186193197Y-69993842D02*
X186193197Y-73833842D01*
X186193197Y-73833842D02*
X188033197Y-73833842D01*
X187113197Y-69043842D02*
X187113197Y-69993842D01*
X187113197Y-74783842D02*
X187113197Y-73833842D01*
X188033197Y-69993842D02*
X186193197Y-69993842D01*
X188033197Y-73833842D02*
X188033197Y-69993842D01*
%TO.C,C7*%
X146170000Y-69110000D02*
X151330000Y-69110000D01*
X146170000Y-69150000D02*
X151330000Y-69150000D01*
X146171000Y-69070000D02*
X151329000Y-69070000D01*
X146172000Y-69030000D02*
X151328000Y-69030000D01*
X146174000Y-68990000D02*
X151326000Y-68990000D01*
X146177000Y-68950000D02*
X151323000Y-68950000D01*
X146181000Y-68910000D02*
X147710000Y-68910000D01*
X146185000Y-68870000D02*
X147710000Y-68870000D01*
X146189000Y-68830000D02*
X147710000Y-68830000D01*
X146194000Y-68790000D02*
X147710000Y-68790000D01*
X146200000Y-68750000D02*
X147710000Y-68750000D01*
X146207000Y-68710000D02*
X147710000Y-68710000D01*
X146214000Y-68670000D02*
X147710000Y-68670000D01*
X146222000Y-68630000D02*
X147710000Y-68630000D01*
X146230000Y-68590000D02*
X147710000Y-68590000D01*
X146239000Y-68550000D02*
X147710000Y-68550000D01*
X146249000Y-68510000D02*
X147710000Y-68510000D01*
X146259000Y-68470000D02*
X147710000Y-68470000D01*
X146270000Y-68429000D02*
X147710000Y-68429000D01*
X146282000Y-68389000D02*
X147710000Y-68389000D01*
X146295000Y-68349000D02*
X147710000Y-68349000D01*
X146308000Y-68309000D02*
X147710000Y-68309000D01*
X146322000Y-68269000D02*
X147710000Y-68269000D01*
X146336000Y-68229000D02*
X147710000Y-68229000D01*
X146352000Y-68189000D02*
X147710000Y-68189000D01*
X146368000Y-68149000D02*
X147710000Y-68149000D01*
X146385000Y-68109000D02*
X147710000Y-68109000D01*
X146402000Y-68069000D02*
X147710000Y-68069000D01*
X146421000Y-68029000D02*
X147710000Y-68029000D01*
X146440000Y-67989000D02*
X147710000Y-67989000D01*
X146460000Y-67949000D02*
X147710000Y-67949000D01*
X146482000Y-67909000D02*
X147710000Y-67909000D01*
X146503000Y-67869000D02*
X147710000Y-67869000D01*
X146526000Y-67829000D02*
X147710000Y-67829000D01*
X146550000Y-67789000D02*
X147710000Y-67789000D01*
X146575000Y-67749000D02*
X147710000Y-67749000D01*
X146601000Y-67709000D02*
X147710000Y-67709000D01*
X146628000Y-67669000D02*
X147710000Y-67669000D01*
X146655000Y-67629000D02*
X147710000Y-67629000D01*
X146685000Y-67589000D02*
X147710000Y-67589000D01*
X146715000Y-67549000D02*
X147710000Y-67549000D01*
X146746000Y-67509000D02*
X147710000Y-67509000D01*
X146779000Y-67469000D02*
X147710000Y-67469000D01*
X146813000Y-67429000D02*
X147710000Y-67429000D01*
X146849000Y-67389000D02*
X147710000Y-67389000D01*
X146886000Y-67349000D02*
X147710000Y-67349000D01*
X146924000Y-67309000D02*
X147710000Y-67309000D01*
X146965000Y-67269000D02*
X147710000Y-67269000D01*
X147007000Y-67229000D02*
X147710000Y-67229000D01*
X147025000Y-71704775D02*
X147525000Y-71704775D01*
X147051000Y-67189000D02*
X147710000Y-67189000D01*
X147097000Y-67149000D02*
X147710000Y-67149000D01*
X147145000Y-67109000D02*
X147710000Y-67109000D01*
X147196000Y-67069000D02*
X147710000Y-67069000D01*
X147250000Y-67029000D02*
X147710000Y-67029000D01*
X147275000Y-71954775D02*
X147275000Y-71454775D01*
X147307000Y-66989000D02*
X147710000Y-66989000D01*
X147367000Y-66949000D02*
X147710000Y-66949000D01*
X147431000Y-66909000D02*
X147710000Y-66909000D01*
X147499000Y-66869000D02*
X147710000Y-66869000D01*
X147572000Y-66829000D02*
X149928000Y-66829000D01*
X147652000Y-66789000D02*
X149848000Y-66789000D01*
X147739000Y-66749000D02*
X149761000Y-66749000D01*
X147835000Y-66709000D02*
X149665000Y-66709000D01*
X147945000Y-66669000D02*
X149555000Y-66669000D01*
X148073000Y-66629000D02*
X149427000Y-66629000D01*
X148232000Y-66589000D02*
X149268000Y-66589000D01*
X148466000Y-66549000D02*
X149034000Y-66549000D01*
X149790000Y-66869000D02*
X150001000Y-66869000D01*
X149790000Y-66909000D02*
X150069000Y-66909000D01*
X149790000Y-66949000D02*
X150133000Y-66949000D01*
X149790000Y-66989000D02*
X150193000Y-66989000D01*
X149790000Y-67029000D02*
X150250000Y-67029000D01*
X149790000Y-67069000D02*
X150304000Y-67069000D01*
X149790000Y-67109000D02*
X150355000Y-67109000D01*
X149790000Y-67149000D02*
X150403000Y-67149000D01*
X149790000Y-67189000D02*
X150449000Y-67189000D01*
X149790000Y-67229000D02*
X150493000Y-67229000D01*
X149790000Y-67269000D02*
X150535000Y-67269000D01*
X149790000Y-67309000D02*
X150576000Y-67309000D01*
X149790000Y-67349000D02*
X150614000Y-67349000D01*
X149790000Y-67389000D02*
X150651000Y-67389000D01*
X149790000Y-67429000D02*
X150687000Y-67429000D01*
X149790000Y-67469000D02*
X150721000Y-67469000D01*
X149790000Y-67509000D02*
X150754000Y-67509000D01*
X149790000Y-67549000D02*
X150785000Y-67549000D01*
X149790000Y-67589000D02*
X150815000Y-67589000D01*
X149790000Y-67629000D02*
X150845000Y-67629000D01*
X149790000Y-67669000D02*
X150872000Y-67669000D01*
X149790000Y-67709000D02*
X150899000Y-67709000D01*
X149790000Y-67749000D02*
X150925000Y-67749000D01*
X149790000Y-67789000D02*
X150950000Y-67789000D01*
X149790000Y-67829000D02*
X150974000Y-67829000D01*
X149790000Y-67869000D02*
X150997000Y-67869000D01*
X149790000Y-67909000D02*
X151018000Y-67909000D01*
X149790000Y-67949000D02*
X151040000Y-67949000D01*
X149790000Y-67989000D02*
X151060000Y-67989000D01*
X149790000Y-68029000D02*
X151079000Y-68029000D01*
X149790000Y-68069000D02*
X151098000Y-68069000D01*
X149790000Y-68109000D02*
X151115000Y-68109000D01*
X149790000Y-68149000D02*
X151132000Y-68149000D01*
X149790000Y-68189000D02*
X151148000Y-68189000D01*
X149790000Y-68229000D02*
X151164000Y-68229000D01*
X149790000Y-68269000D02*
X151178000Y-68269000D01*
X149790000Y-68309000D02*
X151192000Y-68309000D01*
X149790000Y-68349000D02*
X151205000Y-68349000D01*
X149790000Y-68389000D02*
X151218000Y-68389000D01*
X149790000Y-68429000D02*
X151230000Y-68429000D01*
X149790000Y-68470000D02*
X151241000Y-68470000D01*
X149790000Y-68510000D02*
X151251000Y-68510000D01*
X149790000Y-68550000D02*
X151261000Y-68550000D01*
X149790000Y-68590000D02*
X151270000Y-68590000D01*
X149790000Y-68630000D02*
X151278000Y-68630000D01*
X149790000Y-68670000D02*
X151286000Y-68670000D01*
X149790000Y-68710000D02*
X151293000Y-68710000D01*
X149790000Y-68750000D02*
X151300000Y-68750000D01*
X149790000Y-68790000D02*
X151306000Y-68790000D01*
X149790000Y-68830000D02*
X151311000Y-68830000D01*
X149790000Y-68870000D02*
X151315000Y-68870000D01*
X149790000Y-68910000D02*
X151319000Y-68910000D01*
X151370000Y-69150000D02*
G75*
G02*
X146130000Y-69150000I-2620000J0D01*
G01*
X146130000Y-69150000D02*
G75*
G02*
X151370000Y-69150000I2620000J0D01*
G01*
%TO.C,R2*%
X158205000Y-81620000D02*
X158205000Y-85460000D01*
X158205000Y-85460000D02*
X160045000Y-85460000D01*
X159125000Y-80670000D02*
X159125000Y-81620000D01*
X159125000Y-86410000D02*
X159125000Y-85460000D01*
X160045000Y-81620000D02*
X158205000Y-81620000D01*
X160045000Y-85460000D02*
X160045000Y-81620000D01*
%TO.C,RV1*%
X136040000Y-85040000D02*
X136240000Y-85040000D01*
X136040000Y-86460000D02*
X136040000Y-85040000D01*
X136040000Y-91460000D02*
X136040000Y-90040000D01*
X136040000Y-91460000D02*
X136240000Y-91460000D01*
X136240000Y-84940000D02*
X136930000Y-84940000D01*
X136240000Y-85040000D02*
X136240000Y-84940000D01*
X136240000Y-86460000D02*
X136040000Y-86460000D01*
X136240000Y-90040000D02*
X136040000Y-90040000D01*
X136240000Y-90040000D02*
X136240000Y-86460000D01*
X136240000Y-91460000D02*
X136240000Y-91560000D01*
X136240000Y-91560000D02*
X136490000Y-91560000D01*
X137970000Y-84940000D02*
X141950000Y-84940000D01*
X141950000Y-91560000D02*
X138410000Y-91560000D01*
X143260000Y-86250000D02*
X143260000Y-87740000D01*
X143260000Y-88760000D02*
X143260000Y-90250000D01*
X141950000Y-84940000D02*
G75*
G02*
X143260000Y-86250000I0J-1310000D01*
G01*
X143260000Y-90250000D02*
G75*
G02*
X141950000Y-91560000I-1310000J0D01*
G01*
%TO.C,SW2*%
X171087500Y-96100000D02*
X171087500Y-89000000D01*
X173287500Y-89000000D02*
X171087500Y-89000000D01*
X173287500Y-96100000D02*
X171087500Y-96100000D01*
X173287500Y-96100000D02*
X173287500Y-89000000D01*
%TO.C,C9*%
X143880000Y-88580000D02*
X143895000Y-88580000D01*
X143880000Y-93120000D02*
X143880000Y-88580000D01*
X143880000Y-93120000D02*
X143895000Y-93120000D01*
X146005000Y-88580000D02*
X146020000Y-88580000D01*
X146005000Y-93120000D02*
X146020000Y-93120000D01*
X146020000Y-93120000D02*
X146020000Y-88580000D01*
%TO.C,U1-40106*%
X149470000Y-91440000D02*
X149470000Y-92690000D01*
X149470000Y-94690000D02*
X149470000Y-95940000D01*
X149470000Y-95940000D02*
X167370000Y-95940000D01*
X167370000Y-91440000D02*
X149470000Y-91440000D01*
X167370000Y-95940000D02*
X167370000Y-91440000D01*
X149410000Y-98940000D02*
X167430000Y-98940000D01*
X167430000Y-88440000D01*
X149410000Y-88440000D01*
X149410000Y-98940000D01*
X149470000Y-92690000D02*
G75*
G02*
X149470000Y-94690000I0J-1000000D01*
G01*
%TO.C,D2*%
X160455000Y-81320000D02*
X160455000Y-85560000D01*
X160455000Y-84720000D02*
X162695000Y-84720000D01*
X160455000Y-84840000D02*
X162695000Y-84840000D01*
X160455000Y-84960000D02*
X162695000Y-84960000D01*
X160455000Y-85560000D02*
X162695000Y-85560000D01*
X161575000Y-80670000D02*
X161575000Y-81320000D01*
X161575000Y-86210000D02*
X161575000Y-85560000D01*
X162695000Y-81320000D02*
X160455000Y-81320000D01*
X162695000Y-85560000D02*
X162695000Y-81320000D01*
%TD*%
%LPC*%
D12*
%TO.C,U3-4040*%
X195490000Y-78850000D03*
D13*
X192950000Y-78850000D03*
X190410000Y-78850000D03*
X187870000Y-78850000D03*
X185330000Y-78850000D03*
X182790000Y-78850000D03*
X180250000Y-78850000D03*
X177710000Y-78850000D03*
X177710000Y-86470000D03*
X180250000Y-86470000D03*
X182790000Y-86470000D03*
X185330000Y-86470000D03*
X187870000Y-86470000D03*
X190410000Y-86470000D03*
X192950000Y-86470000D03*
X195490000Y-86470000D03*
%TD*%
D14*
%TO.C,R4*%
X143150000Y-103600000D03*
X143150000Y-95980000D03*
%TD*%
D15*
%TO.C,J7*%
X168500000Y-102450000D03*
%TD*%
D16*
%TO.C,R6*%
X164250000Y-101400000D03*
X156630000Y-101400000D03*
%TD*%
D17*
%TO.C,SW3*%
X169550000Y-95100000D03*
D18*
X169550000Y-90000000D03*
%TD*%
D19*
%TO.C,C5*%
X159850000Y-75650000D03*
D20*
X157350000Y-75650000D03*
%TD*%
D14*
%TO.C,R1*%
X165150000Y-79700000D03*
X165150000Y-87320000D03*
%TD*%
D21*
%TO.C,REF\u002A\u002A*%
X197500000Y-105100000D03*
%TD*%
D22*
%TO.C,J1*%
X162550000Y-72050000D03*
%TD*%
D14*
%TO.C,R8*%
X179563197Y-75723842D03*
X179563197Y-68103842D03*
%TD*%
D22*
%TO.C,9V*%
X137700000Y-93400000D03*
%TD*%
D14*
%TO.C,R9*%
X182063197Y-75723842D03*
X182063197Y-68103842D03*
%TD*%
D15*
%TO.C,J11*%
X166850000Y-106350000D03*
%TD*%
D16*
%TO.C,C10*%
X169350000Y-97450000D03*
X174350000Y-97450000D03*
%TD*%
D14*
%TO.C,C8*%
X147350000Y-93350000D03*
X147350000Y-88350000D03*
%TD*%
D12*
%TO.C,U2-4070/4030*%
X194750000Y-91300000D03*
D13*
X192210000Y-91300000D03*
X189670000Y-91300000D03*
X187130000Y-91300000D03*
X184590000Y-91300000D03*
X182050000Y-91300000D03*
X179510000Y-91300000D03*
X179510000Y-98920000D03*
X182050000Y-98920000D03*
X184590000Y-98920000D03*
X187130000Y-98920000D03*
X189670000Y-98920000D03*
X192210000Y-98920000D03*
X194750000Y-98920000D03*
%TD*%
D16*
%TO.C,C2*%
X146800000Y-86100000D03*
X151800000Y-86100000D03*
%TD*%
D23*
%TO.C,RV3*%
X198900000Y-91297500D03*
X198900000Y-87650000D03*
%TD*%
%TO.C,RV2*%
X137750384Y-100147500D03*
X137750384Y-96500000D03*
%TD*%
D24*
%TO.C,RV9*%
X163047500Y-106350000D03*
X159400000Y-106350000D03*
%TD*%
%TO.C,RV7*%
X143652500Y-106350000D03*
X147300000Y-106350000D03*
%TD*%
D21*
%TO.C,REF\u002A\u002A*%
X138850000Y-105150000D03*
%TD*%
D25*
%TO.C,C1*%
X145550000Y-80665216D03*
D26*
X145550000Y-75665216D03*
%TD*%
D14*
%TO.C,C3*%
X199500000Y-95100000D03*
X199500000Y-100100000D03*
%TD*%
D22*
%TO.C,J2*%
X166050000Y-76250000D03*
%TD*%
D14*
%TO.C,R3*%
X154025000Y-79730000D03*
X154025000Y-87350000D03*
%TD*%
%TO.C,R10*%
X184613197Y-75723842D03*
X184613197Y-68103842D03*
%TD*%
D22*
%TO.C,J3*%
X141950000Y-93350000D03*
%TD*%
D15*
%TO.C,J4*%
X179150000Y-102350000D03*
%TD*%
D16*
%TO.C,R5*%
X153250000Y-101000000D03*
X145630000Y-101000000D03*
%TD*%
D15*
%TO.C,J6*%
X182650000Y-102450000D03*
%TD*%
D19*
%TO.C,C11*%
X190700000Y-74250000D03*
D20*
X193200000Y-74250000D03*
%TD*%
D17*
%TO.C,SW1*%
X172500000Y-87100000D03*
D18*
X172500000Y-82600000D03*
%TD*%
D15*
%TO.C,J12*%
X191100000Y-104900000D03*
%TD*%
D22*
%TO.C,GND2*%
X198900000Y-75600000D03*
%TD*%
D27*
%TO.C,D3*%
X167550000Y-87150000D03*
D14*
X167550000Y-79530000D03*
%TD*%
D19*
%TO.C,C6*%
X153650000Y-74400000D03*
D20*
X153650000Y-71900000D03*
%TD*%
D27*
%TO.C,D4*%
X156575000Y-87250000D03*
D14*
X156575000Y-79630000D03*
%TD*%
D22*
%TO.C,J8*%
X147150000Y-98300000D03*
%TD*%
D24*
%TO.C,RV8*%
X151552500Y-106300000D03*
X155200000Y-106300000D03*
%TD*%
%TO.C,RV5*%
X165052500Y-68400000D03*
X168700000Y-68400000D03*
%TD*%
D21*
%TO.C,REF\u002A\u002A*%
X197700000Y-69550000D03*
%TD*%
D27*
%TO.C,D1*%
X137300000Y-82710000D03*
D14*
X137300000Y-75090000D03*
%TD*%
D24*
%TO.C,RV4*%
X172652500Y-68400000D03*
X176300000Y-68400000D03*
%TD*%
D22*
%TO.C,GND1*%
X144150000Y-69750000D03*
%TD*%
%TO.C,J9*%
X171950000Y-102450000D03*
%TD*%
D15*
%TO.C,J5*%
X185950000Y-102750000D03*
%TD*%
D16*
%TO.C,R7*%
X169690000Y-76200000D03*
X177310000Y-76200000D03*
%TD*%
D21*
%TO.C,REF\u002A\u002A*%
X138950000Y-69500000D03*
%TD*%
D24*
%TO.C,RV6*%
X160697500Y-68350000D03*
X157050000Y-68350000D03*
%TD*%
D22*
%TO.C,OUT1*%
X192800000Y-68500000D03*
%TD*%
D14*
%TO.C,C4*%
X198900000Y-79000000D03*
X198900000Y-84000000D03*
%TD*%
%TO.C,R11*%
X187113197Y-75723842D03*
X187113197Y-68103842D03*
%TD*%
D19*
%TO.C,C7*%
X148750000Y-70400000D03*
D20*
X148750000Y-67900000D03*
%TD*%
D14*
%TO.C,R2*%
X159125000Y-79730000D03*
X159125000Y-87350000D03*
%TD*%
D15*
%TO.C,J10*%
X174700000Y-106600000D03*
%TD*%
D22*
%TO.C,J13*%
X153300000Y-68150000D03*
%TD*%
D28*
%TO.C,RV1*%
X137450000Y-90750000D03*
D29*
X142450000Y-88250000D03*
X137450000Y-85750000D03*
%TD*%
D17*
%TO.C,SW2*%
X172187500Y-95100000D03*
D18*
X172187500Y-90000000D03*
%TD*%
D14*
%TO.C,C9*%
X144950000Y-93350000D03*
X144950000Y-88350000D03*
%TD*%
D30*
%TO.C,U1-40106*%
X150800000Y-97500000D03*
D13*
X153340000Y-97500000D03*
X155880000Y-97500000D03*
X158420000Y-97500000D03*
X160960000Y-97500000D03*
X163500000Y-97500000D03*
X166040000Y-97500000D03*
X166040000Y-89880000D03*
X163500000Y-89880000D03*
X160960000Y-89880000D03*
X158420000Y-89880000D03*
X155880000Y-89880000D03*
X153340000Y-89880000D03*
X150800000Y-89880000D03*
%TD*%
D27*
%TO.C,D2*%
X161575000Y-87250000D03*
D14*
X161575000Y-79630000D03*
%TD*%
%LPD*%
M02*
