M48
; DRILL file {KiCad 9.0.0} date 2026-03-06T00:50:46+0100
; FORMAT={-:-/ absolute / metric / decimal}
; #@! TF.CreationDate,2026-03-06T00:50:46+01:00
; #@! TF.GenerationSoftware,Kicad,Pcbnew,9.0.0
; #@! TF.FileFunction,Plated,1,2,PTH
FMAT,2
METRIC
; #@! TA.AperFunction,Plated,PTH,ComponentDrill
T1C0.700
; #@! TA.AperFunction,Plated,PTH,ComponentDrill
T2C0.800
; #@! TA.AperFunction,Plated,PTH,ComponentDrill
T3C0.900
; #@! TA.AperFunction,Plated,PTH,ComponentDrill
T4C1.000
; #@! TA.AperFunction,Plated,PTH,ComponentDrill
T5C1.100
; #@! TA.AperFunction,Plated,PTH,ComponentDrill
T6C1.200
; #@! TA.AperFunction,Plated,PTH,ComponentDrill
T7C1.400
%
G90
G05
T1
X143.15Y-95.98
X143.15Y-103.6
X145.63Y-101.0
X153.25Y-101.0
X154.025Y-79.73
X154.025Y-87.35
X156.63Y-101.4
X159.125Y-79.73
X159.125Y-87.35
X164.25Y-101.4
X165.15Y-79.7
X165.15Y-87.32
X169.69Y-76.2
X177.31Y-76.2
X179.563Y-68.104
X179.563Y-75.724
X182.063Y-68.104
X182.063Y-75.724
X184.613Y-68.104
X184.613Y-75.724
X187.113Y-68.104
X187.113Y-75.724
T2
X137.3Y-75.09
X137.3Y-82.71
X144.95Y-88.35
X144.95Y-93.35
X146.8Y-86.1
X147.35Y-88.35
X147.35Y-93.35
X148.75Y-67.9
X148.75Y-70.4
X150.8Y-89.88
X150.8Y-97.5
X151.8Y-86.1
X153.34Y-89.88
X153.34Y-97.5
X153.65Y-71.9
X153.65Y-74.4
X155.88Y-89.88
X155.88Y-97.5
X156.575Y-79.63
X156.575Y-87.25
X157.35Y-75.65
X158.42Y-89.88
X158.42Y-97.5
X159.85Y-75.65
X160.96Y-89.88
X160.96Y-97.5
X161.575Y-79.63
X161.575Y-87.25
X163.5Y-89.88
X163.5Y-97.5
X166.04Y-89.88
X166.04Y-97.5
X167.55Y-79.53
X167.55Y-87.15
X169.35Y-97.45
X174.35Y-97.45
X177.71Y-78.85
X177.71Y-86.47
X179.51Y-91.3
X179.51Y-98.92
X180.25Y-78.85
X180.25Y-86.47
X182.05Y-91.3
X182.05Y-98.92
X182.79Y-78.85
X182.79Y-86.47
X184.59Y-91.3
X184.59Y-98.92
X185.33Y-78.85
X185.33Y-86.47
X187.13Y-91.3
X187.13Y-98.92
X187.87Y-78.85
X187.87Y-86.47
X189.67Y-91.3
X189.67Y-98.92
X190.41Y-78.85
X190.41Y-86.47
X190.7Y-74.25
X192.21Y-91.3
X192.21Y-98.92
X192.95Y-78.85
X192.95Y-86.47
X193.2Y-74.25
X194.75Y-91.3
X194.75Y-98.92
X195.49Y-78.85
X195.49Y-86.47
X198.9Y-79.0
X198.9Y-84.0
X199.5Y-95.1
X199.5Y-100.1
T3
X169.55Y-90.0
X169.55Y-95.1
X172.188Y-90.0
X172.188Y-95.1
X172.5Y-82.6
X172.5Y-87.1
T4
X137.45Y-85.75
X137.45Y-90.75
X142.45Y-88.25
T5
X137.7Y-93.4
X141.95Y-93.35
X144.15Y-69.75
X147.15Y-98.3
X153.3Y-68.15
X162.55Y-72.05
X166.05Y-76.25
X166.85Y-106.35
X168.5Y-102.45
X171.95Y-102.45
X174.7Y-106.6
X179.15Y-102.35
X182.65Y-102.45
X185.95Y-102.75
X191.1Y-104.9
X192.8Y-68.5
X198.9Y-75.6
T6
X145.55Y-75.665
X145.55Y-80.665
T7
X137.75Y-96.5
X137.75Y-100.147
X143.653Y-106.35
X147.3Y-106.35
X151.552Y-106.3
X155.2Y-106.3
X157.05Y-68.35
X159.4Y-106.35
X160.697Y-68.35
X163.047Y-106.35
X165.052Y-68.4
X168.7Y-68.4
X172.653Y-68.4
X176.3Y-68.4
X198.9Y-87.65
X198.9Y-91.297
M30
